M48
; DRILL file {KiCad 9.0.6+1} date 2026-01-15T18:30:58+0000
; FORMAT={-:-/ absolute / metric / decimal}
; #@! TF.CreationDate,2026-01-15T18:30:58+00:00
; #@! TF.GenerationSoftware,Kicad,Pcbnew,9.0.6+1
; #@! TF.FileFunction,Plated,1,2,PTH
FMAT,2
METRIC
; #@! TA.AperFunction,Plated,PTH,ViaDrill
T1C0.250
; #@! TA.AperFunction,Plated,PTH,ComponentDrill
T2C1.000
%
G90
G05
T1
X137.0Y-92.75
X137.25Y-95.0
X139.5Y-85.121
X139.5Y-90.75
X140.716Y-91.44
X141.842Y-92.092
X142.25Y-86.75
X143.75Y-90.0
X144.0Y-92.0
X147.066Y-93.472
X147.32Y-88.138
X147.32Y-91.186
X149.25Y-89.5
X149.352Y-91.948
X149.5Y-85.5
X149.606Y-87.884
X149.86Y-90.678
X151.892Y-97.536
X152.654Y-92.534
X152.908Y-88.138
X155.75Y-90.0
X159.163Y-90.837
X159.258Y-88.138
X160.528Y-92.456
X160.782Y-89.154
X162.306Y-93.218
T2
X131.572Y-86.36
X131.572Y-88.9
X131.572Y-91.44
X131.572Y-93.98
X134.112Y-86.36
X134.112Y-88.9
X134.112Y-91.44
X134.112Y-93.98
M30
