%TF.GenerationSoftware,KiCad,Pcbnew,9.0.6+1*%
%TF.CreationDate,Date%
%TF.ProjectId,kibot-test-cicd,6b69626f-742d-4746-9573-742d63696364,0.1.0+ (Unreleased)*%
%TF.SameCoordinates,Original*%
%TF.FileFunction,Legend,Top*%
%TF.FilePolarity,Positive*%
%FSLAX46Y46*%
G04 Gerber Fmt 4.6, Leading zero omitted, Abs format (unit mm)*
G04 Created by KiCad*
%MOMM*%
%LPD*%
G01*
G04 APERTURE LIST*
G04 Aperture macros list*
%AMRoundRect*
0 Rectangle with rounded corners*
0 $1 Rounding radius*
0 $2 $3 $4 $5 $6 $7 $8 $9 X,Y pos of 4 corners*
0 Add a 4 corners polygon primitive as box body*
4,1,4,$2,$3,$4,$5,$6,$7,$8,$9,$2,$3,0*
0 Add four circle primitives for the rounded corners*
1,1,$1+$1,$2,$3*
1,1,$1+$1,$4,$5*
1,1,$1+$1,$6,$7*
1,1,$1+$1,$8,$9*
0 Add four rect primitives between the rounded corners*
20,1,$1+$1,$2,$3,$4,$5,0*
20,1,$1+$1,$4,$5,$6,$7,0*
20,1,$1+$1,$6,$7,$8,$9,0*
20,1,$1+$1,$8,$9,$2,$3,0*%
%AMFreePoly0*
4,1,39,0.535355,0.785355,0.550000,0.750000,0.550000,-0.750000,0.535355,-0.785355,0.500000,-0.800000,0.000000,-0.800000,-0.010328,-0.795722,-0.065263,-0.795722,-0.078204,-0.794018,-0.204283,-0.760236,-0.216342,-0.755241,-0.329381,-0.689978,-0.339736,-0.682032,-0.432032,-0.589736,-0.439978,-0.579381,-0.505241,-0.466342,-0.510236,-0.454283,-0.544018,-0.328204,-0.545722,-0.315263,-0.545722,-0.260327,
-0.550000,-0.250000,-0.550000,0.250000,-0.545722,0.260327,-0.545722,0.315263,-0.544018,0.328204,-0.510236,0.454283,-0.505241,0.466342,-0.439978,0.579381,-0.432032,0.589736,-0.339736,0.682032,-0.329381,0.689978,-0.216342,0.755241,-0.204283,0.760236,-0.078204,0.794018,-0.065263,0.795722,-0.010328,0.795722,0.000000,0.800000,0.500000,0.800000,0.535355,0.785355,0.535355,0.785355,
$1*%
%AMFreePoly1*
4,1,39,0.010328,0.795722,0.065263,0.795722,0.078204,0.794018,0.204283,0.760236,0.216342,0.755241,0.329381,0.689978,0.339736,0.682032,0.432032,0.589736,0.439978,0.579381,0.505241,0.466342,0.510236,0.454283,0.544018,0.328204,0.545722,0.315263,0.545722,0.260327,0.550000,0.250000,0.550000,-0.250000,0.545722,-0.260327,0.545722,-0.315263,0.544018,-0.328204,0.510236,-0.454283,
0.505241,-0.466342,0.439978,-0.579381,0.432032,-0.589736,0.339736,-0.682032,0.329381,-0.689978,0.216342,-0.755241,0.204283,-0.760236,0.078204,-0.794018,0.065263,-0.795722,0.010328,-0.795722,0.000000,-0.800000,-0.500000,-0.800000,-0.535355,-0.785355,-0.550000,-0.750000,-0.550000,0.750000,-0.535355,0.785355,-0.500000,0.800000,0.000000,0.800000,0.010328,0.795722,0.010328,0.795722,
$1*%
G04 Aperture macros list end*
%ADD10C,0.150000*%
%ADD11C,0.120000*%
%ADD12FreePoly0,0.000000*%
%ADD13FreePoly1,0.000000*%
%ADD14RoundRect,0.087500X-0.087500X0.142500X-0.087500X-0.142500X0.087500X-0.142500X0.087500X0.142500X0*%
%ADD15C,3.300000*%
%ADD16RoundRect,0.243750X-0.281250X0.243750X-0.281250X-0.243750X0.281250X-0.243750X0.281250X0.243750X0*%
%ADD17RoundRect,0.250000X-0.275000X0.250000X-0.275000X-0.250000X0.275000X-0.250000X0.275000X0.250000X0*%
%ADD18RoundRect,0.175000X-0.650000X0.175000X-0.650000X-0.175000X0.650000X-0.175000X0.650000X0.175000X0*%
%ADD19RoundRect,0.270833X-0.679167X0.379167X-0.679167X-0.379167X0.679167X-0.379167X0.679167X0.379167X0*%
%ADD20RoundRect,0.160000X-0.160000X-0.210000X0.160000X-0.210000X0.160000X0.210000X-0.160000X0.210000X0*%
%ADD21RoundRect,0.050000X0.850000X0.850000X-0.850000X0.850000X-0.850000X-0.850000X0.850000X-0.850000X0*%
%ADD22C,1.800000*%
G04 APERTURE END LIST*
D10*
X145216666Y-107404819D02*
X145216666Y-108119104D01*
X145216666Y-108119104D02*
X145169047Y-108261961D01*
X145169047Y-108261961D02*
X145073809Y-108357200D01*
X145073809Y-108357200D02*
X144930952Y-108404819D01*
X144930952Y-108404819D02*
X144835714Y-108404819D01*
X145692857Y-108404819D02*
X145692857Y-107404819D01*
X145692857Y-107404819D02*
X146073809Y-107404819D01*
X146073809Y-107404819D02*
X146169047Y-107452438D01*
X146169047Y-107452438D02*
X146216666Y-107500057D01*
X146216666Y-107500057D02*
X146264285Y-107595295D01*
X146264285Y-107595295D02*
X146264285Y-107738152D01*
X146264285Y-107738152D02*
X146216666Y-107833390D01*
X146216666Y-107833390D02*
X146169047Y-107881009D01*
X146169047Y-107881009D02*
X146073809Y-107928628D01*
X146073809Y-107928628D02*
X145692857Y-107928628D01*
X147216666Y-108404819D02*
X146645238Y-108404819D01*
X146930952Y-108404819D02*
X146930952Y-107404819D01*
X146930952Y-107404819D02*
X146835714Y-107547676D01*
X146835714Y-107547676D02*
X146740476Y-107642914D01*
X146740476Y-107642914D02*
X146645238Y-107690533D01*
X159782819Y-91670094D02*
X158782819Y-91670094D01*
X158782819Y-91670094D02*
X158782819Y-91431999D01*
X158782819Y-91431999D02*
X158830438Y-91289142D01*
X158830438Y-91289142D02*
X158925676Y-91193904D01*
X158925676Y-91193904D02*
X159020914Y-91146285D01*
X159020914Y-91146285D02*
X159211390Y-91098666D01*
X159211390Y-91098666D02*
X159354247Y-91098666D01*
X159354247Y-91098666D02*
X159544723Y-91146285D01*
X159544723Y-91146285D02*
X159639961Y-91193904D01*
X159639961Y-91193904D02*
X159735200Y-91289142D01*
X159735200Y-91289142D02*
X159782819Y-91431999D01*
X159782819Y-91431999D02*
X159782819Y-91670094D01*
X159782819Y-90146285D02*
X159782819Y-90717713D01*
X159782819Y-90431999D02*
X158782819Y-90431999D01*
X158782819Y-90431999D02*
X158925676Y-90527237D01*
X158925676Y-90527237D02*
X159020914Y-90622475D01*
X159020914Y-90622475D02*
X159068533Y-90717713D01*
X157988095Y-99174819D02*
X157988095Y-98174819D01*
X157988095Y-98651009D02*
X158559523Y-98651009D01*
X158559523Y-99174819D02*
X158559523Y-98174819D01*
X158988095Y-98270057D02*
X159035714Y-98222438D01*
X159035714Y-98222438D02*
X159130952Y-98174819D01*
X159130952Y-98174819D02*
X159369047Y-98174819D01*
X159369047Y-98174819D02*
X159464285Y-98222438D01*
X159464285Y-98222438D02*
X159511904Y-98270057D01*
X159511904Y-98270057D02*
X159559523Y-98365295D01*
X159559523Y-98365295D02*
X159559523Y-98460533D01*
X159559523Y-98460533D02*
X159511904Y-98603390D01*
X159511904Y-98603390D02*
X158940476Y-99174819D01*
X158940476Y-99174819D02*
X159559523Y-99174819D01*
X142599580Y-87288666D02*
X142647200Y-87336285D01*
X142647200Y-87336285D02*
X142694819Y-87479142D01*
X142694819Y-87479142D02*
X142694819Y-87574380D01*
X142694819Y-87574380D02*
X142647200Y-87717237D01*
X142647200Y-87717237D02*
X142551961Y-87812475D01*
X142551961Y-87812475D02*
X142456723Y-87860094D01*
X142456723Y-87860094D02*
X142266247Y-87907713D01*
X142266247Y-87907713D02*
X142123390Y-87907713D01*
X142123390Y-87907713D02*
X141932914Y-87860094D01*
X141932914Y-87860094D02*
X141837676Y-87812475D01*
X141837676Y-87812475D02*
X141742438Y-87717237D01*
X141742438Y-87717237D02*
X141694819Y-87574380D01*
X141694819Y-87574380D02*
X141694819Y-87479142D01*
X141694819Y-87479142D02*
X141742438Y-87336285D01*
X141742438Y-87336285D02*
X141790057Y-87288666D01*
X142694819Y-86336285D02*
X142694819Y-86907713D01*
X142694819Y-86621999D02*
X141694819Y-86621999D01*
X141694819Y-86621999D02*
X141837676Y-86717237D01*
X141837676Y-86717237D02*
X141932914Y-86812475D01*
X141932914Y-86812475D02*
X141980533Y-86907713D01*
X166584819Y-90503333D02*
X167299104Y-90503333D01*
X167299104Y-90503333D02*
X167441961Y-90550952D01*
X167441961Y-90550952D02*
X167537200Y-90646190D01*
X167537200Y-90646190D02*
X167584819Y-90789047D01*
X167584819Y-90789047D02*
X167584819Y-90884285D01*
X166680057Y-90074761D02*
X166632438Y-90027142D01*
X166632438Y-90027142D02*
X166584819Y-89931904D01*
X166584819Y-89931904D02*
X166584819Y-89693809D01*
X166584819Y-89693809D02*
X166632438Y-89598571D01*
X166632438Y-89598571D02*
X166680057Y-89550952D01*
X166680057Y-89550952D02*
X166775295Y-89503333D01*
X166775295Y-89503333D02*
X166870533Y-89503333D01*
X166870533Y-89503333D02*
X167013390Y-89550952D01*
X167013390Y-89550952D02*
X167584819Y-90122380D01*
X167584819Y-90122380D02*
X167584819Y-89503333D01*
X136313095Y-74724968D02*
X136313095Y-73724968D01*
X136313095Y-74201158D02*
X136884523Y-74201158D01*
X136884523Y-74724968D02*
X136884523Y-73724968D01*
X137884523Y-74724968D02*
X137313095Y-74724968D01*
X137598809Y-74724968D02*
X137598809Y-73724968D01*
X137598809Y-73724968D02*
X137503571Y-73867825D01*
X137503571Y-73867825D02*
X137408333Y-73963063D01*
X137408333Y-73963063D02*
X137313095Y-74010682D01*
X157988095Y-74790819D02*
X157988095Y-73790819D01*
X157988095Y-74267009D02*
X158559523Y-74267009D01*
X158559523Y-74790819D02*
X158559523Y-73790819D01*
X158940476Y-73790819D02*
X159559523Y-73790819D01*
X159559523Y-73790819D02*
X159226190Y-74171771D01*
X159226190Y-74171771D02*
X159369047Y-74171771D01*
X159369047Y-74171771D02*
X159464285Y-74219390D01*
X159464285Y-74219390D02*
X159511904Y-74267009D01*
X159511904Y-74267009D02*
X159559523Y-74362247D01*
X159559523Y-74362247D02*
X159559523Y-74600342D01*
X159559523Y-74600342D02*
X159511904Y-74695580D01*
X159511904Y-74695580D02*
X159464285Y-74743200D01*
X159464285Y-74743200D02*
X159369047Y-74790819D01*
X159369047Y-74790819D02*
X159083333Y-74790819D01*
X159083333Y-74790819D02*
X158988095Y-74743200D01*
X158988095Y-74743200D02*
X158940476Y-74695580D01*
X147663333Y-102154819D02*
X147330000Y-101678628D01*
X147091905Y-102154819D02*
X147091905Y-101154819D01*
X147091905Y-101154819D02*
X147472857Y-101154819D01*
X147472857Y-101154819D02*
X147568095Y-101202438D01*
X147568095Y-101202438D02*
X147615714Y-101250057D01*
X147615714Y-101250057D02*
X147663333Y-101345295D01*
X147663333Y-101345295D02*
X147663333Y-101488152D01*
X147663333Y-101488152D02*
X147615714Y-101583390D01*
X147615714Y-101583390D02*
X147568095Y-101631009D01*
X147568095Y-101631009D02*
X147472857Y-101678628D01*
X147472857Y-101678628D02*
X147091905Y-101678628D01*
X148615714Y-102154819D02*
X148044286Y-102154819D01*
X148330000Y-102154819D02*
X148330000Y-101154819D01*
X148330000Y-101154819D02*
X148234762Y-101297676D01*
X148234762Y-101297676D02*
X148139524Y-101392914D01*
X148139524Y-101392914D02*
X148044286Y-101440533D01*
X136313095Y-98574968D02*
X136313095Y-97574968D01*
X136313095Y-98051158D02*
X136884523Y-98051158D01*
X136884523Y-98574968D02*
X136884523Y-97574968D01*
X137789285Y-97908301D02*
X137789285Y-98574968D01*
X137551190Y-97527349D02*
X137313095Y-98241634D01*
X137313095Y-98241634D02*
X137932142Y-98241634D01*
X131751666Y-95814819D02*
X131751666Y-96529104D01*
X131751666Y-96529104D02*
X131704047Y-96671961D01*
X131704047Y-96671961D02*
X131608809Y-96767200D01*
X131608809Y-96767200D02*
X131465952Y-96814819D01*
X131465952Y-96814819D02*
X131370714Y-96814819D01*
X132751666Y-96814819D02*
X132180238Y-96814819D01*
X132465952Y-96814819D02*
X132465952Y-95814819D01*
X132465952Y-95814819D02*
X132370714Y-95957676D01*
X132370714Y-95957676D02*
X132275476Y-96052914D01*
X132275476Y-96052914D02*
X132180238Y-96100533D01*
D11*
%TO.C,JP1*%
X144650000Y-105710000D02*
X144650000Y-105110000D01*
X145350000Y-104410000D02*
X146750000Y-104410000D01*
X146750000Y-106410000D02*
X145350000Y-106410000D01*
X147450000Y-105110000D02*
X147450000Y-105710000D01*
X144650000Y-105110000D02*
G75*
G02*
X145350000Y-104410000I699999J1D01*
G01*
X145350000Y-106410000D02*
G75*
G02*
X144650000Y-105710000I-1J699999D01*
G01*
X146750000Y-104410000D02*
G75*
G02*
X147450000Y-105110000I0J-700000D01*
G01*
X147450000Y-105710000D02*
G75*
G02*
X146750000Y-106410000I-700000J0D01*
G01*
%TO.C,D1*%
X160128000Y-90432000D02*
X160128000Y-91792000D01*
X160128000Y-91792000D02*
X160928000Y-91792000D01*
X160928000Y-90432000D02*
X160928000Y-91792000D01*
%TO.C,D2*%
X144045000Y-100115000D02*
X144045000Y-102400000D01*
X145515000Y-100115000D02*
X144045000Y-100115000D01*
X145515000Y-102400000D02*
X145515000Y-100115000D01*
%TO.C,C1*%
X143254000Y-88759420D02*
X143254000Y-89040580D01*
X144274000Y-88759420D02*
X144274000Y-89040580D01*
%TO.C,J2*%
X162720000Y-86560000D02*
X162720000Y-87610000D01*
X162720000Y-87610000D02*
X161730000Y-87610000D01*
X162720000Y-93780000D02*
X162720000Y-92730000D01*
X163870000Y-86560000D02*
X162720000Y-86560000D01*
X163870000Y-93780000D02*
X162720000Y-93780000D01*
X165840000Y-87730000D02*
X165840000Y-92610000D01*
%TO.C,R1*%
X147676359Y-102490000D02*
X147983641Y-102490000D01*
X147676359Y-103250000D02*
X147983641Y-103250000D01*
%TO.C,J1*%
X129435000Y-95360000D02*
X129435000Y-84980000D01*
X132085000Y-92710000D02*
X132085000Y-95360000D01*
X132085000Y-95360000D02*
X129435000Y-95360000D01*
X134735000Y-84980000D02*
X129435000Y-84980000D01*
X134735000Y-92710000D02*
X132085000Y-92710000D01*
X134735000Y-92710000D02*
X134735000Y-84980000D01*
X134735000Y-93980000D02*
X134735000Y-95360000D01*
X134735000Y-95360000D02*
X133355000Y-95360000D01*
%TD*%
%LPC*%
%TO.C,JP1*%
G36*
X145900000Y-104660000D02*
G01*
X146200000Y-104660000D01*
X146200000Y-106160000D01*
X145900000Y-106160000D01*
X145900000Y-104660000D01*
G37*
%TD*%
D12*
%TO.C,JP1*%
X145400000Y-105410000D03*
D13*
X146700000Y-105410000D03*
%TD*%
D14*
%TO.C,D1*%
X160528000Y-91352000D03*
X160528000Y-90512000D03*
%TD*%
D15*
%TO.C,H2*%
X158750000Y-102870000D03*
%TD*%
D16*
%TO.C,D2*%
X144780000Y-100812500D03*
X144780000Y-102387500D03*
%TD*%
D17*
%TO.C,C1*%
X143764000Y-88125000D03*
X143764000Y-89675000D03*
%TD*%
D18*
%TO.C,J2*%
X162505000Y-88170000D03*
X162505000Y-89170000D03*
X162505000Y-90170000D03*
X162505000Y-91170000D03*
X162505000Y-92170000D03*
D19*
X165030000Y-86870000D03*
X165030000Y-93470000D03*
%TD*%
D15*
%TO.C,H1*%
X137075000Y-78420149D03*
%TD*%
%TO.C,H3*%
X158750000Y-78486000D03*
%TD*%
D20*
%TO.C,R1*%
X147320000Y-102870000D03*
X148340000Y-102870000D03*
%TD*%
D15*
%TO.C,H4*%
X137075000Y-102270149D03*
%TD*%
D21*
%TO.C,J1*%
X133355000Y-93980000D03*
D22*
X130815000Y-93980000D03*
X133355000Y-91440000D03*
X130815000Y-91440000D03*
X133355000Y-88900000D03*
X130815000Y-88900000D03*
X133355000Y-86360000D03*
X130815000Y-86360000D03*
%TD*%
%LPD*%
M02*
