%TF.GenerationSoftware,KiCad,Pcbnew,9.0.6+1*%
%TF.CreationDate,Date%
%TF.ProjectId,kibot-test-cicd,6b69626f-742d-4746-9573-742d63696364,0.1.0+ (Unreleased)*%
%TF.SameCoordinates,Original*%
%TF.FileFunction,Copper,L1,Top*%
%TF.FilePolarity,Positive*%
%FSLAX46Y46*%
G04 Gerber Fmt 4.6, Leading zero omitted, Abs format (unit mm)*
G04 Created by KiCad*
%MOMM*%
%LPD*%
G01*
G04 APERTURE LIST*
G04 Aperture macros list*
%AMRoundRect*
0 Rectangle with rounded corners*
0 $1 Rounding radius*
0 $2 $3 $4 $5 $6 $7 $8 $9 X,Y pos of 4 corners*
0 Add a 4 corners polygon primitive as box body*
4,1,4,$2,$3,$4,$5,$6,$7,$8,$9,$2,$3,0*
0 Add four circle primitives for the rounded corners*
1,1,$1+$1,$2,$3*
1,1,$1+$1,$4,$5*
1,1,$1+$1,$6,$7*
1,1,$1+$1,$8,$9*
0 Add four rect primitives between the rounded corners*
20,1,$1+$1,$2,$3,$4,$5,0*
20,1,$1+$1,$4,$5,$6,$7,0*
20,1,$1+$1,$6,$7,$8,$9,0*
20,1,$1+$1,$8,$9,$2,$3,0*%
%AMFreePoly0*
4,1,23,0.500000,-0.750000,0.000000,-0.750000,0.000000,-0.745722,-0.065263,-0.745722,-0.191342,-0.711940,-0.304381,-0.646677,-0.396677,-0.554381,-0.461940,-0.441342,-0.495722,-0.315263,-0.495722,-0.250000,-0.500000,-0.250000,-0.500000,0.250000,-0.495722,0.250000,-0.495722,0.315263,-0.461940,0.441342,-0.396677,0.554381,-0.304381,0.646677,-0.191342,0.711940,-0.065263,0.745722,0.000000,0.745722,
0.000000,0.750000,0.500000,0.750000,0.500000,-0.750000,0.500000,-0.750000,$1*%
%AMFreePoly1*
4,1,23,0.000000,0.745722,0.065263,0.745722,0.191342,0.711940,0.304381,0.646677,0.396677,0.554381,0.461940,0.441342,0.495722,0.315263,0.495722,0.250000,0.500000,0.250000,0.500000,-0.250000,0.495722,-0.250000,0.495722,-0.315263,0.461940,-0.441342,0.396677,-0.554381,0.304381,-0.646677,0.191342,-0.711940,0.065263,-0.745722,0.000000,-0.745722,0.000000,-0.750000,-0.500000,-0.750000,
-0.500000,0.750000,0.000000,0.750000,0.000000,0.745722,0.000000,0.745722,$1*%
G04 Aperture macros list end*
%TA.AperFunction,EtchedComponent*%
%ADD10C,0.000000*%
%TD*%
%TA.AperFunction,SMDPad,CuDef*%
%ADD11FreePoly0,180.000000*%
%TD*%
%TA.AperFunction,SMDPad,CuDef*%
%ADD12FreePoly1,180.000000*%
%TD*%
%TA.AperFunction,SMDPad,CuDef*%
%ADD13RoundRect,0.062500X0.117500X0.062500X-0.117500X0.062500X-0.117500X-0.062500X0.117500X-0.062500X0*%
%TD*%
%TA.AperFunction,SMDPad,CuDef*%
%ADD14RoundRect,0.218750X-0.256250X0.218750X-0.256250X-0.218750X0.256250X-0.218750X0.256250X0.218750X0*%
%TD*%
%TA.AperFunction,SMDPad,CuDef*%
%ADD15RoundRect,0.225000X0.250000X-0.225000X0.250000X0.225000X-0.250000X0.225000X-0.250000X-0.225000X0*%
%TD*%
%TA.AperFunction,SMDPad,CuDef*%
%ADD16RoundRect,0.150000X-0.625000X0.150000X-0.625000X-0.150000X0.625000X-0.150000X0.625000X0.150000X0*%
%TD*%
%TA.AperFunction,SMDPad,CuDef*%
%ADD17RoundRect,0.250000X-0.650000X0.350000X-0.650000X-0.350000X0.650000X-0.350000X0.650000X0.350000X0*%
%TD*%
%TA.AperFunction,SMDPad,CuDef*%
%ADD18RoundRect,0.135000X-0.185000X0.135000X-0.185000X-0.135000X0.185000X-0.135000X0.185000X0.135000X0*%
%TD*%
%TA.AperFunction,ComponentPad*%
%ADD19R,1.700000X1.700000*%
%TD*%
%TA.AperFunction,ComponentPad*%
%ADD20C,1.700000*%
%TD*%
%TA.AperFunction,ViaPad*%
%ADD21C,1.300000*%
%TD*%
%TA.AperFunction,Conductor*%
%ADD22C,0.200000*%
%TD*%
%TA.AperFunction,Conductor*%
%ADD23C,0.400000*%
%TD*%
G04 APERTURE END LIST*
D10*
%TA.AperFunction,EtchedComponent*%
%TO.C,JP1*%
G36*
X150222000Y-97836000D02*
G01*
X149722000Y-97836000D01*
X149722000Y-97236000D01*
X150222000Y-97236000D01*
X150222000Y-97836000D01*
G37*
%TD.AperFunction*%
%TD*%
D11*
%TO.P,JP1,1,A*%
%TO.N,GND*%
X150622000Y-97536000D03*
D12*
%TO.P,JP1,2,B*%
%TO.N,Net-(JP1-B)*%
X149322000Y-97536000D03*
%TD*%
D13*
%TO.P,D1,1,A1*%
%TO.N,GND*%
X159766000Y-90424000D03*
%TO.P,D1,2,A2*%
%TO.N,+3V3*%
X160606000Y-90424000D03*
%TD*%
D14*
%TO.P,D2,1,K*%
%TO.N,+3V3*%
X144272000Y-93700500D03*
%TO.P,D2,2,A*%
%TO.N,Net-(D2-A)*%
X144272000Y-95275500D03*
%TD*%
D15*
%TO.P,C1,1*%
%TO.N,+3V3*%
X146040000Y-93570000D03*
%TO.P,C1,2*%
%TO.N,GND*%
X146040000Y-92020000D03*
%TD*%
D16*
%TO.P,J2,1,Pin_1*%
%TO.N,SDA-A*%
X162505000Y-88170000D03*
%TO.P,J2,2,Pin_2*%
%TO.N,SCL-B*%
X162505000Y-89170000D03*
%TO.P,J2,3,Pin_3*%
%TO.N,+3V3*%
X162505000Y-90170000D03*
%TO.P,J2,4,Pin_4*%
%TO.N,Z-CS*%
X162505000Y-91170000D03*
%TO.P,J2,5,Pin_5*%
%TO.N,GND*%
X162505000Y-92170000D03*
D17*
%TO.P,J2,MP*%
%TO.N,N/C*%
X165030000Y-86870000D03*
X165030000Y-93470000D03*
%TD*%
D18*
%TO.P,R1,1*%
%TO.N,Net-(D2-A)*%
X146050000Y-95248000D03*
%TO.P,R1,2*%
%TO.N,Net-(JP1-B)*%
X146050000Y-96268000D03*
%TD*%
D19*
%TO.P,J1,1,Pin_1*%
%TO.N,out_sel*%
X134112000Y-93980000D03*
D20*
%TO.P,J1,2,Pin_2*%
%TO.N,mode*%
X131572000Y-93980000D03*
%TO.P,J1,3,Pin_3*%
%TO.N,+3V3*%
X134112000Y-91440000D03*
%TO.P,J1,4,Pin_4*%
%TO.N,push*%
X131572000Y-91440000D03*
%TO.P,J1,5,Pin_5*%
%TO.N,GND*%
X134112000Y-88900000D03*
%TO.P,J1,6,Pin_6*%
%TO.N,SDA-A*%
X131572000Y-88900000D03*
%TO.P,J1,7,Pin_7*%
%TO.N,SCL-B*%
X134112000Y-86360000D03*
%TO.P,J1,8,Pin_8*%
%TO.N,Z-CS*%
X131572000Y-86360000D03*
%TD*%
D21*
%TO.N,GND*%
X155750000Y-93000000D03*
X148234258Y-89515216D03*
X139500000Y-84746000D03*
X162500000Y-93750000D03*
X137000000Y-92750000D03*
X152750000Y-97750000D03*
%TO.N,+3V3*%
X148250000Y-93750000D03*
%TO.N,out_sel*%
X140000000Y-91250000D03*
%TO.N,SDA-A*%
X156000000Y-88000000D03*
%TO.N,mode*%
X141842000Y-92092000D03*
%TO.N,push*%
X152908000Y-88138000D03*
X152789891Y-92368000D03*
%TO.N,SCL-B*%
X149250000Y-90678000D03*
X159250000Y-89154000D03*
X149069532Y-87430468D03*
%TO.N,Z-CS*%
X148750000Y-92250000D03*
X160528000Y-92456000D03*
X149500000Y-85500000D03*
%TD*%
D22*
%TO.N,GND*%
X152536000Y-97536000D02*
X152750000Y-97750000D01*
X162505000Y-92170000D02*
X162505000Y-93745000D01*
X162505000Y-93745000D02*
X162500000Y-93750000D01*
X150622000Y-97536000D02*
X152536000Y-97536000D01*
D23*
%TO.N,+3V3*%
X144141500Y-93570000D02*
X144018000Y-93446500D01*
X144018000Y-93446500D02*
X143002000Y-92430500D01*
X161290000Y-90170000D02*
X162505000Y-90170000D01*
X160606000Y-90424000D02*
X156280000Y-94750000D01*
X160606000Y-90424000D02*
X161036000Y-90424000D01*
X146040000Y-93570000D02*
X148070000Y-93570000D01*
X135877000Y-89675000D02*
X134112000Y-91440000D01*
X161036000Y-90424000D02*
X161290000Y-90170000D01*
X143002000Y-91694000D02*
X140983000Y-89675000D01*
X146040000Y-93570000D02*
X144141500Y-93570000D01*
X140983000Y-89675000D02*
X135877000Y-89675000D01*
X156280000Y-94750000D02*
X149250000Y-94750000D01*
X144018000Y-93446500D02*
X144272000Y-93700500D01*
X148070000Y-93570000D02*
X148250000Y-93750000D01*
X149250000Y-94750000D02*
X148250000Y-93750000D01*
X143002000Y-92430500D02*
X143002000Y-91694000D01*
D22*
%TO.N,Net-(D2-A)*%
X144272000Y-95275500D02*
X146022500Y-95275500D01*
X146022500Y-95275500D02*
X146050000Y-95248000D01*
%TO.N,out_sel*%
X137270000Y-93980000D02*
X140000000Y-91250000D01*
X134112000Y-93980000D02*
X137270000Y-93980000D01*
%TO.N,SDA-A*%
X156170000Y-88170000D02*
X156000000Y-88000000D01*
X162505000Y-88170000D02*
X156170000Y-88170000D01*
%TO.N,mode*%
X138176000Y-95758000D02*
X141842000Y-92092000D01*
X133350000Y-95758000D02*
X138176000Y-95758000D01*
X131572000Y-93980000D02*
X133350000Y-95758000D01*
%TO.N,push*%
X152908000Y-92280000D02*
X152820000Y-92368000D01*
X152820000Y-92368000D02*
X152789891Y-92368000D01*
X152908000Y-88138000D02*
X152908000Y-92280000D01*
%TO.N,SCL-B*%
X149502379Y-90425621D02*
X149502379Y-87863314D01*
X149250000Y-90678000D02*
X149502379Y-90425621D01*
X149502379Y-87863314D02*
X149069532Y-87430468D01*
X159266000Y-89170000D02*
X159250000Y-89154000D01*
X162505000Y-89170000D02*
X159266000Y-89170000D01*
%TO.N,Z-CS*%
X149500000Y-85500000D02*
X147269199Y-87730801D01*
X147269199Y-90117070D02*
X148750000Y-91597871D01*
X161814000Y-91170000D02*
X160528000Y-92456000D01*
X162505000Y-91170000D02*
X161814000Y-91170000D01*
X147269199Y-87730801D02*
X147269199Y-90117070D01*
X148750000Y-91597871D02*
X148750000Y-92250000D01*
%TO.N,Net-(JP1-B)*%
X148054000Y-96268000D02*
X149322000Y-97536000D01*
X146050000Y-96268000D02*
X148054000Y-96268000D01*
%TD*%
%TA.AperFunction,Conductor*%
%TO.N,GND*%
G36*
X166635702Y-86486634D02*
G01*
X166673476Y-86545412D01*
X166676332Y-86557264D01*
X166711727Y-86744080D01*
X166712180Y-86746619D01*
X166775515Y-87123621D01*
X166775916Y-87126170D01*
X166831398Y-87504433D01*
X166831746Y-87506989D01*
X166879346Y-87886325D01*
X166879641Y-87888888D01*
X166919344Y-88269168D01*
X166919585Y-88271736D01*
X166951364Y-88652716D01*
X166951552Y-88655290D01*
X166975400Y-89036882D01*
X166975534Y-89039458D01*
X166991439Y-89421466D01*
X166991519Y-89424044D01*
X166999472Y-89806252D01*
X166999499Y-89808832D01*
X166999499Y-90191167D01*
X166999472Y-90193747D01*
X166991519Y-90575955D01*
X166991439Y-90578533D01*
X166975534Y-90960541D01*
X166975400Y-90963117D01*
X166951552Y-91344709D01*
X166951364Y-91347283D01*
X166919585Y-91728263D01*
X166919344Y-91730831D01*
X166879641Y-92111111D01*
X166879346Y-92113674D01*
X166831746Y-92493010D01*
X166831398Y-92495566D01*
X166775916Y-92873829D01*
X166775515Y-92876378D01*
X166712180Y-93253380D01*
X166711727Y-93255919D01*
X166676332Y-93442734D01*
X166644511Y-93504937D01*
X166584113Y-93540063D01*
X166514312Y-93536958D01*
X166457271Y-93496610D01*
X166431098Y-93431827D01*
X166430499Y-93419651D01*
X166430499Y-93069998D01*
X166430498Y-93069980D01*
X166419999Y-92967203D01*
X166419998Y-92967200D01*
X166402275Y-92913716D01*
X166364814Y-92800666D01*
X166272712Y-92651344D01*
X166148656Y-92527288D01*
X165999334Y-92435186D01*
X165832797Y-92380001D01*
X165832795Y-92380000D01*
X165730010Y-92369500D01*
X164329998Y-92369500D01*
X164329981Y-92369501D01*
X164227203Y-92380000D01*
X164227200Y-92380001D01*
X164060668Y-92435185D01*
X164060663Y-92435187D01*
X163911342Y-92527289D01*
X163787289Y-92651342D01*
X163695187Y-92800663D01*
X163695185Y-92800668D01*
X163677846Y-92852994D01*
X163640001Y-92967203D01*
X163640001Y-92967204D01*
X163640000Y-92967204D01*
X163629500Y-93069983D01*
X163629500Y-93870001D01*
X163629501Y-93870019D01*
X163640000Y-93972796D01*
X163640001Y-93972799D01*
X163670780Y-94065683D01*
X163695186Y-94139334D01*
X163787288Y-94288656D01*
X163911344Y-94412712D01*
X164060666Y-94504814D01*
X164227203Y-94559999D01*
X164329991Y-94570500D01*
X165730008Y-94570499D01*
X165832797Y-94559999D01*
X165999334Y-94504814D01*
X166148656Y-94412712D01*
X166255484Y-94305883D01*
X166316803Y-94272401D01*
X166386495Y-94277385D01*
X166442429Y-94319256D01*
X166466846Y-94384720D01*
X166463317Y-94424205D01*
X166378708Y-94756025D01*
X166378045Y-94758518D01*
X166275890Y-95126961D01*
X166275175Y-95129439D01*
X166165381Y-95495663D01*
X166164615Y-95498126D01*
X166047237Y-95861954D01*
X166046419Y-95864401D01*
X165921492Y-96225723D01*
X165920624Y-96228153D01*
X165788184Y-96586859D01*
X165787265Y-96589269D01*
X165647422Y-96945066D01*
X165646453Y-96947458D01*
X165499226Y-97300295D01*
X165498208Y-97302665D01*
X165343673Y-97652365D01*
X165342606Y-97654714D01*
X165180838Y-98001104D01*
X165179722Y-98003430D01*
X165010765Y-98346413D01*
X165009601Y-98348715D01*
X164833545Y-98688113D01*
X164832333Y-98690390D01*
X164649276Y-99026013D01*
X164648030Y-99028242D01*
X164529775Y-99234716D01*
X164458013Y-99360012D01*
X164456708Y-99362236D01*
X164259845Y-99689958D01*
X164258494Y-99692156D01*
X164054829Y-100015753D01*
X164053432Y-100017922D01*
X163843086Y-100337200D01*
X163841656Y-100339322D01*
X163624696Y-100654182D01*
X163623239Y-100656251D01*
X163399823Y-100966461D01*
X163398294Y-100968538D01*
X163338340Y-101048234D01*
X163282308Y-101089973D01*
X163212605Y-101094793D01*
X163151361Y-101061163D01*
X163122207Y-101014643D01*
X163091402Y-100926606D01*
X162954926Y-100643211D01*
X162787577Y-100376877D01*
X162591461Y-100130956D01*
X162369044Y-99908539D01*
X162123123Y-99712423D01*
X161856789Y-99545074D01*
X161856786Y-99545072D01*
X161573395Y-99408598D01*
X161276501Y-99304711D01*
X161276499Y-99304710D01*
X160969843Y-99234718D01*
X160969827Y-99234716D01*
X160657277Y-99199500D01*
X160657273Y-99199500D01*
X160342727Y-99199500D01*
X160342722Y-99199500D01*
X160030172Y-99234716D01*
X160030156Y-99234718D01*
X159723500Y-99304710D01*
X159723498Y-99304711D01*
X159426604Y-99408598D01*
X159143213Y-99545072D01*
X158876878Y-99712422D01*
X158630956Y-99908538D01*
X158408538Y-100130956D01*
X158212422Y-100376878D01*
X158045072Y-100643213D01*
X157908598Y-100926604D01*
X157804711Y-101223498D01*
X157804710Y-101223500D01*
X157734718Y-101530156D01*
X157734716Y-101530172D01*
X157699500Y-101842722D01*
X157699500Y-102157277D01*
X157734716Y-102469827D01*
X157734718Y-102469843D01*
X157804710Y-102776499D01*
X157804711Y-102776501D01*
X157908598Y-103073395D01*
X158045072Y-103356786D01*
X158045074Y-103356789D01*
X158212423Y-103623123D01*
X158408539Y-103869044D01*
X158630956Y-104091461D01*
X158876877Y-104287577D01*
X159143211Y-104454926D01*
X159426606Y-104591402D01*
X159514693Y-104622224D01*
X159571468Y-104662945D01*
X159597216Y-104727898D01*
X159583760Y-104796460D01*
X159547248Y-104839127D01*
X159313006Y-105011559D01*
X159310913Y-105013067D01*
X158998340Y-105233281D01*
X158996215Y-105234745D01*
X158679165Y-105448385D01*
X158677011Y-105449804D01*
X158355583Y-105656803D01*
X158353400Y-105658177D01*
X158027736Y-105858443D01*
X158025524Y-105859772D01*
X157695737Y-106053237D01*
X157693499Y-106054519D01*
X157359799Y-106241058D01*
X157357534Y-106242293D01*
X157020004Y-106421862D01*
X157017714Y-106423050D01*
X156676505Y-106595565D01*
X156674190Y-106596705D01*
X156329524Y-106762056D01*
X156327187Y-106763148D01*
X155979057Y-106921339D01*
X155976698Y-106922381D01*
X155625468Y-107073246D01*
X155623086Y-107074240D01*
X155268730Y-107217790D01*
X155266329Y-107218734D01*
X154909052Y-107354885D01*
X154906633Y-107355778D01*
X154546612Y-107484465D01*
X154544173Y-107485308D01*
X154181571Y-107606469D01*
X154179116Y-107607261D01*
X153814071Y-107720854D01*
X153811599Y-107721595D01*
X153444239Y-107827576D01*
X153441754Y-107828265D01*
X153072327Y-107926567D01*
X153069827Y-107927205D01*
X152698356Y-108017820D01*
X152695843Y-108018405D01*
X152322633Y-108101256D01*
X152320109Y-108101789D01*
X151945211Y-108176868D01*
X151942676Y-108177348D01*
X151566321Y-108244606D01*
X151563778Y-108245033D01*
X151186137Y-108304444D01*
X151183584Y-108304819D01*
X150804719Y-108356369D01*
X150802159Y-108356690D01*
X150422354Y-108400342D01*
X150419788Y-108400610D01*
X150039116Y-108436354D01*
X150036545Y-108436568D01*
X149655265Y-108464381D01*
X149652691Y-108464542D01*
X149270913Y-108484418D01*
X149268335Y-108484526D01*
X148886137Y-108496457D01*
X148883558Y-108496510D01*
X148501290Y-108500487D01*
X148498710Y-108500487D01*
X148116441Y-108496510D01*
X148113862Y-108496457D01*
X147731664Y-108484526D01*
X147729086Y-108484418D01*
X147347308Y-108464542D01*
X147344734Y-108464381D01*
X146963454Y-108436568D01*
X146960883Y-108436354D01*
X146580211Y-108400610D01*
X146577645Y-108400342D01*
X146197840Y-108356690D01*
X146195280Y-108356369D01*
X145816415Y-108304819D01*
X145813862Y-108304444D01*
X145436221Y-108245033D01*
X145433678Y-108244606D01*
X145057323Y-108177348D01*
X145054788Y-108176868D01*
X144679890Y-108101789D01*
X144677366Y-108101256D01*
X144304156Y-108018405D01*
X144301643Y-108017820D01*
X143930172Y-107927205D01*
X143927672Y-107926567D01*
X143558245Y-107828265D01*
X143555760Y-107827576D01*
X143188400Y-107721595D01*
X143185942Y-107720858D01*
X143114083Y-107698497D01*
X142820883Y-107607261D01*
X142818428Y-107606469D01*
X142455826Y-107485308D01*
X142453387Y-107484465D01*
X142093366Y-107355778D01*
X142090947Y-107354885D01*
X141733670Y-107218734D01*
X141731269Y-107217790D01*
X141376913Y-107074240D01*
X141374567Y-107073261D01*
X141023301Y-106922381D01*
X141020942Y-106921339D01*
X140672812Y-106763148D01*
X140670475Y-106762056D01*
X140325809Y-106596705D01*
X140323494Y-106595565D01*
X139982285Y-106423050D01*
X139979995Y-106421862D01*
X139642465Y-106242293D01*
X139640225Y-106241071D01*
X139306500Y-106054519D01*
X139304262Y-106053237D01*
X138974475Y-105859772D01*
X138972263Y-105858443D01*
X138646599Y-105658177D01*
X138644416Y-105656803D01*
X138322988Y-105449804D01*
X138320834Y-105448385D01*
X138003784Y-105234745D01*
X138001659Y-105233281D01*
X137964897Y-105207381D01*
X137689053Y-105013043D01*
X137687028Y-105011584D01*
X137452749Y-104839126D01*
X137410430Y-104783532D01*
X137404886Y-104713883D01*
X137437877Y-104652292D01*
X137485304Y-104622225D01*
X137548582Y-104600083D01*
X137573392Y-104591403D01*
X137573392Y-104591402D01*
X137573394Y-104591402D01*
X137856789Y-104454926D01*
X138123123Y-104287577D01*
X138369044Y-104091461D01*
X138591461Y-103869044D01*
X138787577Y-103623123D01*
X138954926Y-103356789D01*
X139091402Y-103073394D01*
X139195289Y-102776500D01*
X139265282Y-102469840D01*
X139300500Y-102157273D01*
X139300500Y-101842727D01*
X139265282Y-101530160D01*
X139195289Y-101223500D01*
X139091402Y-100926606D01*
X138954926Y-100643211D01*
X138787577Y-100376877D01*
X138591461Y-100130956D01*
X138369044Y-99908539D01*
X138123123Y-99712423D01*
X137856789Y-99545074D01*
X137856786Y-99545072D01*
X137573395Y-99408598D01*
X137276501Y-99304711D01*
X137276499Y-99304710D01*
X136969843Y-99234718D01*
X136969827Y-99234716D01*
X136657277Y-99199500D01*
X136657273Y-99199500D01*
X136342727Y-99199500D01*
X136342722Y-99199500D01*
X136030172Y-99234716D01*
X136030156Y-99234718D01*
X135723500Y-99304710D01*
X135723498Y-99304711D01*
X135426604Y-99408598D01*
X135143213Y-99545072D01*
X134876878Y-99712422D01*
X134630956Y-99908538D01*
X134408538Y-100130956D01*
X134212422Y-100376878D01*
X134045072Y-100643213D01*
X133908597Y-100926606D01*
X133908594Y-100926613D01*
X133877791Y-101014644D01*
X133871861Y-101022911D01*
X133869722Y-101032859D01*
X133851840Y-101050824D01*
X133837069Y-101071420D01*
X133827610Y-101075169D01*
X133820434Y-101082380D01*
X133795680Y-101087826D01*
X133772117Y-101097167D01*
X133762133Y-101095207D01*
X133752196Y-101097394D01*
X133728427Y-101088592D01*
X133703555Y-101083711D01*
X133694469Y-101076017D01*
X133686674Y-101073131D01*
X133661659Y-101048234D01*
X133601705Y-100968538D01*
X133600200Y-100966494D01*
X133376697Y-100656161D01*
X133375347Y-100654246D01*
X133158298Y-100339257D01*
X133156913Y-100337200D01*
X132946567Y-100017922D01*
X132945170Y-100015753D01*
X132877691Y-99908538D01*
X132741471Y-99692101D01*
X132740189Y-99690015D01*
X132543275Y-99362209D01*
X132542025Y-99360079D01*
X132351928Y-99028170D01*
X132350754Y-99026069D01*
X132167666Y-98690390D01*
X132166454Y-98688113D01*
X131990398Y-98348715D01*
X131989234Y-98346413D01*
X131820277Y-98003430D01*
X131819180Y-98001145D01*
X131657345Y-97654609D01*
X131656358Y-97652435D01*
X131501775Y-97302628D01*
X131500773Y-97300295D01*
X131467338Y-97220166D01*
X131353527Y-96947413D01*
X131352595Y-96945112D01*
X131212718Y-96589228D01*
X131211815Y-96586859D01*
X131207808Y-96576005D01*
X131079359Y-96228109D01*
X131078523Y-96225770D01*
X130953571Y-95864376D01*
X130952790Y-95862038D01*
X130835373Y-95498090D01*
X130834618Y-95495664D01*
X130830882Y-95483202D01*
X130784943Y-95329972D01*
X130784547Y-95260106D01*
X130821988Y-95201114D01*
X130885378Y-95171729D01*
X130954591Y-95181280D01*
X130960016Y-95183880D01*
X131053588Y-95231557D01*
X131255757Y-95297246D01*
X131465713Y-95330500D01*
X131465714Y-95330500D01*
X131678286Y-95330500D01*
X131678287Y-95330500D01*
X131888243Y-95297246D01*
X132090412Y-95231557D01*
X132214294Y-95168435D01*
X132282962Y-95155540D01*
X132347702Y-95181816D01*
X132358269Y-95191240D01*
X133165489Y-95998460D01*
X133206007Y-96021853D01*
X133234008Y-96038020D01*
X133234012Y-96038022D01*
X133310438Y-96058500D01*
X133310440Y-96058500D01*
X138215560Y-96058500D01*
X138215562Y-96058500D01*
X138291989Y-96038021D01*
X138360511Y-95998460D01*
X138416460Y-95942511D01*
X141204430Y-93154539D01*
X141265751Y-93121056D01*
X141335443Y-93126040D01*
X141348405Y-93131738D01*
X141400356Y-93158209D01*
X141400363Y-93158212D01*
X141440448Y-93171236D01*
X141572591Y-93214171D01*
X141655429Y-93227291D01*
X141751449Y-93242500D01*
X141751454Y-93242500D01*
X141932551Y-93242500D01*
X142019259Y-93228765D01*
X142111409Y-93214171D01*
X142283639Y-93158211D01*
X142444994Y-93075996D01*
X142579730Y-92978105D01*
X142591493Y-92969559D01*
X142591493Y-92969558D01*
X142591501Y-92969553D01*
X142695402Y-92865651D01*
X142756721Y-92832169D01*
X142826413Y-92837153D01*
X142870761Y-92865654D01*
X143268036Y-93262929D01*
X143301521Y-93324252D01*
X143303713Y-93363211D01*
X143296500Y-93433813D01*
X143296500Y-93967181D01*
X143306563Y-94065683D01*
X143359450Y-94225284D01*
X143359455Y-94225295D01*
X143447716Y-94368387D01*
X143447719Y-94368391D01*
X143479647Y-94400319D01*
X143513132Y-94461642D01*
X143508148Y-94531334D01*
X143479647Y-94575681D01*
X143447719Y-94607608D01*
X143447716Y-94607612D01*
X143359455Y-94750704D01*
X143359450Y-94750715D01*
X143335355Y-94823429D01*
X143306564Y-94910315D01*
X143306564Y-94910316D01*
X143306563Y-94910316D01*
X143296500Y-95008818D01*
X143296500Y-95542181D01*
X143306563Y-95640683D01*
X143359450Y-95800284D01*
X143359455Y-95800295D01*
X143447716Y-95943387D01*
X143447719Y-95943391D01*
X143566608Y-96062280D01*
X143566612Y-96062283D01*
X143709704Y-96150544D01*
X143709707Y-96150545D01*
X143709713Y-96150549D01*
X143869315Y-96203436D01*
X143967826Y-96213500D01*
X143967831Y-96213500D01*
X144576169Y-96213500D01*
X144576174Y-96213500D01*
X144674685Y-96203436D01*
X144834287Y-96150549D01*
X144977391Y-96062281D01*
X145017820Y-96021851D01*
X145079141Y-95988367D01*
X145148832Y-95993351D01*
X145204766Y-96035221D01*
X145229184Y-96100686D01*
X145229500Y-96109533D01*
X145229500Y-96467169D01*
X145229501Y-96467191D01*
X145232335Y-96503205D01*
X145277129Y-96657388D01*
X145277131Y-96657393D01*
X145358863Y-96795595D01*
X145358869Y-96795603D01*
X145472396Y-96909130D01*
X145472400Y-96909133D01*
X145472402Y-96909135D01*
X145610607Y-96990869D01*
X145632898Y-96997345D01*
X145764791Y-97035664D01*
X145764794Y-97035664D01*
X145764796Y-97035665D01*
X145800819Y-97038500D01*
X146299180Y-97038499D01*
X146335204Y-97035665D01*
X146489393Y-96990869D01*
X146627598Y-96909135D01*
X146741135Y-96795598D01*
X146822869Y-96657393D01*
X146822870Y-96657386D01*
X146825969Y-96650230D01*
X146827263Y-96650790D01*
X146860328Y-96599018D01*
X146923801Y-96569813D01*
X146941797Y-96568500D01*
X147878167Y-96568500D01*
X147945206Y-96588185D01*
X147965848Y-96604819D01*
X148307751Y-96946722D01*
X148341236Y-97008045D01*
X148339845Y-97066496D01*
X148333727Y-97089327D01*
X148333725Y-97089339D01*
X148316500Y-97220166D01*
X148316500Y-97851833D01*
X148333724Y-97982658D01*
X148367800Y-98109829D01*
X148418302Y-98231750D01*
X148418303Y-98231751D01*
X148484120Y-98345749D01*
X148484132Y-98345767D01*
X148564455Y-98450444D01*
X148564459Y-98450449D01*
X148657551Y-98543541D01*
X148657555Y-98543544D01*
X148762232Y-98623867D01*
X148762236Y-98623869D01*
X148762243Y-98623875D01*
X148762250Y-98623879D01*
X148876248Y-98689696D01*
X148876249Y-98689697D01*
X148876252Y-98689698D01*
X148876257Y-98689701D01*
X148998171Y-98740200D01*
X149125338Y-98774275D01*
X149256174Y-98791500D01*
X149256181Y-98791500D01*
X149822000Y-98791500D01*
X149893940Y-98786355D01*
X150031992Y-98745819D01*
X150153032Y-98668031D01*
X150247254Y-98559294D01*
X150307024Y-98428416D01*
X150327500Y-98286000D01*
X150327500Y-96786000D01*
X150322355Y-96714060D01*
X150281819Y-96576008D01*
X150235031Y-96503204D01*
X150204032Y-96454969D01*
X150204028Y-96454965D01*
X150095299Y-96360750D01*
X150095297Y-96360748D01*
X150095294Y-96360746D01*
X150095290Y-96360744D01*
X149964419Y-96300976D01*
X149964414Y-96300975D01*
X149822000Y-96280500D01*
X149256174Y-96280500D01*
X149256166Y-96280500D01*
X149125341Y-96297724D01*
X148998170Y-96331800D01*
X148876249Y-96382302D01*
X148876248Y-96382303D01*
X148779251Y-96438305D01*
X148711351Y-96454778D01*
X148645324Y-96431926D01*
X148629570Y-96418599D01*
X148238511Y-96027540D01*
X148228660Y-96021853D01*
X148222851Y-96018499D01*
X148222848Y-96018497D01*
X148169994Y-95987981D01*
X148169991Y-95987979D01*
X148131775Y-95977739D01*
X148093562Y-95967500D01*
X148093560Y-95967500D01*
X146941797Y-95967500D01*
X146874758Y-95947815D01*
X146832702Y-95902442D01*
X146826410Y-95890797D01*
X146822869Y-95878607D01*
X146787646Y-95819048D01*
X146786508Y-95816942D01*
X146779718Y-95785048D01*
X146771688Y-95753398D01*
X146772437Y-95750846D01*
X146771960Y-95748604D01*
X146777045Y-95735151D01*
X146788869Y-95694882D01*
X146822869Y-95637393D01*
X146840706Y-95576000D01*
X146867664Y-95483208D01*
X146867665Y-95483202D01*
X146870499Y-95447188D01*
X146870500Y-95447181D01*
X146870499Y-95048820D01*
X146867665Y-95012796D01*
X146822869Y-94858607D01*
X146741135Y-94720402D01*
X146741133Y-94720400D01*
X146741130Y-94720396D01*
X146634773Y-94614039D01*
X146601288Y-94552716D01*
X146606272Y-94483024D01*
X146648144Y-94427091D01*
X146657339Y-94420831D01*
X146743044Y-94367968D01*
X146862968Y-94248044D01*
X146944435Y-94115965D01*
X146996381Y-94069243D01*
X147065344Y-94058022D01*
X147129426Y-94085865D01*
X147167903Y-94142748D01*
X147183786Y-94191633D01*
X147183788Y-94191639D01*
X147227479Y-94277385D01*
X147258089Y-94337461D01*
X147266006Y-94352997D01*
X147372441Y-94499494D01*
X147372445Y-94499499D01*
X147500500Y-94627554D01*
X147500505Y-94627558D01*
X147583444Y-94687816D01*
X147647006Y-94733996D01*
X147752484Y-94787740D01*
X147808360Y-94816211D01*
X147808363Y-94816212D01*
X147864720Y-94834523D01*
X147980591Y-94872171D01*
X148063429Y-94885291D01*
X148159449Y-94900500D01*
X148159454Y-94900500D01*
X148340551Y-94900500D01*
X148519409Y-94872171D01*
X148570182Y-94855674D01*
X148663283Y-94825423D01*
X148678495Y-94824989D01*
X148692755Y-94819671D01*
X148712710Y-94824012D01*
X148733124Y-94823429D01*
X148747210Y-94831517D01*
X148761028Y-94834523D01*
X148789282Y-94855674D01*
X148925179Y-94991571D01*
X148925189Y-94991582D01*
X148929519Y-94995912D01*
X148929520Y-94995913D01*
X149004087Y-95070480D01*
X149039610Y-95090989D01*
X149095413Y-95123207D01*
X149197273Y-95150501D01*
X149197275Y-95150501D01*
X149310323Y-95150501D01*
X149310339Y-95150500D01*
X156332725Y-95150500D01*
X156332727Y-95150500D01*
X156434588Y-95123207D01*
X156525913Y-95070480D01*
X159165819Y-92430572D01*
X159227142Y-92397088D01*
X159296834Y-92402072D01*
X159352767Y-92443944D01*
X159377184Y-92509408D01*
X159377500Y-92518254D01*
X159377500Y-92546551D01*
X159405829Y-92725410D01*
X159461787Y-92897636D01*
X159461788Y-92897639D01*
X159513687Y-92999494D01*
X159532443Y-93036305D01*
X159544006Y-93058997D01*
X159650441Y-93205494D01*
X159650445Y-93205499D01*
X159778500Y-93333554D01*
X159778505Y-93333558D01*
X159897003Y-93419651D01*
X159925006Y-93439996D01*
X160023479Y-93490171D01*
X160086360Y-93522211D01*
X160086363Y-93522212D01*
X160172476Y-93550191D01*
X160258591Y-93578171D01*
X160341429Y-93591291D01*
X160437449Y-93606500D01*
X160437454Y-93606500D01*
X160618551Y-93606500D01*
X160705259Y-93592765D01*
X160797409Y-93578171D01*
X160969639Y-93522211D01*
X161130994Y-93439996D01*
X161277501Y-93333553D01*
X161405553Y-93205501D01*
X161511996Y-93058994D01*
X161594211Y-92897639D01*
X161650171Y-92725409D01*
X161666945Y-92619500D01*
X161678500Y-92546551D01*
X161678500Y-92365448D01*
X161650171Y-92186590D01*
X161630704Y-92126677D01*
X161628709Y-92056836D01*
X161664789Y-91997003D01*
X161727490Y-91966175D01*
X161770809Y-91968604D01*
X161771201Y-91966460D01*
X161777429Y-91967597D01*
X161777431Y-91967598D01*
X161814306Y-91970500D01*
X161814314Y-91970500D01*
X163195686Y-91970500D01*
X163195694Y-91970500D01*
X163232569Y-91967598D01*
X163232571Y-91967597D01*
X163232573Y-91967597D01*
X163274191Y-91955505D01*
X163390398Y-91921744D01*
X163531865Y-91838081D01*
X163648081Y-91721865D01*
X163731744Y-91580398D01*
X163777598Y-91422569D01*
X163780500Y-91385694D01*
X163780500Y-90954306D01*
X163777598Y-90917431D01*
X163770033Y-90891393D01*
X163731745Y-90759606D01*
X163731744Y-90759602D01*
X163730787Y-90757983D01*
X163716084Y-90733122D01*
X163698900Y-90665399D01*
X163716084Y-90606878D01*
X163731742Y-90580401D01*
X163731744Y-90580398D01*
X163777598Y-90422569D01*
X163780500Y-90385694D01*
X163780500Y-89954306D01*
X163777598Y-89917431D01*
X163773550Y-89903499D01*
X163731745Y-89759606D01*
X163731744Y-89759602D01*
X163731742Y-89759598D01*
X163716084Y-89733122D01*
X163698900Y-89665399D01*
X163716084Y-89606878D01*
X163725939Y-89590213D01*
X163731744Y-89580398D01*
X163765505Y-89464191D01*
X163777597Y-89422573D01*
X163777598Y-89422567D01*
X163777925Y-89418412D01*
X163780500Y-89385694D01*
X163780500Y-88954306D01*
X163777598Y-88917431D01*
X163768902Y-88887501D01*
X163731745Y-88759606D01*
X163731744Y-88759602D01*
X163730232Y-88757045D01*
X163716084Y-88733122D01*
X163698900Y-88665399D01*
X163716084Y-88606878D01*
X163731742Y-88580401D01*
X163731744Y-88580398D01*
X163771094Y-88444956D01*
X163777597Y-88422573D01*
X163777598Y-88422567D01*
X163780499Y-88385701D01*
X163780500Y-88385694D01*
X163780500Y-87954306D01*
X163780500Y-87954181D01*
X163800185Y-87887142D01*
X163852989Y-87841387D01*
X163922147Y-87831443D01*
X163969594Y-87848641D01*
X164060666Y-87904814D01*
X164227203Y-87959999D01*
X164329991Y-87970500D01*
X165730008Y-87970499D01*
X165832797Y-87959999D01*
X165999334Y-87904814D01*
X166148656Y-87812712D01*
X166272712Y-87688656D01*
X166364814Y-87539334D01*
X166419999Y-87372797D01*
X166430500Y-87270009D01*
X166430499Y-86580346D01*
X166450183Y-86513308D01*
X166502987Y-86467553D01*
X166572146Y-86457609D01*
X166635702Y-86486634D01*
G37*
%TD.AperFunction*%
%TA.AperFunction,Conductor*%
G36*
X148883582Y-71503489D02*
G01*
X148886114Y-71503541D01*
X149268403Y-71515475D01*
X149270842Y-71515578D01*
X149652715Y-71535458D01*
X149655241Y-71535616D01*
X150036594Y-71563435D01*
X150039069Y-71563641D01*
X150419864Y-71599397D01*
X150422277Y-71599649D01*
X150802196Y-71643313D01*
X150804682Y-71643625D01*
X151183618Y-71695185D01*
X151186102Y-71695549D01*
X151563778Y-71754966D01*
X151566321Y-71755393D01*
X151942726Y-71822660D01*
X151945162Y-71823121D01*
X152320109Y-71898210D01*
X152322628Y-71898742D01*
X152695890Y-71981604D01*
X152698310Y-71982168D01*
X153069845Y-72072798D01*
X153072308Y-72073427D01*
X153423535Y-72166886D01*
X153441754Y-72171734D01*
X153444239Y-72172423D01*
X153571569Y-72209156D01*
X153811649Y-72278419D01*
X153813996Y-72279122D01*
X154179116Y-72392738D01*
X154181571Y-72393530D01*
X154544230Y-72514710D01*
X154546557Y-72515515D01*
X154867718Y-72630311D01*
X154906633Y-72644221D01*
X154909052Y-72645114D01*
X155266359Y-72781277D01*
X155268699Y-72782197D01*
X155623135Y-72925779D01*
X155625384Y-72926718D01*
X155976742Y-73077637D01*
X155979057Y-73078660D01*
X156327187Y-73236851D01*
X156329525Y-73237943D01*
X156674220Y-73403308D01*
X156676477Y-73404420D01*
X157017757Y-73576971D01*
X157019962Y-73578115D01*
X157357534Y-73757706D01*
X157359741Y-73758909D01*
X157693520Y-73945492D01*
X157695737Y-73946762D01*
X158025524Y-74140227D01*
X158027736Y-74141556D01*
X158353427Y-74341839D01*
X158355556Y-74343179D01*
X158677033Y-74550209D01*
X158679165Y-74551614D01*
X158996215Y-74765254D01*
X158998325Y-74766708D01*
X159310964Y-74986968D01*
X159312953Y-74988402D01*
X159463899Y-75099517D01*
X159547248Y-75160872D01*
X159589568Y-75216467D01*
X159595112Y-75286117D01*
X159562121Y-75347707D01*
X159514693Y-75377774D01*
X159426613Y-75408594D01*
X159426606Y-75408597D01*
X159143213Y-75545072D01*
X158876878Y-75712422D01*
X158630956Y-75908538D01*
X158408538Y-76130956D01*
X158212422Y-76376878D01*
X158045072Y-76643213D01*
X157908598Y-76926604D01*
X157804711Y-77223498D01*
X157804710Y-77223500D01*
X157734718Y-77530156D01*
X157734716Y-77530172D01*
X157699500Y-77842722D01*
X157699500Y-78157277D01*
X157734716Y-78469827D01*
X157734718Y-78469843D01*
X157804710Y-78776499D01*
X157804711Y-78776501D01*
X157908598Y-79073395D01*
X158045072Y-79356786D01*
X158045074Y-79356789D01*
X158212423Y-79623123D01*
X158408539Y-79869044D01*
X158630956Y-80091461D01*
X158876877Y-80287577D01*
X159143211Y-80454926D01*
X159426606Y-80591402D01*
X159723500Y-80695289D01*
X160030160Y-80765282D01*
X160342723Y-80800499D01*
X160342724Y-80800500D01*
X160342727Y-80800500D01*
X160657276Y-80800500D01*
X160657276Y-80800499D01*
X160969840Y-80765282D01*
X161276500Y-80695289D01*
X161573394Y-80591402D01*
X161856789Y-80454926D01*
X162123123Y-80287577D01*
X162369044Y-80091461D01*
X162591461Y-79869044D01*
X162787577Y-79623123D01*
X162954926Y-79356789D01*
X163091402Y-79073394D01*
X163122208Y-78985354D01*
X163128137Y-78977087D01*
X163130277Y-78967140D01*
X163148155Y-78949177D01*
X163162928Y-78928580D01*
X163172387Y-78924829D01*
X163179565Y-78917619D01*
X163204317Y-78912172D01*
X163227881Y-78902832D01*
X163237865Y-78904791D01*
X163247803Y-78902605D01*
X163271573Y-78911407D01*
X163296442Y-78916288D01*
X163305526Y-78923980D01*
X163313325Y-78926868D01*
X163338340Y-78951765D01*
X163398294Y-79031461D01*
X163399810Y-79033521D01*
X163623288Y-79343818D01*
X163624665Y-79345772D01*
X163841686Y-79660721D01*
X163843086Y-79662799D01*
X164053432Y-79982077D01*
X164054829Y-79984246D01*
X164258494Y-80307843D01*
X164259845Y-80310041D01*
X164456708Y-80637763D01*
X164457991Y-80639949D01*
X164648053Y-80971797D01*
X164649276Y-80973986D01*
X164832333Y-81309609D01*
X164833545Y-81311886D01*
X165009601Y-81651284D01*
X165010765Y-81653586D01*
X165179722Y-81996569D01*
X165180838Y-81998895D01*
X165342634Y-82345347D01*
X165343673Y-82347634D01*
X165498208Y-82697334D01*
X165499226Y-82699704D01*
X165646453Y-83052541D01*
X165647422Y-83054933D01*
X165787265Y-83410730D01*
X165788184Y-83413140D01*
X165920624Y-83771846D01*
X165921492Y-83774276D01*
X166046419Y-84135598D01*
X166047237Y-84138045D01*
X166164615Y-84501873D01*
X166165381Y-84504336D01*
X166275175Y-84870560D01*
X166275890Y-84873038D01*
X166378045Y-85241481D01*
X166378708Y-85243974D01*
X166473161Y-85614403D01*
X166473773Y-85616909D01*
X166560514Y-85989282D01*
X166561073Y-85991801D01*
X166583070Y-86095999D01*
X166577657Y-86165659D01*
X166535443Y-86221334D01*
X166469830Y-86245348D01*
X166401649Y-86230077D01*
X166356205Y-86186709D01*
X166272712Y-86051344D01*
X166148656Y-85927288D01*
X166055888Y-85870069D01*
X165999336Y-85835187D01*
X165999331Y-85835185D01*
X165997862Y-85834698D01*
X165832797Y-85780001D01*
X165832795Y-85780000D01*
X165730010Y-85769500D01*
X164329998Y-85769500D01*
X164329981Y-85769501D01*
X164227203Y-85780000D01*
X164227200Y-85780001D01*
X164060668Y-85835185D01*
X164060663Y-85835187D01*
X163911342Y-85927289D01*
X163787289Y-86051342D01*
X163695187Y-86200663D01*
X163695186Y-86200666D01*
X163640001Y-86367203D01*
X163640001Y-86367204D01*
X163640000Y-86367204D01*
X163629500Y-86469983D01*
X163629500Y-87270001D01*
X163629501Y-87270017D01*
X163636028Y-87333903D01*
X163623258Y-87402596D01*
X163575378Y-87453481D01*
X163507588Y-87470401D01*
X163449550Y-87453238D01*
X163425600Y-87439074D01*
X163390398Y-87418256D01*
X163390396Y-87418255D01*
X163390394Y-87418254D01*
X163232573Y-87372402D01*
X163232567Y-87372401D01*
X163195701Y-87369500D01*
X163195694Y-87369500D01*
X161814306Y-87369500D01*
X161814298Y-87369500D01*
X161777432Y-87372401D01*
X161777426Y-87372402D01*
X161619606Y-87418254D01*
X161619603Y-87418255D01*
X161478137Y-87501917D01*
X161478129Y-87501923D01*
X161361923Y-87618129D01*
X161361917Y-87618137D01*
X161278255Y-87759603D01*
X161272303Y-87780093D01*
X161234697Y-87838980D01*
X161171225Y-87868187D01*
X161153226Y-87869500D01*
X157250078Y-87869500D01*
X157183039Y-87849815D01*
X157137284Y-87797011D01*
X157127605Y-87764898D01*
X157123738Y-87740486D01*
X157122171Y-87730591D01*
X157092963Y-87640698D01*
X157066212Y-87558363D01*
X157066211Y-87558360D01*
X157021393Y-87470401D01*
X156983996Y-87397006D01*
X156891728Y-87270009D01*
X156877558Y-87250505D01*
X156877554Y-87250500D01*
X156749499Y-87122445D01*
X156749494Y-87122441D01*
X156602997Y-87016006D01*
X156602996Y-87016005D01*
X156602994Y-87016004D01*
X156547052Y-86987500D01*
X156441639Y-86933788D01*
X156441636Y-86933787D01*
X156269410Y-86877829D01*
X156090551Y-86849500D01*
X156090546Y-86849500D01*
X155909454Y-86849500D01*
X155909449Y-86849500D01*
X155730589Y-86877829D01*
X155558363Y-86933787D01*
X155558360Y-86933788D01*
X155397002Y-87016006D01*
X155250505Y-87122441D01*
X155250500Y-87122445D01*
X155122445Y-87250500D01*
X155122441Y-87250505D01*
X155016006Y-87397002D01*
X154933788Y-87558360D01*
X154933787Y-87558363D01*
X154877829Y-87730589D01*
X154849500Y-87909448D01*
X154849500Y-88090551D01*
X154877829Y-88269410D01*
X154933787Y-88441636D01*
X154933788Y-88441639D01*
X154972384Y-88517386D01*
X155016003Y-88602993D01*
X155016006Y-88602997D01*
X155122441Y-88749494D01*
X155122445Y-88749499D01*
X155250500Y-88877554D01*
X155250505Y-88877558D01*
X155378287Y-88970396D01*
X155397006Y-88983996D01*
X155458940Y-89015553D01*
X155558360Y-89066211D01*
X155558363Y-89066212D01*
X155644476Y-89094191D01*
X155730591Y-89122171D01*
X155813429Y-89135291D01*
X155909449Y-89150500D01*
X155909454Y-89150500D01*
X156090551Y-89150500D01*
X156177259Y-89136765D01*
X156269409Y-89122171D01*
X156441639Y-89066211D01*
X156602994Y-88983996D01*
X156749501Y-88877553D01*
X156877553Y-88749501D01*
X156983996Y-88602994D01*
X156985189Y-88600653D01*
X157017009Y-88538205D01*
X157064983Y-88487409D01*
X157127493Y-88470500D01*
X158104674Y-88470500D01*
X158171713Y-88490185D01*
X158217468Y-88542989D01*
X158227412Y-88612147D01*
X158215158Y-88650796D01*
X158183790Y-88712356D01*
X158183787Y-88712363D01*
X158127829Y-88884589D01*
X158099500Y-89063448D01*
X158099500Y-89244551D01*
X158127829Y-89423410D01*
X158183787Y-89595636D01*
X158183788Y-89595639D01*
X158221678Y-89670000D01*
X158264983Y-89754991D01*
X158266006Y-89756997D01*
X158372441Y-89903494D01*
X158372445Y-89903499D01*
X158500500Y-90031554D01*
X158500505Y-90031558D01*
X158605019Y-90107491D01*
X158647006Y-90137996D01*
X158751359Y-90191167D01*
X158808360Y-90220211D01*
X158808363Y-90220212D01*
X158858445Y-90236484D01*
X158980591Y-90276171D01*
X159063429Y-90289291D01*
X159159449Y-90304500D01*
X159159454Y-90304500D01*
X159340551Y-90304500D01*
X159427259Y-90290765D01*
X159519409Y-90276171D01*
X159691639Y-90220211D01*
X159747050Y-90191977D01*
X159750380Y-90191351D01*
X159752964Y-90189158D01*
X159784470Y-90184949D01*
X159815716Y-90179081D01*
X159818857Y-90180355D01*
X159822218Y-90179907D01*
X159851002Y-90193401D01*
X159880457Y-90205356D01*
X159882410Y-90208126D01*
X159885480Y-90209566D01*
X159902401Y-90236484D01*
X159920715Y-90262462D01*
X159921395Y-90266699D01*
X159922665Y-90268719D01*
X159923442Y-90279447D01*
X159927338Y-90303703D01*
X159927262Y-90311208D01*
X159925500Y-90324599D01*
X159925500Y-90487302D01*
X159925494Y-90487984D01*
X159915483Y-90520856D01*
X159905815Y-90553782D01*
X159905237Y-90554498D01*
X159905139Y-90554823D01*
X159904623Y-90555261D01*
X159889181Y-90574424D01*
X156150426Y-94313181D01*
X156089103Y-94346666D01*
X156062745Y-94349500D01*
X149467254Y-94349500D01*
X149400215Y-94329815D01*
X149379573Y-94313181D01*
X149355674Y-94289282D01*
X149322189Y-94227959D01*
X149325424Y-94163283D01*
X149333206Y-94139334D01*
X149372171Y-94019409D01*
X149379554Y-93972796D01*
X149400500Y-93840551D01*
X149400500Y-93659448D01*
X149372171Y-93480589D01*
X149338644Y-93377405D01*
X149331526Y-93355499D01*
X149329532Y-93285659D01*
X149365612Y-93225826D01*
X149376560Y-93216873D01*
X149499501Y-93127553D01*
X149627553Y-92999501D01*
X149733996Y-92852994D01*
X149816211Y-92691639D01*
X149872171Y-92519409D01*
X149886765Y-92427259D01*
X149900500Y-92340551D01*
X149900500Y-92277448D01*
X151639391Y-92277448D01*
X151639391Y-92458551D01*
X151667720Y-92637410D01*
X151723678Y-92809636D01*
X151723679Y-92809639D01*
X151776710Y-92913716D01*
X151803963Y-92967203D01*
X151805897Y-92970997D01*
X151912332Y-93117494D01*
X151912336Y-93117499D01*
X152040391Y-93245554D01*
X152040396Y-93245558D01*
X152095591Y-93285659D01*
X152186897Y-93351996D01*
X152292375Y-93405740D01*
X152348251Y-93434211D01*
X152348254Y-93434212D01*
X152432511Y-93461588D01*
X152520482Y-93490171D01*
X152603320Y-93503291D01*
X152699340Y-93518500D01*
X152699345Y-93518500D01*
X152880442Y-93518500D01*
X152967150Y-93504765D01*
X153059300Y-93490171D01*
X153231530Y-93434211D01*
X153392885Y-93351996D01*
X153539392Y-93245553D01*
X153667444Y-93117501D01*
X153773887Y-92970994D01*
X153856102Y-92809639D01*
X153912062Y-92637409D01*
X153928497Y-92533644D01*
X153940391Y-92458551D01*
X153940391Y-92277448D01*
X153916510Y-92126677D01*
X153912062Y-92098591D01*
X153873722Y-91980591D01*
X153856103Y-91926363D01*
X153856102Y-91926360D01*
X153811118Y-91838076D01*
X153773887Y-91765006D01*
X153758331Y-91743595D01*
X153667449Y-91618505D01*
X153667445Y-91618500D01*
X153539390Y-91490445D01*
X153539385Y-91490441D01*
X153392888Y-91384006D01*
X153392887Y-91384005D01*
X153392885Y-91384004D01*
X153288353Y-91330742D01*
X153276205Y-91324552D01*
X153225409Y-91276577D01*
X153208500Y-91214067D01*
X153208500Y-89340160D01*
X153228185Y-89273121D01*
X153280989Y-89227366D01*
X153294167Y-89222234D01*
X153349639Y-89204211D01*
X153510994Y-89121996D01*
X153657501Y-89015553D01*
X153785553Y-88887501D01*
X153891996Y-88740994D01*
X153974211Y-88579639D01*
X154030171Y-88407409D01*
X154045912Y-88308022D01*
X154058500Y-88228551D01*
X154058500Y-88047448D01*
X154035908Y-87904814D01*
X154030171Y-87868591D01*
X153975354Y-87699878D01*
X153974212Y-87696363D01*
X153974211Y-87696360D01*
X153940398Y-87630000D01*
X153891996Y-87535006D01*
X153832765Y-87453481D01*
X153785558Y-87388505D01*
X153785554Y-87388500D01*
X153657499Y-87260445D01*
X153657494Y-87260441D01*
X153510997Y-87154006D01*
X153510996Y-87154005D01*
X153510994Y-87154004D01*
X153456367Y-87126170D01*
X153349639Y-87071788D01*
X153349636Y-87071787D01*
X153177410Y-87015829D01*
X152998551Y-86987500D01*
X152998546Y-86987500D01*
X152817454Y-86987500D01*
X152817449Y-86987500D01*
X152638589Y-87015829D01*
X152466363Y-87071787D01*
X152466360Y-87071788D01*
X152305002Y-87154006D01*
X152158505Y-87260441D01*
X152158500Y-87260445D01*
X152030445Y-87388500D01*
X152030441Y-87388505D01*
X151924006Y-87535002D01*
X151841788Y-87696360D01*
X151841787Y-87696363D01*
X151785829Y-87868589D01*
X151757500Y-88047448D01*
X151757500Y-88228551D01*
X151785829Y-88407410D01*
X151841787Y-88579636D01*
X151841788Y-88579639D01*
X151924006Y-88740997D01*
X152030441Y-88887494D01*
X152030445Y-88887499D01*
X152158500Y-89015554D01*
X152158505Y-89015558D01*
X152286287Y-89108396D01*
X152305006Y-89121996D01*
X152466361Y-89204211D01*
X152521819Y-89222230D01*
X152579492Y-89261664D01*
X152606691Y-89326022D01*
X152607500Y-89340160D01*
X152607500Y-91127463D01*
X152587815Y-91194502D01*
X152535011Y-91240257D01*
X152521818Y-91245394D01*
X152348254Y-91301787D01*
X152348251Y-91301788D01*
X152186893Y-91384006D01*
X152040396Y-91490441D01*
X152040391Y-91490445D01*
X151912336Y-91618500D01*
X151912332Y-91618505D01*
X151805897Y-91765002D01*
X151723679Y-91926360D01*
X151723678Y-91926363D01*
X151667720Y-92098589D01*
X151639391Y-92277448D01*
X149900500Y-92277448D01*
X149900500Y-92159448D01*
X149878507Y-92020598D01*
X149872171Y-91980591D01*
X149816211Y-91808361D01*
X149816206Y-91808351D01*
X149815526Y-91806708D01*
X149815452Y-91806026D01*
X149814706Y-91803728D01*
X149815188Y-91803571D01*
X149808058Y-91737238D01*
X149839334Y-91674759D01*
X149857196Y-91658942D01*
X149999501Y-91555553D01*
X150127553Y-91427501D01*
X150233996Y-91280994D01*
X150316211Y-91119639D01*
X150372171Y-90947409D01*
X150393757Y-90811121D01*
X150400500Y-90768551D01*
X150400500Y-90587448D01*
X150377441Y-90441867D01*
X150372171Y-90408591D01*
X150331998Y-90284949D01*
X150316212Y-90236363D01*
X150316211Y-90236360D01*
X150282398Y-90170000D01*
X150233996Y-90075006D01*
X150202429Y-90031558D01*
X150127558Y-89928505D01*
X150127554Y-89928500D01*
X149999499Y-89800445D01*
X149999494Y-89800441D01*
X149853994Y-89694729D01*
X149811328Y-89639399D01*
X149802879Y-89594411D01*
X149802879Y-88375537D01*
X149822564Y-88308498D01*
X149839198Y-88287856D01*
X149857886Y-88269168D01*
X149947085Y-88179969D01*
X150053528Y-88033462D01*
X150135743Y-87872107D01*
X150191703Y-87699877D01*
X150216029Y-87546290D01*
X150220032Y-87521019D01*
X150220032Y-87339916D01*
X150203551Y-87235865D01*
X150191703Y-87161059D01*
X150135743Y-86988829D01*
X150135743Y-86988828D01*
X150079185Y-86877829D01*
X150053528Y-86827474D01*
X149994784Y-86746619D01*
X149970102Y-86712646D01*
X149946622Y-86646840D01*
X149962448Y-86578786D01*
X150012554Y-86530091D01*
X150014036Y-86529322D01*
X150102994Y-86483996D01*
X150249501Y-86377553D01*
X150377553Y-86249501D01*
X150483996Y-86102994D01*
X150566211Y-85941639D01*
X150622171Y-85769409D01*
X150640738Y-85652182D01*
X150650500Y-85590551D01*
X150650500Y-85409448D01*
X150634019Y-85305397D01*
X150622171Y-85230591D01*
X150582484Y-85108444D01*
X150566212Y-85058363D01*
X150566211Y-85058360D01*
X150537740Y-85002484D01*
X150483996Y-84897006D01*
X150464782Y-84870560D01*
X150377558Y-84750505D01*
X150377554Y-84750500D01*
X150249499Y-84622445D01*
X150249494Y-84622441D01*
X150102997Y-84516006D01*
X150102996Y-84516005D01*
X150102994Y-84516004D01*
X150051300Y-84489664D01*
X149941639Y-84433788D01*
X149941636Y-84433787D01*
X149769410Y-84377829D01*
X149590551Y-84349500D01*
X149590546Y-84349500D01*
X149409454Y-84349500D01*
X149409449Y-84349500D01*
X149230589Y-84377829D01*
X149058363Y-84433787D01*
X149058360Y-84433788D01*
X148897002Y-84516006D01*
X148750505Y-84622441D01*
X148750500Y-84622445D01*
X148622445Y-84750500D01*
X148622441Y-84750505D01*
X148516006Y-84897002D01*
X148433788Y-85058360D01*
X148433787Y-85058363D01*
X148377829Y-85230589D01*
X148349500Y-85409448D01*
X148349500Y-85590551D01*
X148377829Y-85769410D01*
X148433787Y-85941636D01*
X148433791Y-85941644D01*
X148460261Y-85993595D01*
X148473157Y-86062264D01*
X148446880Y-86127004D01*
X148437457Y-86137570D01*
X147084688Y-87490341D01*
X147028740Y-87546288D01*
X147028734Y-87546296D01*
X146989181Y-87614805D01*
X146989178Y-87614810D01*
X146980166Y-87648443D01*
X146968699Y-87691239D01*
X146968699Y-90156632D01*
X146977415Y-90189158D01*
X146989178Y-90233061D01*
X146989180Y-90233064D01*
X147010162Y-90269406D01*
X147010164Y-90269409D01*
X147010167Y-90269413D01*
X147028739Y-90301581D01*
X147028740Y-90301582D01*
X147962371Y-91235213D01*
X147995856Y-91296536D01*
X147990872Y-91366228D01*
X147962371Y-91410575D01*
X147872445Y-91500500D01*
X147872441Y-91500505D01*
X147766006Y-91647002D01*
X147683788Y-91808360D01*
X147683787Y-91808363D01*
X147627829Y-91980589D01*
X147599500Y-92159448D01*
X147599500Y-92340551D01*
X147627829Y-92519410D01*
X147668472Y-92644498D01*
X147670467Y-92714340D01*
X147634386Y-92774172D01*
X147623427Y-92783134D01*
X147500500Y-92872445D01*
X147372447Y-93000498D01*
X147329948Y-93058994D01*
X147286797Y-93118386D01*
X147282465Y-93121726D01*
X147280193Y-93126703D01*
X147255096Y-93142831D01*
X147231469Y-93161051D01*
X147224795Y-93162304D01*
X147221415Y-93164477D01*
X147186480Y-93169500D01*
X147085681Y-93169500D01*
X147018642Y-93149815D01*
X146972887Y-93097011D01*
X146967975Y-93084504D01*
X146967188Y-93082128D01*
X146952003Y-93036303D01*
X146951999Y-93036297D01*
X146951998Y-93036294D01*
X146862970Y-92891959D01*
X146862967Y-92891955D01*
X146743044Y-92772032D01*
X146743040Y-92772029D01*
X146598705Y-92683001D01*
X146598699Y-92682998D01*
X146598697Y-92682997D01*
X146503168Y-92651342D01*
X146437709Y-92629651D01*
X146338346Y-92619500D01*
X145741662Y-92619500D01*
X145741644Y-92619501D01*
X145642292Y-92629650D01*
X145642289Y-92629651D01*
X145481305Y-92682996D01*
X145481294Y-92683001D01*
X145336959Y-92772029D01*
X145336955Y-92772032D01*
X145217032Y-92891955D01*
X145217030Y-92891958D01*
X145199632Y-92920163D01*
X145147683Y-92966885D01*
X145078720Y-92978105D01*
X145014639Y-92950259D01*
X145006415Y-92942743D01*
X144977391Y-92913719D01*
X144977387Y-92913716D01*
X144834295Y-92825455D01*
X144834289Y-92825452D01*
X144834287Y-92825451D01*
X144674685Y-92772564D01*
X144674683Y-92772563D01*
X144576181Y-92762500D01*
X144576174Y-92762500D01*
X143967826Y-92762500D01*
X143967823Y-92762500D01*
X143967801Y-92762501D01*
X143965238Y-92762763D01*
X143964685Y-92762660D01*
X143964670Y-92762661D01*
X143964669Y-92762657D01*
X143896548Y-92749982D01*
X143864977Y-92727084D01*
X143438819Y-92300926D01*
X143405334Y-92239603D01*
X143402500Y-92213245D01*
X143402500Y-91641275D01*
X143402500Y-91641273D01*
X143377049Y-91546287D01*
X143375207Y-91539412D01*
X143322480Y-91448087D01*
X141228913Y-89354520D01*
X141183250Y-89328156D01*
X141137589Y-89301793D01*
X141086657Y-89288146D01*
X141035727Y-89274500D01*
X135929727Y-89274500D01*
X135824273Y-89274500D01*
X135722410Y-89301793D01*
X135631087Y-89354520D01*
X135631084Y-89354522D01*
X134804582Y-90181023D01*
X134743259Y-90214508D01*
X134673567Y-90209524D01*
X134660607Y-90203827D01*
X134630417Y-90188445D01*
X134630414Y-90188444D01*
X134630412Y-90188443D01*
X134428243Y-90122754D01*
X134428241Y-90122753D01*
X134428240Y-90122753D01*
X134254180Y-90095185D01*
X134218287Y-90089500D01*
X134005713Y-90089500D01*
X133969820Y-90095185D01*
X133795760Y-90122753D01*
X133795757Y-90122754D01*
X133607912Y-90183789D01*
X133593585Y-90188444D01*
X133404179Y-90284951D01*
X133232213Y-90409890D01*
X133081890Y-90560213D01*
X132956949Y-90732182D01*
X132952484Y-90740946D01*
X132904509Y-90791742D01*
X132836688Y-90808536D01*
X132770553Y-90785998D01*
X132731516Y-90740946D01*
X132727050Y-90732182D01*
X132602109Y-90560213D01*
X132451786Y-90409890D01*
X132279820Y-90284951D01*
X132279115Y-90284591D01*
X132271054Y-90280485D01*
X132220259Y-90232512D01*
X132203463Y-90164692D01*
X132225999Y-90098556D01*
X132271054Y-90059515D01*
X132279816Y-90055051D01*
X132312157Y-90031554D01*
X132451786Y-89930109D01*
X132451788Y-89930106D01*
X132451792Y-89930104D01*
X132602104Y-89779792D01*
X132602106Y-89779788D01*
X132602109Y-89779786D01*
X132727048Y-89607820D01*
X132727047Y-89607820D01*
X132727051Y-89607816D01*
X132823557Y-89418412D01*
X132889246Y-89216243D01*
X132922500Y-89006287D01*
X132922500Y-88793713D01*
X132889246Y-88583757D01*
X132823557Y-88381588D01*
X132727051Y-88192184D01*
X132727049Y-88192181D01*
X132727048Y-88192179D01*
X132602109Y-88020213D01*
X132451786Y-87869890D01*
X132279820Y-87744951D01*
X132279115Y-87744591D01*
X132271054Y-87740485D01*
X132220259Y-87692512D01*
X132203463Y-87624692D01*
X132225999Y-87558556D01*
X132271054Y-87519515D01*
X132279816Y-87515051D01*
X132341272Y-87470401D01*
X132451786Y-87390109D01*
X132451788Y-87390106D01*
X132451792Y-87390104D01*
X132602104Y-87239792D01*
X132602106Y-87239788D01*
X132602109Y-87239786D01*
X132727048Y-87067820D01*
X132727047Y-87067820D01*
X132727051Y-87067816D01*
X132731514Y-87059054D01*
X132779488Y-87008259D01*
X132847308Y-86991463D01*
X132913444Y-87013999D01*
X132952486Y-87059056D01*
X132956951Y-87067820D01*
X133081890Y-87239786D01*
X133232213Y-87390109D01*
X133404179Y-87515048D01*
X133404181Y-87515049D01*
X133404184Y-87515051D01*
X133593588Y-87611557D01*
X133795757Y-87677246D01*
X134005713Y-87710500D01*
X134005714Y-87710500D01*
X134218286Y-87710500D01*
X134218287Y-87710500D01*
X134428243Y-87677246D01*
X134630412Y-87611557D01*
X134819816Y-87515051D01*
X134881272Y-87470401D01*
X134991786Y-87390109D01*
X134991788Y-87390106D01*
X134991792Y-87390104D01*
X135142104Y-87239792D01*
X135142106Y-87239788D01*
X135142109Y-87239786D01*
X135267048Y-87067820D01*
X135267047Y-87067820D01*
X135267051Y-87067816D01*
X135363557Y-86878412D01*
X135429246Y-86676243D01*
X135462500Y-86466287D01*
X135462500Y-86253713D01*
X135429246Y-86043757D01*
X135363557Y-85841588D01*
X135267051Y-85652184D01*
X135267049Y-85652181D01*
X135267048Y-85652179D01*
X135142109Y-85480213D01*
X134991786Y-85329890D01*
X134819820Y-85204951D01*
X134630414Y-85108444D01*
X134630413Y-85108443D01*
X134630412Y-85108443D01*
X134428243Y-85042754D01*
X134428241Y-85042753D01*
X134428240Y-85042753D01*
X134266957Y-85017208D01*
X134218287Y-85009500D01*
X134005713Y-85009500D01*
X133957042Y-85017208D01*
X133795760Y-85042753D01*
X133593585Y-85108444D01*
X133404179Y-85204951D01*
X133232213Y-85329890D01*
X133081890Y-85480213D01*
X132956949Y-85652182D01*
X132952484Y-85660946D01*
X132904509Y-85711742D01*
X132836688Y-85728536D01*
X132770553Y-85705998D01*
X132731516Y-85660946D01*
X132727050Y-85652182D01*
X132602109Y-85480213D01*
X132451786Y-85329890D01*
X132279820Y-85204951D01*
X132090414Y-85108444D01*
X132090413Y-85108443D01*
X132090412Y-85108443D01*
X131888243Y-85042754D01*
X131888241Y-85042753D01*
X131888240Y-85042753D01*
X131726957Y-85017208D01*
X131678287Y-85009500D01*
X131465713Y-85009500D01*
X131417042Y-85017208D01*
X131255760Y-85042753D01*
X131053585Y-85108444D01*
X130864178Y-85204951D01*
X130860760Y-85207435D01*
X130833516Y-85217151D01*
X130807390Y-85229564D01*
X130801009Y-85228744D01*
X130794950Y-85230906D01*
X130766778Y-85224350D01*
X130738089Y-85220668D01*
X130733163Y-85216528D01*
X130726898Y-85215071D01*
X130706740Y-85194323D01*
X130684599Y-85175717D01*
X130682693Y-85169573D01*
X130678210Y-85164959D01*
X130672468Y-85136605D01*
X130663902Y-85108983D01*
X130665055Y-85099994D01*
X130664344Y-85096479D01*
X130668393Y-85073987D01*
X130724128Y-84872971D01*
X130724804Y-84870626D01*
X130834619Y-84504331D01*
X130835364Y-84501935D01*
X130952799Y-84137933D01*
X130953561Y-84135652D01*
X131078534Y-83774198D01*
X131079348Y-83771920D01*
X131211841Y-83413069D01*
X131212705Y-83410804D01*
X131352609Y-83054853D01*
X131353513Y-83052620D01*
X131500803Y-82699633D01*
X131501759Y-82697406D01*
X131656374Y-82347527D01*
X131657328Y-82345426D01*
X131819198Y-81998817D01*
X131820256Y-81996611D01*
X131989234Y-81653584D01*
X131990398Y-81651284D01*
X132166473Y-81311848D01*
X132167645Y-81309648D01*
X132350777Y-80973888D01*
X132351905Y-80971869D01*
X132542049Y-80639878D01*
X132543250Y-80637832D01*
X132740216Y-80309940D01*
X132741445Y-80307940D01*
X132945191Y-79984212D01*
X132946545Y-79982110D01*
X133156955Y-79662735D01*
X133158268Y-79660786D01*
X133375378Y-79345708D01*
X133376664Y-79343883D01*
X133600234Y-79033458D01*
X133601667Y-79031511D01*
X133661661Y-78951762D01*
X133717690Y-78910025D01*
X133787394Y-78905205D01*
X133848638Y-78938835D01*
X133877792Y-78985355D01*
X133908598Y-79073395D01*
X134045072Y-79356786D01*
X134045074Y-79356789D01*
X134212423Y-79623123D01*
X134408539Y-79869044D01*
X134630956Y-80091461D01*
X134876877Y-80287577D01*
X135143211Y-80454926D01*
X135426606Y-80591402D01*
X135723500Y-80695289D01*
X136030160Y-80765282D01*
X136342723Y-80800499D01*
X136342724Y-80800500D01*
X136342727Y-80800500D01*
X136657276Y-80800500D01*
X136657276Y-80800499D01*
X136969840Y-80765282D01*
X137276500Y-80695289D01*
X137573394Y-80591402D01*
X137856789Y-80454926D01*
X138123123Y-80287577D01*
X138369044Y-80091461D01*
X138591461Y-79869044D01*
X138787577Y-79623123D01*
X138954926Y-79356789D01*
X139091402Y-79073394D01*
X139195289Y-78776500D01*
X139265282Y-78469840D01*
X139300500Y-78157273D01*
X139300500Y-77842727D01*
X139265282Y-77530160D01*
X139195289Y-77223500D01*
X139091402Y-76926606D01*
X138954926Y-76643211D01*
X138787577Y-76376877D01*
X138591461Y-76130956D01*
X138369044Y-75908539D01*
X138123123Y-75712423D01*
X137856789Y-75545074D01*
X137856786Y-75545072D01*
X137573395Y-75408598D01*
X137485307Y-75377775D01*
X137428530Y-75337053D01*
X137402783Y-75272100D01*
X137416239Y-75203539D01*
X137452751Y-75160872D01*
X137687092Y-74988368D01*
X137688990Y-74987000D01*
X138001718Y-74766676D01*
X138003722Y-74765296D01*
X138320899Y-74551570D01*
X138322922Y-74550238D01*
X138644486Y-74343151D01*
X138646528Y-74341866D01*
X138972288Y-74141540D01*
X138974450Y-74140241D01*
X139304283Y-73946749D01*
X139306438Y-73945515D01*
X139640298Y-73758887D01*
X139642407Y-73757737D01*
X139980077Y-73578094D01*
X139982203Y-73576991D01*
X140323559Y-73404401D01*
X140325741Y-73403327D01*
X140670511Y-73237925D01*
X140672777Y-73236866D01*
X141020986Y-73078640D01*
X141023221Y-73077653D01*
X141374649Y-72926703D01*
X141376830Y-72925793D01*
X141731333Y-72782183D01*
X141733607Y-72781289D01*
X142090971Y-72645104D01*
X142093342Y-72644229D01*
X142453471Y-72515504D01*
X142455739Y-72514720D01*
X142818456Y-72393520D01*
X142820854Y-72392747D01*
X143186030Y-72279114D01*
X143188323Y-72278426D01*
X143555760Y-72172423D01*
X143558222Y-72171740D01*
X143927715Y-72073420D01*
X143930132Y-72072804D01*
X144301710Y-71982163D01*
X144304088Y-71981609D01*
X144677390Y-71898737D01*
X144679865Y-71898215D01*
X145054854Y-71823118D01*
X145057255Y-71822663D01*
X145433694Y-71755390D01*
X145436206Y-71754968D01*
X145813911Y-71695547D01*
X145816367Y-71695186D01*
X146195329Y-71643623D01*
X146197791Y-71643315D01*
X146577732Y-71599647D01*
X146580125Y-71599397D01*
X146960938Y-71563640D01*
X146963397Y-71563435D01*
X147344764Y-71535616D01*
X147347278Y-71535458D01*
X147729161Y-71515577D01*
X147731592Y-71515475D01*
X148113887Y-71503541D01*
X148116415Y-71503489D01*
X148498750Y-71499513D01*
X148501250Y-71499513D01*
X148883582Y-71503489D01*
G37*
%TD.AperFunction*%
%TA.AperFunction,Conductor*%
G36*
X139307834Y-90084383D02*
G01*
X139338554Y-90091528D01*
X139341105Y-90094153D01*
X139344618Y-90095185D01*
X139365265Y-90119013D01*
X139387249Y-90141634D01*
X139387976Y-90145222D01*
X139390373Y-90147989D01*
X139394860Y-90179201D01*
X139401124Y-90210112D01*
X139399795Y-90213523D01*
X139400317Y-90217147D01*
X139387213Y-90245839D01*
X139375774Y-90275221D01*
X139372216Y-90278678D01*
X139371292Y-90280703D01*
X139350464Y-90299818D01*
X139250504Y-90372441D01*
X139122445Y-90500500D01*
X139122441Y-90500505D01*
X139016006Y-90647002D01*
X138933788Y-90808360D01*
X138933787Y-90808363D01*
X138877829Y-90980589D01*
X138849500Y-91159448D01*
X138849500Y-91340551D01*
X138877829Y-91519410D01*
X138933787Y-91691636D01*
X138933791Y-91691644D01*
X138960261Y-91743595D01*
X138973157Y-91812264D01*
X138946880Y-91877004D01*
X138937457Y-91887570D01*
X137181848Y-93643181D01*
X137120525Y-93676666D01*
X137094167Y-93679500D01*
X135586499Y-93679500D01*
X135519460Y-93659815D01*
X135473705Y-93607011D01*
X135462499Y-93555500D01*
X135462499Y-93082129D01*
X135462498Y-93082123D01*
X135462410Y-93081308D01*
X135456091Y-93022517D01*
X135454810Y-93019083D01*
X135405797Y-92887671D01*
X135405793Y-92887664D01*
X135319547Y-92772455D01*
X135319544Y-92772452D01*
X135204335Y-92686206D01*
X135204328Y-92686202D01*
X135072917Y-92637189D01*
X135016983Y-92595318D01*
X134992566Y-92529853D01*
X135007418Y-92461580D01*
X135028563Y-92433332D01*
X135142104Y-92319792D01*
X135171533Y-92279287D01*
X135235450Y-92191311D01*
X135267051Y-92147816D01*
X135363557Y-91958412D01*
X135429246Y-91756243D01*
X135462500Y-91546287D01*
X135462500Y-91333713D01*
X135429246Y-91123757D01*
X135363557Y-90921588D01*
X135363555Y-90921585D01*
X135363555Y-90921583D01*
X135348172Y-90891393D01*
X135335275Y-90822724D01*
X135361550Y-90757983D01*
X135370966Y-90747426D01*
X136006574Y-90111819D01*
X136067897Y-90078334D01*
X136094255Y-90075500D01*
X139277579Y-90075500D01*
X139307834Y-90084383D01*
G37*
%TD.AperFunction*%
%TA.AperFunction,Conductor*%
G36*
X147848477Y-87644389D02*
G01*
X147880783Y-87646700D01*
X147882986Y-87648349D01*
X147885719Y-87648663D01*
X147910785Y-87669159D01*
X147936717Y-87688571D01*
X147938330Y-87691681D01*
X147939809Y-87692891D01*
X147955381Y-87724564D01*
X148003319Y-87872104D01*
X148003320Y-87872107D01*
X148053455Y-87970500D01*
X148078785Y-88020213D01*
X148085538Y-88033465D01*
X148191973Y-88179962D01*
X148191977Y-88179967D01*
X148320032Y-88308022D01*
X148320037Y-88308026D01*
X148412959Y-88375537D01*
X148466538Y-88414464D01*
X148526382Y-88444956D01*
X148627892Y-88496679D01*
X148627895Y-88496680D01*
X148714008Y-88524659D01*
X148800123Y-88552639D01*
X148882961Y-88565759D01*
X148978981Y-88580968D01*
X149077879Y-88580968D01*
X149144918Y-88600653D01*
X149190673Y-88653457D01*
X149201879Y-88704968D01*
X149201879Y-89414874D01*
X149182194Y-89481913D01*
X149129390Y-89527668D01*
X149097277Y-89537347D01*
X148980589Y-89555828D01*
X148808363Y-89611787D01*
X148808360Y-89611788D01*
X148647002Y-89694006D01*
X148500505Y-89800441D01*
X148500500Y-89800445D01*
X148372445Y-89928500D01*
X148372441Y-89928505D01*
X148266006Y-90075002D01*
X148183788Y-90236360D01*
X148183787Y-90236363D01*
X148155500Y-90323425D01*
X148116063Y-90381100D01*
X148051704Y-90408299D01*
X147982858Y-90396384D01*
X147949888Y-90372788D01*
X147606018Y-90028918D01*
X147572533Y-89967595D01*
X147569699Y-89941237D01*
X147569699Y-87906634D01*
X147589384Y-87839595D01*
X147606012Y-87818958D01*
X147749772Y-87675198D01*
X147752183Y-87673882D01*
X147753604Y-87671526D01*
X147782667Y-87657236D01*
X147811091Y-87641716D01*
X147813835Y-87641912D01*
X147816305Y-87640698D01*
X147848477Y-87644389D01*
G37*
%TD.AperFunction*%
%TD*%
M02*
