%TF.GenerationSoftware,KiCad,Pcbnew,9.0.6+1*%
%TF.CreationDate,Date%
%TF.ProjectId,kibot-test-cicd,6b69626f-742d-4746-9573-742d63696364,0.1.0+ (Unreleased)*%
%TF.SameCoordinates,Original*%
%TF.FileFunction,Legend,Bot*%
%TF.FilePolarity,Positive*%
%FSLAX46Y46*%
G04 Gerber Fmt 4.6, Leading zero omitted, Abs format (unit mm)*
G04 Created by KiCad*
%MOMM*%
%LPD*%
G01*
G04 APERTURE LIST*
G04 Aperture macros list*
%AMRoundRect*
0 Rectangle with rounded corners*
0 $1 Rounding radius*
0 $2 $3 $4 $5 $6 $7 $8 $9 X,Y pos of 4 corners*
0 Add a 4 corners polygon primitive as box body*
4,1,4,$2,$3,$4,$5,$6,$7,$8,$9,$2,$3,0*
0 Add four circle primitives for the rounded corners*
1,1,$1+$1,$2,$3*
1,1,$1+$1,$4,$5*
1,1,$1+$1,$6,$7*
1,1,$1+$1,$8,$9*
0 Add four rect primitives between the rounded corners*
20,1,$1+$1,$2,$3,$4,$5,0*
20,1,$1+$1,$4,$5,$6,$7,0*
20,1,$1+$1,$6,$7,$8,$9,0*
20,1,$1+$1,$8,$9,$2,$3,0*%
G04 Aperture macros list end*
%ADD10C,0.150000*%
%ADD11C,0.120000*%
%ADD12C,3.300000*%
%ADD13RoundRect,0.050000X0.850000X0.850000X-0.850000X0.850000X-0.850000X-0.850000X0.850000X-0.850000X0*%
%ADD14C,1.800000*%
%ADD15RoundRect,0.175000X-0.750000X-0.175000X0.750000X-0.175000X0.750000X0.175000X-0.750000X0.175000X0*%
G04 APERTURE END LIST*
D10*
X149261904Y-92854819D02*
X149261904Y-93664342D01*
X149261904Y-93664342D02*
X149214285Y-93759580D01*
X149214285Y-93759580D02*
X149166666Y-93807200D01*
X149166666Y-93807200D02*
X149071428Y-93854819D01*
X149071428Y-93854819D02*
X148880952Y-93854819D01*
X148880952Y-93854819D02*
X148785714Y-93807200D01*
X148785714Y-93807200D02*
X148738095Y-93759580D01*
X148738095Y-93759580D02*
X148690476Y-93664342D01*
X148690476Y-93664342D02*
X148690476Y-92854819D01*
X147690476Y-93854819D02*
X148261904Y-93854819D01*
X147976190Y-93854819D02*
X147976190Y-92854819D01*
X147976190Y-92854819D02*
X148071428Y-92997676D01*
X148071428Y-92997676D02*
X148166666Y-93092914D01*
X148166666Y-93092914D02*
X148261904Y-93140533D01*
D11*
%TO.C,U1*%
X148500000Y-87440000D02*
X146550000Y-87440000D01*
X148500000Y-87440000D02*
X150450000Y-87440000D01*
X148500000Y-92560000D02*
X146550000Y-92560000D01*
X148500000Y-92560000D02*
X150450000Y-92560000D01*
X146040000Y-92795000D02*
X145560000Y-92795000D01*
X145800000Y-92465000D01*
X146040000Y-92795000D01*
G36*
X146040000Y-92795000D02*
G01*
X145560000Y-92795000D01*
X145800000Y-92465000D01*
X146040000Y-92795000D01*
G37*
%TD*%
%LPC*%
D12*
%TO.C,H2*%
X158750000Y-102870000D03*
%TD*%
%TO.C,H1*%
X137075000Y-78420149D03*
%TD*%
%TO.C,H3*%
X158750000Y-78486000D03*
%TD*%
%TO.C,H4*%
X137075000Y-102270149D03*
%TD*%
D13*
%TO.C,J1*%
X133355000Y-93980000D03*
D14*
X130815000Y-93980000D03*
X133355000Y-91440000D03*
X130815000Y-91440000D03*
X133355000Y-88900000D03*
X130815000Y-88900000D03*
X133355000Y-86360000D03*
X130815000Y-86360000D03*
%TD*%
D15*
%TO.C,U1*%
X145925000Y-91905000D03*
X145925000Y-90635000D03*
X145925000Y-89365000D03*
X145925000Y-88095000D03*
X151075000Y-88095000D03*
X151075000Y-89365000D03*
X151075000Y-90635000D03*
X151075000Y-91905000D03*
%TD*%
%LPD*%
M02*
