M48
; DRILL file {KiCad 9.0.6+1} date 2026-01-16T19:12:35+0000
; FORMAT={-:-/ absolute / metric / decimal}
; #@! TF.CreationDate,2026-01-16T19:12:35+00:00
; #@! TF.GenerationSoftware,Kicad,Pcbnew,9.0.6+1
; #@! TF.FileFunction,Plated,1,2,PTH
FMAT,2
METRIC
; #@! TA.AperFunction,Plated,PTH,ViaDrill
T1C0.900
; #@! TA.AperFunction,Plated,PTH,ComponentDrill
T2C1.000
%
G90
G05
T1
X137.0Y-92.75
X139.5Y-84.746
X140.0Y-91.25
X141.842Y-92.092
X148.234Y-89.515
X148.25Y-93.75
X148.75Y-92.25
X149.07Y-87.43
X149.25Y-90.678
X149.5Y-85.5
X152.75Y-97.75
X152.79Y-92.368
X152.908Y-88.138
X155.75Y-93.0
X156.0Y-88.0
X159.25Y-89.154
X160.528Y-92.456
X162.5Y-93.75
T2
X131.572Y-86.36
X131.572Y-88.9
X131.572Y-91.44
X131.572Y-93.98
X134.112Y-86.36
X134.112Y-88.9
X134.112Y-91.44
X134.112Y-93.98
M30
