%TF.GenerationSoftware,KiCad,Pcbnew,9.0.6+1*%
%TF.CreationDate,Date%
%TF.ProjectId,kibot-test-cicd,6b69626f-742d-4746-9573-742d63696364,0.1.0+ (Unreleased)*%
%TF.SameCoordinates,Original*%
%TF.FileFunction,Copper,L2,Inr*%
%TF.FilePolarity,Positive*%
%FSLAX46Y46*%
G04 Gerber Fmt 4.6, Leading zero omitted, Abs format (unit mm)*
G04 Created by KiCad*
%MOMM*%
%LPD*%
G01*
G04 APERTURE LIST*
%TA.AperFunction,ComponentPad*%
%ADD10R,1.700000X1.700000*%
%TD*%
%TA.AperFunction,ComponentPad*%
%ADD11C,1.700000*%
%TD*%
%TA.AperFunction,ViaPad*%
%ADD12C,0.550000*%
%TD*%
G04 APERTURE END LIST*
D10*
%TO.N,out_sel*%
%TO.C,J1*%
X133355000Y-93980000D03*
D11*
%TO.N,mode*%
X130815000Y-93980000D03*
%TO.N,+3V3*%
X133355000Y-91440000D03*
%TO.N,push*%
X130815000Y-91440000D03*
%TO.N,GND*%
X133355000Y-88900000D03*
%TO.N,SDA-A*%
X130815000Y-88900000D03*
%TO.N,SCL-B*%
X133355000Y-86360000D03*
%TO.N,Z-CS*%
X130815000Y-86360000D03*
%TD*%
D12*
%TO.N,out_sel*%
X143891000Y-91821000D03*
%TD*%
%TA.AperFunction,NonConductor*%
G36*
X148983085Y-66754241D02*
G01*
X149938213Y-66793746D01*
X149943291Y-66794061D01*
X150895980Y-66873004D01*
X150900994Y-66873523D01*
X151743744Y-66978572D01*
X151849631Y-66991771D01*
X151854703Y-66992510D01*
X151979411Y-67013320D01*
X152797599Y-67149851D01*
X152802608Y-67150794D01*
X153738205Y-67346968D01*
X153743172Y-67348117D01*
X154559347Y-67554801D01*
X154669861Y-67582787D01*
X154674804Y-67584148D01*
X155591009Y-67856914D01*
X155595839Y-67858462D01*
X156301293Y-68100644D01*
X156499982Y-68168854D01*
X156504794Y-68170618D01*
X156668930Y-68234664D01*
X157395331Y-68518107D01*
X157400029Y-68520052D01*
X158275452Y-68904049D01*
X158280102Y-68906204D01*
X159138904Y-69326046D01*
X159143439Y-69328380D01*
X159984164Y-69783357D01*
X159988608Y-69785883D01*
X160809800Y-70275207D01*
X160814148Y-70277921D01*
X161614423Y-70800767D01*
X161618654Y-70803659D01*
X162396631Y-71359123D01*
X162400712Y-71362166D01*
X162752596Y-71636048D01*
X163155078Y-71949313D01*
X163159057Y-71952544D01*
X163888495Y-72570346D01*
X163892337Y-72573738D01*
X164595651Y-73221184D01*
X164599349Y-73224733D01*
X165275266Y-73900650D01*
X165278815Y-73904348D01*
X165926261Y-74607662D01*
X165929653Y-74611504D01*
X166547455Y-75340942D01*
X166550686Y-75344921D01*
X166884528Y-75773841D01*
X167137827Y-76099279D01*
X167140876Y-76103368D01*
X167696340Y-76881345D01*
X167699232Y-76885576D01*
X168222078Y-77685851D01*
X168224792Y-77690199D01*
X168714116Y-78511391D01*
X168716648Y-78515847D01*
X169171607Y-79356537D01*
X169173953Y-79361095D01*
X169593795Y-80219897D01*
X169595950Y-80224547D01*
X169979939Y-81099952D01*
X169981900Y-81104687D01*
X170329381Y-81995205D01*
X170331145Y-82000017D01*
X170641529Y-82904135D01*
X170643093Y-82909016D01*
X170915851Y-83825196D01*
X170917212Y-83830138D01*
X171151879Y-84756814D01*
X171153034Y-84761807D01*
X171349202Y-85697377D01*
X171350150Y-85702414D01*
X171507489Y-86645296D01*
X171508228Y-86650368D01*
X171626471Y-87598963D01*
X171626999Y-87604061D01*
X171705936Y-88556689D01*
X171706254Y-88561805D01*
X171745758Y-89516914D01*
X171745864Y-89522038D01*
X171745864Y-90477961D01*
X171745758Y-90483085D01*
X171706254Y-91438194D01*
X171705936Y-91443310D01*
X171626999Y-92395938D01*
X171626471Y-92401036D01*
X171508228Y-93349631D01*
X171507489Y-93354703D01*
X171350150Y-94297585D01*
X171349202Y-94302622D01*
X171153034Y-95238192D01*
X171151879Y-95243185D01*
X170917212Y-96169861D01*
X170915851Y-96174803D01*
X170643093Y-97090983D01*
X170641529Y-97095864D01*
X170331145Y-97999982D01*
X170329381Y-98004794D01*
X169981900Y-98895312D01*
X169979939Y-98900047D01*
X169595950Y-99775452D01*
X169593795Y-99780102D01*
X169173953Y-100638904D01*
X169171607Y-100643462D01*
X168716648Y-101484152D01*
X168714116Y-101488608D01*
X168224792Y-102309800D01*
X168222078Y-102314148D01*
X167699232Y-103114423D01*
X167696340Y-103118654D01*
X167140876Y-103896631D01*
X167137812Y-103900740D01*
X166550686Y-104655078D01*
X166547455Y-104659057D01*
X165929653Y-105388495D01*
X165926261Y-105392337D01*
X165278815Y-106095651D01*
X165275266Y-106099349D01*
X164599349Y-106775266D01*
X164595651Y-106778815D01*
X163892337Y-107426261D01*
X163888495Y-107429653D01*
X163159057Y-108047455D01*
X163155078Y-108050686D01*
X162400740Y-108637812D01*
X162396631Y-108640876D01*
X161618654Y-109196340D01*
X161614423Y-109199232D01*
X160814148Y-109722078D01*
X160809800Y-109724792D01*
X159988608Y-110214116D01*
X159984152Y-110216648D01*
X159143462Y-110671607D01*
X159138904Y-110673953D01*
X158280102Y-111093795D01*
X158275452Y-111095950D01*
X157400047Y-111479939D01*
X157395312Y-111481900D01*
X156504794Y-111829381D01*
X156499982Y-111831145D01*
X155595864Y-112141529D01*
X155590983Y-112143093D01*
X154674803Y-112415851D01*
X154669861Y-112417212D01*
X153743185Y-112651879D01*
X153738192Y-112653034D01*
X152802622Y-112849202D01*
X152797585Y-112850150D01*
X151854703Y-113007489D01*
X151849631Y-113008228D01*
X150901036Y-113126471D01*
X150895938Y-113126999D01*
X149943310Y-113205936D01*
X149938194Y-113206254D01*
X148983086Y-113245758D01*
X148977962Y-113245864D01*
X148022038Y-113245864D01*
X148016914Y-113245758D01*
X147061805Y-113206254D01*
X147056689Y-113205936D01*
X146104061Y-113126999D01*
X146098963Y-113126471D01*
X145150368Y-113008228D01*
X145145296Y-113007489D01*
X144202414Y-112850150D01*
X144197377Y-112849202D01*
X143261807Y-112653034D01*
X143256814Y-112651879D01*
X142330138Y-112417212D01*
X142325196Y-112415851D01*
X141409016Y-112143093D01*
X141404135Y-112141529D01*
X140500017Y-111831145D01*
X140495205Y-111829381D01*
X139604687Y-111481900D01*
X139599952Y-111479939D01*
X138724547Y-111095950D01*
X138719897Y-111093795D01*
X137861095Y-110673953D01*
X137856537Y-110671607D01*
X137015847Y-110216648D01*
X137011391Y-110214116D01*
X136190199Y-109724792D01*
X136185851Y-109722078D01*
X135385576Y-109199232D01*
X135381345Y-109196340D01*
X134603368Y-108640876D01*
X134599279Y-108637827D01*
X134247404Y-108363952D01*
X133844921Y-108050686D01*
X133840942Y-108047455D01*
X133111504Y-107429653D01*
X133107662Y-107426261D01*
X132404348Y-106778815D01*
X132400650Y-106775266D01*
X131724733Y-106099349D01*
X131721184Y-106095651D01*
X131073738Y-105392337D01*
X131070346Y-105388495D01*
X130452544Y-104659057D01*
X130449313Y-104655078D01*
X130115809Y-104226593D01*
X129862166Y-103900712D01*
X129859123Y-103896631D01*
X129853270Y-103888434D01*
X129666426Y-103626742D01*
X129303659Y-103118654D01*
X129300767Y-103114423D01*
X128826281Y-102388169D01*
X128777919Y-102314144D01*
X128775207Y-102309799D01*
X128716666Y-102211554D01*
X128716665Y-102211553D01*
X128681261Y-102152138D01*
X135274500Y-102152138D01*
X135274500Y-102388160D01*
X135305307Y-102622163D01*
X135355100Y-102807991D01*
X135366394Y-102850142D01*
X135456714Y-103068194D01*
X135456719Y-103068205D01*
X135527677Y-103191106D01*
X135574727Y-103272599D01*
X135574729Y-103272602D01*
X135574730Y-103272603D01*
X135718406Y-103459846D01*
X135718412Y-103459853D01*
X135885295Y-103626736D01*
X135885301Y-103626741D01*
X136072550Y-103770422D01*
X136203918Y-103846267D01*
X136276943Y-103888429D01*
X136276948Y-103888431D01*
X136276951Y-103888433D01*
X136495007Y-103978755D01*
X136722986Y-104039842D01*
X136956989Y-104070649D01*
X136956996Y-104070649D01*
X137193004Y-104070649D01*
X137193011Y-104070649D01*
X137427014Y-104039842D01*
X137654993Y-103978755D01*
X137873049Y-103888433D01*
X138077450Y-103770422D01*
X138264699Y-103626741D01*
X138431592Y-103459848D01*
X138575273Y-103272599D01*
X138693284Y-103068198D01*
X138783606Y-102850142D01*
X138809905Y-102751995D01*
X156949500Y-102751995D01*
X156949500Y-102988004D01*
X156949501Y-102988020D01*
X156980306Y-103222010D01*
X157041394Y-103449993D01*
X157131714Y-103668045D01*
X157131719Y-103668056D01*
X157190819Y-103770418D01*
X157249727Y-103872450D01*
X157249729Y-103872453D01*
X157249730Y-103872454D01*
X157393406Y-104059697D01*
X157393412Y-104059704D01*
X157560295Y-104226587D01*
X157560301Y-104226592D01*
X157747550Y-104370273D01*
X157878918Y-104446118D01*
X157951943Y-104488280D01*
X157951948Y-104488282D01*
X157951951Y-104488284D01*
X158170007Y-104578606D01*
X158397986Y-104639693D01*
X158631989Y-104670500D01*
X158631996Y-104670500D01*
X158868004Y-104670500D01*
X158868011Y-104670500D01*
X159102014Y-104639693D01*
X159329993Y-104578606D01*
X159548049Y-104488284D01*
X159752450Y-104370273D01*
X159939699Y-104226592D01*
X160106592Y-104059699D01*
X160250273Y-103872450D01*
X160368284Y-103668049D01*
X160458606Y-103449993D01*
X160519693Y-103222014D01*
X160550500Y-102988011D01*
X160550500Y-102751989D01*
X160519693Y-102517986D01*
X160458606Y-102290007D01*
X160368284Y-102071951D01*
X160368282Y-102071948D01*
X160368280Y-102071943D01*
X160326118Y-101998918D01*
X160250273Y-101867550D01*
X160106592Y-101680301D01*
X160106587Y-101680295D01*
X159939704Y-101513412D01*
X159939697Y-101513406D01*
X159752454Y-101369730D01*
X159752453Y-101369729D01*
X159752450Y-101369727D01*
X159670957Y-101322677D01*
X159548056Y-101251719D01*
X159548045Y-101251714D01*
X159329993Y-101161394D01*
X159102010Y-101100306D01*
X158868020Y-101069501D01*
X158868017Y-101069500D01*
X158868011Y-101069500D01*
X158631989Y-101069500D01*
X158631983Y-101069500D01*
X158631979Y-101069501D01*
X158397989Y-101100306D01*
X158170006Y-101161394D01*
X157951954Y-101251714D01*
X157951943Y-101251719D01*
X157747545Y-101369730D01*
X157560302Y-101513406D01*
X157560295Y-101513412D01*
X157393412Y-101680295D01*
X157393406Y-101680302D01*
X157249730Y-101867545D01*
X157131719Y-102071943D01*
X157131714Y-102071954D01*
X157041394Y-102290006D01*
X156980306Y-102517989D01*
X156949501Y-102751979D01*
X156949500Y-102751995D01*
X138809905Y-102751995D01*
X138844693Y-102622163D01*
X138875500Y-102388160D01*
X138875500Y-102152138D01*
X138844693Y-101918135D01*
X138783606Y-101690156D01*
X138693284Y-101472100D01*
X138693282Y-101472097D01*
X138693280Y-101472092D01*
X138651118Y-101399067D01*
X138575273Y-101267699D01*
X138431592Y-101080450D01*
X138431587Y-101080444D01*
X138264704Y-100913561D01*
X138264697Y-100913555D01*
X138077454Y-100769879D01*
X138077453Y-100769878D01*
X138077450Y-100769876D01*
X137995957Y-100722826D01*
X137873056Y-100651868D01*
X137873045Y-100651863D01*
X137654993Y-100561543D01*
X137427010Y-100500455D01*
X137193020Y-100469650D01*
X137193017Y-100469649D01*
X137193011Y-100469649D01*
X136956989Y-100469649D01*
X136956983Y-100469649D01*
X136956979Y-100469650D01*
X136722989Y-100500455D01*
X136495006Y-100561543D01*
X136276954Y-100651863D01*
X136276943Y-100651868D01*
X136072545Y-100769879D01*
X135885302Y-100913555D01*
X135885295Y-100913561D01*
X135718412Y-101080444D01*
X135718406Y-101080451D01*
X135574730Y-101267694D01*
X135456719Y-101472092D01*
X135456714Y-101472103D01*
X135366394Y-101690155D01*
X135305306Y-101918138D01*
X135285056Y-102071954D01*
X135274500Y-102152138D01*
X128681261Y-102152138D01*
X128285883Y-101488608D01*
X128283351Y-101484152D01*
X127828380Y-100643439D01*
X127826046Y-100638904D01*
X127406204Y-99780102D01*
X127404049Y-99775452D01*
X127020060Y-98900047D01*
X127018099Y-98895312D01*
X126670618Y-98004794D01*
X126668854Y-97999982D01*
X126594473Y-97783317D01*
X126358462Y-97095839D01*
X126356914Y-97091009D01*
X126084148Y-96174803D01*
X126082787Y-96169861D01*
X125848120Y-95243185D01*
X125846965Y-95238192D01*
X125650794Y-94302608D01*
X125649849Y-94297585D01*
X125581978Y-93890853D01*
X125579588Y-93876530D01*
X129764500Y-93876530D01*
X129764500Y-94083469D01*
X129804868Y-94286412D01*
X129804870Y-94286420D01*
X129884058Y-94477596D01*
X129999024Y-94649657D01*
X130145342Y-94795975D01*
X130145345Y-94795977D01*
X130317402Y-94910941D01*
X130508580Y-94990130D01*
X130653052Y-95018867D01*
X130711530Y-95030499D01*
X130711534Y-95030500D01*
X130711535Y-95030500D01*
X130918466Y-95030500D01*
X130918467Y-95030499D01*
X131121420Y-94990130D01*
X131312598Y-94910941D01*
X131484655Y-94795977D01*
X131630977Y-94649655D01*
X131745941Y-94477598D01*
X131825130Y-94286420D01*
X131865500Y-94083465D01*
X131865500Y-93876535D01*
X131825130Y-93673580D01*
X131745941Y-93482402D01*
X131630977Y-93310345D01*
X131630975Y-93310342D01*
X131484657Y-93164024D01*
X131404173Y-93110247D01*
X132304500Y-93110247D01*
X132304500Y-94849752D01*
X132316131Y-94908229D01*
X132316132Y-94908230D01*
X132360447Y-94974552D01*
X132426769Y-95018867D01*
X132426770Y-95018868D01*
X132485247Y-95030499D01*
X132485250Y-95030500D01*
X132485252Y-95030500D01*
X134224750Y-95030500D01*
X134224751Y-95030499D01*
X134239568Y-95027552D01*
X134283229Y-95018868D01*
X134283229Y-95018867D01*
X134283231Y-95018867D01*
X134349552Y-94974552D01*
X134393867Y-94908231D01*
X134393867Y-94908229D01*
X134393868Y-94908229D01*
X134405499Y-94849752D01*
X134405500Y-94849750D01*
X134405500Y-93110249D01*
X134405499Y-93110247D01*
X134393868Y-93051770D01*
X134393867Y-93051769D01*
X134349552Y-92985447D01*
X134283230Y-92941132D01*
X134283229Y-92941131D01*
X134224752Y-92929500D01*
X134224748Y-92929500D01*
X132485252Y-92929500D01*
X132485247Y-92929500D01*
X132426770Y-92941131D01*
X132426769Y-92941132D01*
X132360447Y-92985447D01*
X132316132Y-93051769D01*
X132316131Y-93051770D01*
X132304500Y-93110247D01*
X131404173Y-93110247D01*
X131316655Y-93051770D01*
X131312598Y-93049059D01*
X131121420Y-92969870D01*
X131121412Y-92969868D01*
X130918469Y-92929500D01*
X130918465Y-92929500D01*
X130711535Y-92929500D01*
X130711530Y-92929500D01*
X130508587Y-92969868D01*
X130508579Y-92969870D01*
X130317403Y-93049058D01*
X130145342Y-93164024D01*
X129999024Y-93310342D01*
X129884058Y-93482403D01*
X129804870Y-93673579D01*
X129804868Y-93673587D01*
X129764500Y-93876530D01*
X125579588Y-93876530D01*
X125492510Y-93354703D01*
X125491771Y-93349631D01*
X125461932Y-93110247D01*
X125373523Y-92400994D01*
X125373004Y-92395980D01*
X125294061Y-91443291D01*
X125293745Y-91438195D01*
X125292106Y-91398559D01*
X125289540Y-91336530D01*
X129764500Y-91336530D01*
X129764500Y-91543469D01*
X129804868Y-91746412D01*
X129804870Y-91746420D01*
X129884058Y-91937596D01*
X129999024Y-92109657D01*
X130145342Y-92255975D01*
X130145345Y-92255977D01*
X130317402Y-92370941D01*
X130508580Y-92450130D01*
X130711530Y-92490499D01*
X130711534Y-92490500D01*
X130711535Y-92490500D01*
X130918466Y-92490500D01*
X130918467Y-92490499D01*
X131121420Y-92450130D01*
X131312598Y-92370941D01*
X131484655Y-92255977D01*
X131630977Y-92109655D01*
X131745941Y-91937598D01*
X131825130Y-91746420D01*
X131865500Y-91543465D01*
X131865500Y-91336535D01*
X131865499Y-91336530D01*
X132304500Y-91336530D01*
X132304500Y-91543469D01*
X132344868Y-91746412D01*
X132344870Y-91746420D01*
X132424058Y-91937596D01*
X132539024Y-92109657D01*
X132685342Y-92255975D01*
X132685345Y-92255977D01*
X132857402Y-92370941D01*
X133048580Y-92450130D01*
X133251530Y-92490499D01*
X133251534Y-92490500D01*
X133251535Y-92490500D01*
X133458466Y-92490500D01*
X133458467Y-92490499D01*
X133661420Y-92450130D01*
X133852598Y-92370941D01*
X134024655Y-92255977D01*
X134170977Y-92109655D01*
X134285941Y-91937598D01*
X134360168Y-91758399D01*
X143415500Y-91758399D01*
X143415500Y-91883601D01*
X143447905Y-92004536D01*
X143510505Y-92112964D01*
X143599036Y-92201495D01*
X143707464Y-92264095D01*
X143828399Y-92296500D01*
X143828401Y-92296500D01*
X143953599Y-92296500D01*
X143953601Y-92296500D01*
X144074536Y-92264095D01*
X144182964Y-92201495D01*
X144271495Y-92112964D01*
X144334095Y-92004536D01*
X144366500Y-91883601D01*
X144366500Y-91758399D01*
X144334095Y-91637464D01*
X144271495Y-91529036D01*
X144182964Y-91440505D01*
X144074536Y-91377905D01*
X144074537Y-91377905D01*
X144034224Y-91367103D01*
X143953601Y-91345500D01*
X143828399Y-91345500D01*
X143747775Y-91367103D01*
X143707463Y-91377905D01*
X143599037Y-91440504D01*
X143599034Y-91440506D01*
X143510506Y-91529034D01*
X143510504Y-91529037D01*
X143447905Y-91637463D01*
X143447905Y-91637464D01*
X143415500Y-91758399D01*
X134360168Y-91758399D01*
X134365130Y-91746420D01*
X134405500Y-91543465D01*
X134405500Y-91336535D01*
X134365130Y-91133580D01*
X134285941Y-90942402D01*
X134170977Y-90770345D01*
X134170975Y-90770342D01*
X134024657Y-90624024D01*
X133938626Y-90566541D01*
X133852598Y-90509059D01*
X133783706Y-90480523D01*
X133661420Y-90429870D01*
X133661412Y-90429868D01*
X133458469Y-90389500D01*
X133458465Y-90389500D01*
X133251535Y-90389500D01*
X133251530Y-90389500D01*
X133048587Y-90429868D01*
X133048579Y-90429870D01*
X132857403Y-90509058D01*
X132685342Y-90624024D01*
X132539024Y-90770342D01*
X132424058Y-90942403D01*
X132344870Y-91133579D01*
X132344868Y-91133587D01*
X132304500Y-91336530D01*
X131865499Y-91336530D01*
X131825130Y-91133580D01*
X131745941Y-90942402D01*
X131630977Y-90770345D01*
X131630975Y-90770342D01*
X131484657Y-90624024D01*
X131398626Y-90566541D01*
X131312598Y-90509059D01*
X131243706Y-90480523D01*
X131121420Y-90429870D01*
X131121412Y-90429868D01*
X130918469Y-90389500D01*
X130918465Y-90389500D01*
X130711535Y-90389500D01*
X130711530Y-90389500D01*
X130508587Y-90429868D01*
X130508579Y-90429870D01*
X130317403Y-90509058D01*
X130145342Y-90624024D01*
X129999024Y-90770342D01*
X129884058Y-90942403D01*
X129804870Y-91133579D01*
X129804868Y-91133587D01*
X129764500Y-91336530D01*
X125289540Y-91336530D01*
X125254242Y-90483085D01*
X125254136Y-90477961D01*
X125254136Y-89522038D01*
X125254242Y-89516914D01*
X125284037Y-88796530D01*
X129764500Y-88796530D01*
X129764500Y-89003469D01*
X129804868Y-89206412D01*
X129804870Y-89206420D01*
X129884058Y-89397596D01*
X129999024Y-89569657D01*
X130145342Y-89715975D01*
X130145345Y-89715977D01*
X130317402Y-89830941D01*
X130508580Y-89910130D01*
X130711530Y-89950499D01*
X130711534Y-89950500D01*
X130711535Y-89950500D01*
X130918466Y-89950500D01*
X130918467Y-89950499D01*
X131121420Y-89910130D01*
X131312598Y-89830941D01*
X131484655Y-89715977D01*
X131630977Y-89569655D01*
X131745941Y-89397598D01*
X131825130Y-89206420D01*
X131865500Y-89003465D01*
X131865500Y-88796535D01*
X131865499Y-88796530D01*
X132304500Y-88796530D01*
X132304500Y-89003469D01*
X132344868Y-89206412D01*
X132344870Y-89206420D01*
X132424058Y-89397596D01*
X132539024Y-89569657D01*
X132685342Y-89715975D01*
X132685345Y-89715977D01*
X132857402Y-89830941D01*
X133048580Y-89910130D01*
X133251530Y-89950499D01*
X133251534Y-89950500D01*
X133251535Y-89950500D01*
X133458466Y-89950500D01*
X133458467Y-89950499D01*
X133661420Y-89910130D01*
X133852598Y-89830941D01*
X134024655Y-89715977D01*
X134170977Y-89569655D01*
X134285941Y-89397598D01*
X134365130Y-89206420D01*
X134405500Y-89003465D01*
X134405500Y-88796535D01*
X134365130Y-88593580D01*
X134285941Y-88402402D01*
X134170977Y-88230345D01*
X134170975Y-88230342D01*
X134024657Y-88084024D01*
X133938626Y-88026541D01*
X133852598Y-87969059D01*
X133661420Y-87889870D01*
X133661412Y-87889868D01*
X133458469Y-87849500D01*
X133458465Y-87849500D01*
X133251535Y-87849500D01*
X133251530Y-87849500D01*
X133048587Y-87889868D01*
X133048579Y-87889870D01*
X132857403Y-87969058D01*
X132685342Y-88084024D01*
X132539024Y-88230342D01*
X132424058Y-88402403D01*
X132344870Y-88593579D01*
X132344868Y-88593587D01*
X132304500Y-88796530D01*
X131865499Y-88796530D01*
X131825130Y-88593580D01*
X131745941Y-88402402D01*
X131630977Y-88230345D01*
X131630975Y-88230342D01*
X131484657Y-88084024D01*
X131398626Y-88026541D01*
X131312598Y-87969059D01*
X131121420Y-87889870D01*
X131121412Y-87889868D01*
X130918469Y-87849500D01*
X130918465Y-87849500D01*
X130711535Y-87849500D01*
X130711530Y-87849500D01*
X130508587Y-87889868D01*
X130508579Y-87889870D01*
X130317403Y-87969058D01*
X130145342Y-88084024D01*
X129999024Y-88230342D01*
X129884058Y-88402403D01*
X129804870Y-88593579D01*
X129804868Y-88593587D01*
X129764500Y-88796530D01*
X125284037Y-88796530D01*
X125284501Y-88785319D01*
X125293745Y-88561805D01*
X125294063Y-88556689D01*
X125321105Y-88230345D01*
X125373004Y-87604014D01*
X125373523Y-87599009D01*
X125491771Y-86650367D01*
X125492510Y-86645296D01*
X125557384Y-86256530D01*
X129764500Y-86256530D01*
X129764500Y-86463469D01*
X129804868Y-86666412D01*
X129804870Y-86666420D01*
X129884058Y-86857596D01*
X129999024Y-87029657D01*
X130145342Y-87175975D01*
X130145345Y-87175977D01*
X130317402Y-87290941D01*
X130508580Y-87370130D01*
X130711530Y-87410499D01*
X130711534Y-87410500D01*
X130711535Y-87410500D01*
X130918466Y-87410500D01*
X130918467Y-87410499D01*
X131121420Y-87370130D01*
X131312598Y-87290941D01*
X131484655Y-87175977D01*
X131630977Y-87029655D01*
X131745941Y-86857598D01*
X131825130Y-86666420D01*
X131865500Y-86463465D01*
X131865500Y-86256535D01*
X131865499Y-86256530D01*
X132304500Y-86256530D01*
X132304500Y-86463469D01*
X132344868Y-86666412D01*
X132344870Y-86666420D01*
X132424058Y-86857596D01*
X132539024Y-87029657D01*
X132685342Y-87175975D01*
X132685345Y-87175977D01*
X132857402Y-87290941D01*
X133048580Y-87370130D01*
X133251530Y-87410499D01*
X133251534Y-87410500D01*
X133251535Y-87410500D01*
X133458466Y-87410500D01*
X133458467Y-87410499D01*
X133661420Y-87370130D01*
X133852598Y-87290941D01*
X134024655Y-87175977D01*
X134170977Y-87029655D01*
X134285941Y-86857598D01*
X134365130Y-86666420D01*
X134405500Y-86463465D01*
X134405500Y-86256535D01*
X134365130Y-86053580D01*
X134285941Y-85862402D01*
X134170977Y-85690345D01*
X134170975Y-85690342D01*
X134024657Y-85544024D01*
X133938626Y-85486541D01*
X133852598Y-85429059D01*
X133661420Y-85349870D01*
X133661412Y-85349868D01*
X133458469Y-85309500D01*
X133458465Y-85309500D01*
X133251535Y-85309500D01*
X133251530Y-85309500D01*
X133048587Y-85349868D01*
X133048579Y-85349870D01*
X132857403Y-85429058D01*
X132685342Y-85544024D01*
X132539024Y-85690342D01*
X132424058Y-85862403D01*
X132344870Y-86053579D01*
X132344868Y-86053587D01*
X132304500Y-86256530D01*
X131865499Y-86256530D01*
X131825130Y-86053580D01*
X131745941Y-85862402D01*
X131630977Y-85690345D01*
X131630975Y-85690342D01*
X131484657Y-85544024D01*
X131398626Y-85486541D01*
X131312598Y-85429059D01*
X131121420Y-85349870D01*
X131121412Y-85349868D01*
X130918469Y-85309500D01*
X130918465Y-85309500D01*
X130711535Y-85309500D01*
X130711530Y-85309500D01*
X130508587Y-85349868D01*
X130508579Y-85349870D01*
X130317403Y-85429058D01*
X130145342Y-85544024D01*
X129999024Y-85690342D01*
X129884058Y-85862403D01*
X129804870Y-86053579D01*
X129804868Y-86053587D01*
X129764500Y-86256530D01*
X125557384Y-86256530D01*
X125649853Y-85702391D01*
X125650792Y-85697400D01*
X125846970Y-84761783D01*
X125848114Y-84756838D01*
X126082789Y-83830127D01*
X126084148Y-83825196D01*
X126356918Y-82908976D01*
X126358457Y-82904174D01*
X126668856Y-82000009D01*
X126670618Y-81995205D01*
X127018113Y-81104651D01*
X127020045Y-81099987D01*
X127404057Y-80224529D01*
X127406204Y-80219897D01*
X127418568Y-80194606D01*
X127826057Y-79361073D01*
X127828369Y-79356579D01*
X128283369Y-78515814D01*
X128285883Y-78511391D01*
X128410568Y-78302144D01*
X135274500Y-78302144D01*
X135274500Y-78538153D01*
X135274501Y-78538169D01*
X135305306Y-78772159D01*
X135366394Y-79000142D01*
X135456714Y-79218194D01*
X135456719Y-79218205D01*
X135494735Y-79284049D01*
X135574727Y-79422599D01*
X135574729Y-79422602D01*
X135574730Y-79422603D01*
X135718406Y-79609846D01*
X135718412Y-79609853D01*
X135885295Y-79776736D01*
X135885301Y-79776741D01*
X136072550Y-79920422D01*
X136203918Y-79996267D01*
X136276943Y-80038429D01*
X136276948Y-80038431D01*
X136276951Y-80038433D01*
X136495007Y-80128755D01*
X136722986Y-80189842D01*
X136956989Y-80220649D01*
X136956996Y-80220649D01*
X137193004Y-80220649D01*
X137193011Y-80220649D01*
X137427014Y-80189842D01*
X137654993Y-80128755D01*
X137873049Y-80038433D01*
X138077450Y-79920422D01*
X138264699Y-79776741D01*
X138431592Y-79609848D01*
X138575273Y-79422599D01*
X138693284Y-79218198D01*
X138783606Y-79000142D01*
X138844693Y-78772163D01*
X138875500Y-78538160D01*
X138875500Y-78367995D01*
X156949500Y-78367995D01*
X156949500Y-78604004D01*
X156949501Y-78604020D01*
X156980306Y-78838010D01*
X157041394Y-79065993D01*
X157131714Y-79284045D01*
X157131719Y-79284056D01*
X157202677Y-79406957D01*
X157249727Y-79488450D01*
X157249729Y-79488453D01*
X157249730Y-79488454D01*
X157393406Y-79675697D01*
X157393412Y-79675704D01*
X157560295Y-79842587D01*
X157560301Y-79842592D01*
X157747550Y-79986273D01*
X157878918Y-80062118D01*
X157951943Y-80104280D01*
X157951948Y-80104282D01*
X157951951Y-80104284D01*
X158170007Y-80194606D01*
X158397986Y-80255693D01*
X158631989Y-80286500D01*
X158631996Y-80286500D01*
X158868004Y-80286500D01*
X158868011Y-80286500D01*
X159102014Y-80255693D01*
X159329993Y-80194606D01*
X159548049Y-80104284D01*
X159752450Y-79986273D01*
X159939699Y-79842592D01*
X160106592Y-79675699D01*
X160250273Y-79488450D01*
X160368284Y-79284049D01*
X160458606Y-79065993D01*
X160519693Y-78838014D01*
X160550500Y-78604011D01*
X160550500Y-78367989D01*
X160519693Y-78133986D01*
X160458606Y-77906007D01*
X160368284Y-77687951D01*
X160368282Y-77687948D01*
X160368280Y-77687943D01*
X160326118Y-77614918D01*
X160250273Y-77483550D01*
X160106592Y-77296301D01*
X160106587Y-77296295D01*
X159939704Y-77129412D01*
X159939697Y-77129406D01*
X159752454Y-76985730D01*
X159752453Y-76985729D01*
X159752450Y-76985727D01*
X159638393Y-76919876D01*
X159548056Y-76867719D01*
X159548045Y-76867714D01*
X159329993Y-76777394D01*
X159102010Y-76716306D01*
X158868020Y-76685501D01*
X158868017Y-76685500D01*
X158868011Y-76685500D01*
X158631989Y-76685500D01*
X158631983Y-76685500D01*
X158631979Y-76685501D01*
X158397989Y-76716306D01*
X158170006Y-76777394D01*
X157951954Y-76867714D01*
X157951943Y-76867719D01*
X157747545Y-76985730D01*
X157560302Y-77129406D01*
X157560295Y-77129412D01*
X157393412Y-77296295D01*
X157393406Y-77296302D01*
X157249730Y-77483545D01*
X157131719Y-77687943D01*
X157131714Y-77687954D01*
X157041394Y-77906006D01*
X156980306Y-78133989D01*
X156949501Y-78367979D01*
X156949500Y-78367995D01*
X138875500Y-78367995D01*
X138875500Y-78302138D01*
X138844693Y-78068135D01*
X138783606Y-77840156D01*
X138693284Y-77622100D01*
X138693282Y-77622097D01*
X138693280Y-77622092D01*
X138613289Y-77483545D01*
X138575273Y-77417699D01*
X138431592Y-77230450D01*
X138431587Y-77230444D01*
X138264704Y-77063561D01*
X138264697Y-77063555D01*
X138077454Y-76919879D01*
X138077453Y-76919878D01*
X138077450Y-76919876D01*
X137995957Y-76872826D01*
X137873056Y-76801868D01*
X137873045Y-76801863D01*
X137654993Y-76711543D01*
X137557803Y-76685501D01*
X137427014Y-76650456D01*
X137427013Y-76650455D01*
X137427010Y-76650455D01*
X137193020Y-76619650D01*
X137193017Y-76619649D01*
X137193011Y-76619649D01*
X136956989Y-76619649D01*
X136956983Y-76619649D01*
X136956979Y-76619650D01*
X136722989Y-76650455D01*
X136495006Y-76711543D01*
X136276954Y-76801863D01*
X136276943Y-76801868D01*
X136072545Y-76919879D01*
X135885302Y-77063555D01*
X135885295Y-77063561D01*
X135718412Y-77230444D01*
X135718406Y-77230451D01*
X135574730Y-77417694D01*
X135456719Y-77622092D01*
X135456714Y-77622103D01*
X135366394Y-77840155D01*
X135305306Y-78068138D01*
X135274501Y-78302128D01*
X135274500Y-78302144D01*
X128410568Y-78302144D01*
X128775222Y-77690174D01*
X128777905Y-77685876D01*
X129300777Y-76885560D01*
X129303659Y-76881345D01*
X129468511Y-76650455D01*
X129859144Y-76103339D01*
X129862148Y-76099310D01*
X130449315Y-75344917D01*
X130452544Y-75340942D01*
X131070371Y-74611475D01*
X131073713Y-74607690D01*
X131721207Y-73904323D01*
X131724709Y-73900674D01*
X132400674Y-73224709D01*
X132404323Y-73221207D01*
X133107690Y-72573713D01*
X133111475Y-72570371D01*
X133840945Y-71952541D01*
X133844921Y-71949313D01*
X134599310Y-71362148D01*
X134603339Y-71359144D01*
X135381345Y-70803659D01*
X135385560Y-70800777D01*
X136185876Y-70277905D01*
X136190174Y-70275222D01*
X137011403Y-69785875D01*
X137015814Y-69783369D01*
X137856579Y-69328369D01*
X137861073Y-69326057D01*
X138719914Y-68906195D01*
X138724529Y-68904057D01*
X139599987Y-68520045D01*
X139604651Y-68518113D01*
X140495213Y-68170615D01*
X140500009Y-68168856D01*
X141404174Y-67858457D01*
X141408976Y-67856918D01*
X142325207Y-67584144D01*
X142330127Y-67582789D01*
X143256838Y-67348114D01*
X143261783Y-67346970D01*
X144197400Y-67150792D01*
X144202391Y-67149853D01*
X145145296Y-66992509D01*
X145150368Y-66991771D01*
X146099009Y-66873523D01*
X146104014Y-66873004D01*
X147056711Y-66794061D01*
X147061783Y-66793746D01*
X148016914Y-66754241D01*
X148022038Y-66754136D01*
X148977962Y-66754136D01*
X148983085Y-66754241D01*
G37*
%TD.AperFunction*%
M02*
