%TF.GenerationSoftware,KiCad,Pcbnew,9.0.6+1*%
%TF.CreationDate,Date%
%TF.ProjectId,kibot-test-cicd,6b69626f-742d-4746-9573-742d63696364,0.1.0+ (Unreleased)*%
%TF.SameCoordinates,Original*%
%TF.FileFunction,Copper,L2,Bot*%
%TF.FilePolarity,Positive*%
%FSLAX46Y46*%
G04 Gerber Fmt 4.6, Leading zero omitted, Abs format (unit mm)*
G04 Created by KiCad*
%MOMM*%
%LPD*%
G01*
G04 APERTURE LIST*
G04 Aperture macros list*
%AMRoundRect*
0 Rectangle with rounded corners*
0 $1 Rounding radius*
0 $2 $3 $4 $5 $6 $7 $8 $9 X,Y pos of 4 corners*
0 Add a 4 corners polygon primitive as box body*
4,1,4,$2,$3,$4,$5,$6,$7,$8,$9,$2,$3,0*
0 Add four circle primitives for the rounded corners*
1,1,$1+$1,$2,$3*
1,1,$1+$1,$4,$5*
1,1,$1+$1,$6,$7*
1,1,$1+$1,$8,$9*
0 Add four rect primitives between the rounded corners*
20,1,$1+$1,$2,$3,$4,$5,0*
20,1,$1+$1,$4,$5,$6,$7,0*
20,1,$1+$1,$6,$7,$8,$9,0*
20,1,$1+$1,$8,$9,$2,$3,0*%
G04 Aperture macros list end*
%TA.AperFunction,ComponentPad*%
%ADD10R,1.700000X1.700000*%
%TD*%
%TA.AperFunction,ComponentPad*%
%ADD11C,1.700000*%
%TD*%
%TA.AperFunction,SMDPad,CuDef*%
%ADD12RoundRect,0.150000X-0.725000X-0.150000X0.725000X-0.150000X0.725000X0.150000X-0.725000X0.150000X0*%
%TD*%
%TA.AperFunction,ViaPad*%
%ADD13C,0.550000*%
%TD*%
%TA.AperFunction,Conductor*%
%ADD14C,0.200000*%
%TD*%
%TA.AperFunction,Conductor*%
%ADD15C,0.400000*%
%TD*%
G04 APERTURE END LIST*
D10*
%TO.P,J1,1,Pin_1*%
%TO.N,out_sel*%
X134112000Y-93980000D03*
D11*
%TO.P,J1,2,Pin_2*%
%TO.N,mode*%
X131572000Y-93980000D03*
%TO.P,J1,3,Pin_3*%
%TO.N,+3V3*%
X134112000Y-91440000D03*
%TO.P,J1,4,Pin_4*%
%TO.N,push*%
X131572000Y-91440000D03*
%TO.P,J1,5,Pin_5*%
%TO.N,GND*%
X134112000Y-88900000D03*
%TO.P,J1,6,Pin_6*%
%TO.N,SDA-A*%
X131572000Y-88900000D03*
%TO.P,J1,7,Pin_7*%
%TO.N,SCL-B*%
X134112000Y-86360000D03*
%TO.P,J1,8,Pin_8*%
%TO.N,Z-CS*%
X131572000Y-86360000D03*
%TD*%
D12*
%TO.P,U1,1,VDD*%
%TO.N,+3V3*%
X145925000Y-91905000D03*
%TO.P,U1,2,MODE*%
%TO.N,mode*%
X145925000Y-90635000D03*
%TO.P,U1,3,OUT*%
%TO.N,out_sel*%
X145925000Y-89365000D03*
%TO.P,U1,4,GND*%
%TO.N,GND*%
X145925000Y-88095000D03*
%TO.P,U1,5,PUSH*%
%TO.N,push*%
X151075000Y-88095000D03*
%TO.P,U1,6,A*%
%TO.N,SDA-A*%
X151075000Y-89365000D03*
%TO.P,U1,7,B*%
%TO.N,SCL-B*%
X151075000Y-90635000D03*
%TO.P,U1,8,Z*%
%TO.N,Z-CS*%
X151075000Y-91905000D03*
%TD*%
D13*
%TO.N,GND*%
X147320000Y-91186000D03*
X147320000Y-88138000D03*
X159162519Y-90836519D03*
X162306000Y-93218000D03*
X151892000Y-97536000D03*
%TO.N,+3V3*%
X147066000Y-93472000D03*
%TO.N,out_sel*%
X140716000Y-91440000D03*
%TO.N,SDA-A*%
X159258000Y-88138000D03*
%TO.N,mode*%
X141478000Y-92456000D03*
%TO.N,push*%
X152908000Y-88138000D03*
X152654000Y-92534000D03*
%TO.N,SCL-B*%
X149860000Y-90678000D03*
X160782000Y-89154000D03*
X149606000Y-87884000D03*
%TO.N,Z-CS*%
X149352000Y-91948000D03*
X160528000Y-92456000D03*
X149352000Y-85852000D03*
%TD*%
D14*
%TO.N,GND*%
X145925000Y-88095000D02*
X147277000Y-88095000D01*
X147277000Y-88095000D02*
X147320000Y-88138000D01*
D15*
%TO.N,+3V3*%
X146515000Y-91905000D02*
X147066000Y-92456000D01*
X145925000Y-91905000D02*
X146515000Y-91905000D01*
X147066000Y-92456000D02*
X147066000Y-93472000D01*
D14*
%TO.N,out_sel*%
X142791000Y-89365000D02*
X140716000Y-91440000D01*
X145925000Y-89365000D02*
X142791000Y-89365000D01*
%TO.N,SDA-A*%
X132842000Y-87630000D02*
X131572000Y-88900000D01*
X147510229Y-87376000D02*
X136652000Y-87376000D01*
X151075000Y-89365000D02*
X149499229Y-89365000D01*
X151075000Y-89365000D02*
X158031000Y-89365000D01*
X158031000Y-89365000D02*
X159258000Y-88138000D01*
X136652000Y-87376000D02*
X136398000Y-87630000D01*
X136398000Y-87630000D02*
X132842000Y-87630000D01*
X149499229Y-89365000D02*
X147510229Y-87376000D01*
%TO.N,mode*%
X143299000Y-90635000D02*
X141478000Y-92456000D01*
X145925000Y-90635000D02*
X143299000Y-90635000D01*
%TO.N,push*%
X141986000Y-94742000D02*
X150446000Y-94742000D01*
X150446000Y-94742000D02*
X152654000Y-92534000D01*
X131572000Y-91440000D02*
X132723000Y-90289000D01*
X137533000Y-90289000D02*
X141986000Y-94742000D01*
X151075000Y-88095000D02*
X152865000Y-88095000D01*
X152865000Y-88095000D02*
X152908000Y-88138000D01*
X132723000Y-90289000D02*
X137533000Y-90289000D01*
%TO.N,SCL-B*%
X149860000Y-90678000D02*
X151032000Y-90678000D01*
X160020000Y-89154000D02*
X158539000Y-90635000D01*
X160782000Y-89154000D02*
X160020000Y-89154000D01*
X134112000Y-86360000D02*
X148082000Y-86360000D01*
X158539000Y-90635000D02*
X151075000Y-90635000D01*
X148082000Y-86360000D02*
X149606000Y-87884000D01*
X151032000Y-90678000D02*
X151075000Y-90635000D01*
%TO.N,Z-CS*%
X159643304Y-91571304D02*
X160528000Y-92456000D01*
X151075000Y-91905000D02*
X151936074Y-91905000D01*
X152269770Y-91571304D02*
X159643304Y-91571304D01*
X131572000Y-86360000D02*
X133242000Y-84690000D01*
X151936074Y-91905000D02*
X152269770Y-91571304D01*
X149352000Y-91948000D02*
X151032000Y-91948000D01*
X133242000Y-84690000D02*
X148190000Y-84690000D01*
X148190000Y-84690000D02*
X149352000Y-85852000D01*
X151032000Y-91948000D02*
X151075000Y-91905000D01*
%TD*%
%TA.AperFunction,Conductor*%
%TO.N,GND*%
G36*
X148883582Y-71503489D02*
G01*
X148886114Y-71503541D01*
X149268403Y-71515475D01*
X149270842Y-71515578D01*
X149652715Y-71535458D01*
X149655241Y-71535616D01*
X150036594Y-71563435D01*
X150039069Y-71563641D01*
X150419864Y-71599397D01*
X150422277Y-71599649D01*
X150802196Y-71643313D01*
X150804682Y-71643625D01*
X151183618Y-71695185D01*
X151186102Y-71695549D01*
X151563778Y-71754966D01*
X151566321Y-71755393D01*
X151942726Y-71822660D01*
X151945162Y-71823121D01*
X152320109Y-71898210D01*
X152322628Y-71898742D01*
X152695890Y-71981604D01*
X152698310Y-71982168D01*
X153069845Y-72072798D01*
X153072308Y-72073427D01*
X153423535Y-72166886D01*
X153441754Y-72171734D01*
X153444239Y-72172423D01*
X153571569Y-72209156D01*
X153811649Y-72278419D01*
X153813996Y-72279122D01*
X154179116Y-72392738D01*
X154181571Y-72393530D01*
X154544230Y-72514710D01*
X154546557Y-72515515D01*
X154867718Y-72630311D01*
X154906633Y-72644221D01*
X154909052Y-72645114D01*
X155266359Y-72781277D01*
X155268699Y-72782197D01*
X155623135Y-72925779D01*
X155625384Y-72926718D01*
X155976742Y-73077637D01*
X155979057Y-73078660D01*
X156327187Y-73236851D01*
X156329525Y-73237943D01*
X156674220Y-73403308D01*
X156676477Y-73404420D01*
X157017757Y-73576971D01*
X157019962Y-73578115D01*
X157357534Y-73757706D01*
X157359741Y-73758909D01*
X157693520Y-73945492D01*
X157695737Y-73946762D01*
X158025524Y-74140227D01*
X158027736Y-74141556D01*
X158353427Y-74341839D01*
X158355556Y-74343179D01*
X158677033Y-74550209D01*
X158679165Y-74551614D01*
X158996215Y-74765254D01*
X158998325Y-74766708D01*
X159310964Y-74986968D01*
X159312953Y-74988402D01*
X159463899Y-75099517D01*
X159547248Y-75160872D01*
X159589568Y-75216467D01*
X159595112Y-75286117D01*
X159562121Y-75347707D01*
X159514693Y-75377774D01*
X159426613Y-75408594D01*
X159426606Y-75408597D01*
X159143213Y-75545072D01*
X158876878Y-75712422D01*
X158630956Y-75908538D01*
X158408538Y-76130956D01*
X158212422Y-76376878D01*
X158045072Y-76643213D01*
X157908598Y-76926604D01*
X157804711Y-77223498D01*
X157804710Y-77223500D01*
X157734718Y-77530156D01*
X157734716Y-77530172D01*
X157699500Y-77842722D01*
X157699500Y-78157277D01*
X157734716Y-78469827D01*
X157734718Y-78469843D01*
X157804710Y-78776499D01*
X157804711Y-78776501D01*
X157908598Y-79073395D01*
X158045072Y-79356786D01*
X158045074Y-79356789D01*
X158212423Y-79623123D01*
X158408539Y-79869044D01*
X158630956Y-80091461D01*
X158876877Y-80287577D01*
X159143211Y-80454926D01*
X159426606Y-80591402D01*
X159723500Y-80695289D01*
X160030160Y-80765282D01*
X160342723Y-80800499D01*
X160342724Y-80800500D01*
X160342727Y-80800500D01*
X160657276Y-80800500D01*
X160657276Y-80800499D01*
X160969840Y-80765282D01*
X161276500Y-80695289D01*
X161573394Y-80591402D01*
X161856789Y-80454926D01*
X162123123Y-80287577D01*
X162369044Y-80091461D01*
X162591461Y-79869044D01*
X162787577Y-79623123D01*
X162954926Y-79356789D01*
X163091402Y-79073394D01*
X163122208Y-78985354D01*
X163128137Y-78977087D01*
X163130277Y-78967140D01*
X163148155Y-78949177D01*
X163162928Y-78928580D01*
X163172387Y-78924829D01*
X163179565Y-78917619D01*
X163204317Y-78912172D01*
X163227881Y-78902832D01*
X163237865Y-78904791D01*
X163247803Y-78902605D01*
X163271573Y-78911407D01*
X163296442Y-78916288D01*
X163305526Y-78923980D01*
X163313325Y-78926868D01*
X163338340Y-78951765D01*
X163398294Y-79031461D01*
X163399810Y-79033521D01*
X163623288Y-79343818D01*
X163624665Y-79345772D01*
X163841686Y-79660721D01*
X163843086Y-79662799D01*
X164053432Y-79982077D01*
X164054829Y-79984246D01*
X164258494Y-80307843D01*
X164259845Y-80310041D01*
X164456708Y-80637763D01*
X164457991Y-80639949D01*
X164648053Y-80971797D01*
X164649276Y-80973986D01*
X164832333Y-81309609D01*
X164833545Y-81311886D01*
X165009601Y-81651284D01*
X165010765Y-81653586D01*
X165179722Y-81996569D01*
X165180838Y-81998895D01*
X165342634Y-82345347D01*
X165343673Y-82347634D01*
X165498208Y-82697334D01*
X165499226Y-82699704D01*
X165646453Y-83052541D01*
X165647422Y-83054933D01*
X165787265Y-83410730D01*
X165788184Y-83413140D01*
X165920624Y-83771846D01*
X165921492Y-83774276D01*
X166046419Y-84135598D01*
X166047237Y-84138045D01*
X166164615Y-84501873D01*
X166165381Y-84504336D01*
X166275175Y-84870560D01*
X166275890Y-84873038D01*
X166378045Y-85241481D01*
X166378708Y-85243974D01*
X166473161Y-85614403D01*
X166473773Y-85616909D01*
X166560514Y-85989282D01*
X166561073Y-85991801D01*
X166640040Y-86365862D01*
X166640547Y-86368392D01*
X166711727Y-86744080D01*
X166712180Y-86746619D01*
X166775515Y-87123621D01*
X166775916Y-87126170D01*
X166831398Y-87504433D01*
X166831746Y-87506989D01*
X166879346Y-87886325D01*
X166879641Y-87888888D01*
X166919344Y-88269168D01*
X166919585Y-88271736D01*
X166951364Y-88652716D01*
X166951552Y-88655290D01*
X166975400Y-89036882D01*
X166975534Y-89039458D01*
X166991439Y-89421466D01*
X166991519Y-89424044D01*
X166999472Y-89806252D01*
X166999499Y-89808832D01*
X166999499Y-90191167D01*
X166999472Y-90193747D01*
X166991519Y-90575955D01*
X166991439Y-90578533D01*
X166975534Y-90960541D01*
X166975400Y-90963117D01*
X166951552Y-91344709D01*
X166951364Y-91347283D01*
X166919585Y-91728263D01*
X166919344Y-91730831D01*
X166879641Y-92111111D01*
X166879346Y-92113674D01*
X166831746Y-92493010D01*
X166831398Y-92495566D01*
X166775916Y-92873829D01*
X166775515Y-92876378D01*
X166712180Y-93253380D01*
X166711727Y-93255919D01*
X166640547Y-93631607D01*
X166640040Y-93634137D01*
X166561073Y-94008198D01*
X166560514Y-94010717D01*
X166473773Y-94383090D01*
X166473161Y-94385596D01*
X166378708Y-94756025D01*
X166378045Y-94758518D01*
X166275890Y-95126961D01*
X166275175Y-95129439D01*
X166165381Y-95495663D01*
X166164615Y-95498126D01*
X166047237Y-95861954D01*
X166046419Y-95864401D01*
X165921492Y-96225723D01*
X165920624Y-96228153D01*
X165788184Y-96586859D01*
X165787265Y-96589269D01*
X165647422Y-96945066D01*
X165646453Y-96947458D01*
X165499226Y-97300295D01*
X165498208Y-97302665D01*
X165343673Y-97652365D01*
X165342606Y-97654714D01*
X165180838Y-98001104D01*
X165179722Y-98003430D01*
X165010765Y-98346413D01*
X165009601Y-98348715D01*
X164833545Y-98688113D01*
X164832333Y-98690390D01*
X164649276Y-99026013D01*
X164648030Y-99028242D01*
X164529775Y-99234716D01*
X164458013Y-99360012D01*
X164456708Y-99362236D01*
X164259845Y-99689958D01*
X164258494Y-99692156D01*
X164054829Y-100015753D01*
X164053432Y-100017922D01*
X163843086Y-100337200D01*
X163841656Y-100339322D01*
X163624696Y-100654182D01*
X163623239Y-100656251D01*
X163399823Y-100966461D01*
X163398294Y-100968538D01*
X163338340Y-101048234D01*
X163282308Y-101089973D01*
X163212605Y-101094793D01*
X163151361Y-101061163D01*
X163122207Y-101014643D01*
X163091402Y-100926606D01*
X162954926Y-100643211D01*
X162787577Y-100376877D01*
X162591461Y-100130956D01*
X162369044Y-99908539D01*
X162123123Y-99712423D01*
X161856789Y-99545074D01*
X161856786Y-99545072D01*
X161573395Y-99408598D01*
X161276501Y-99304711D01*
X161276499Y-99304710D01*
X160969843Y-99234718D01*
X160969827Y-99234716D01*
X160657277Y-99199500D01*
X160657273Y-99199500D01*
X160342727Y-99199500D01*
X160342722Y-99199500D01*
X160030172Y-99234716D01*
X160030156Y-99234718D01*
X159723500Y-99304710D01*
X159723498Y-99304711D01*
X159426604Y-99408598D01*
X159143213Y-99545072D01*
X158876878Y-99712422D01*
X158630956Y-99908538D01*
X158408538Y-100130956D01*
X158212422Y-100376878D01*
X158045072Y-100643213D01*
X157908598Y-100926604D01*
X157804711Y-101223498D01*
X157804710Y-101223500D01*
X157734718Y-101530156D01*
X157734716Y-101530172D01*
X157699500Y-101842722D01*
X157699500Y-102157277D01*
X157734716Y-102469827D01*
X157734718Y-102469843D01*
X157804710Y-102776499D01*
X157804711Y-102776501D01*
X157908598Y-103073395D01*
X158045072Y-103356786D01*
X158045074Y-103356789D01*
X158212423Y-103623123D01*
X158408539Y-103869044D01*
X158630956Y-104091461D01*
X158876877Y-104287577D01*
X159143211Y-104454926D01*
X159426606Y-104591402D01*
X159514693Y-104622224D01*
X159571468Y-104662945D01*
X159597216Y-104727898D01*
X159583760Y-104796460D01*
X159547248Y-104839127D01*
X159313006Y-105011559D01*
X159310913Y-105013067D01*
X158998340Y-105233281D01*
X158996215Y-105234745D01*
X158679165Y-105448385D01*
X158677011Y-105449804D01*
X158355583Y-105656803D01*
X158353400Y-105658177D01*
X158027736Y-105858443D01*
X158025524Y-105859772D01*
X157695737Y-106053237D01*
X157693499Y-106054519D01*
X157359799Y-106241058D01*
X157357534Y-106242293D01*
X157020004Y-106421862D01*
X157017714Y-106423050D01*
X156676505Y-106595565D01*
X156674190Y-106596705D01*
X156329524Y-106762056D01*
X156327187Y-106763148D01*
X155979057Y-106921339D01*
X155976698Y-106922381D01*
X155625468Y-107073246D01*
X155623086Y-107074240D01*
X155268730Y-107217790D01*
X155266329Y-107218734D01*
X154909052Y-107354885D01*
X154906633Y-107355778D01*
X154546612Y-107484465D01*
X154544173Y-107485308D01*
X154181571Y-107606469D01*
X154179116Y-107607261D01*
X153814071Y-107720854D01*
X153811599Y-107721595D01*
X153444239Y-107827576D01*
X153441754Y-107828265D01*
X153072327Y-107926567D01*
X153069827Y-107927205D01*
X152698356Y-108017820D01*
X152695843Y-108018405D01*
X152322633Y-108101256D01*
X152320109Y-108101789D01*
X151945211Y-108176868D01*
X151942676Y-108177348D01*
X151566321Y-108244606D01*
X151563778Y-108245033D01*
X151186137Y-108304444D01*
X151183584Y-108304819D01*
X150804719Y-108356369D01*
X150802159Y-108356690D01*
X150422354Y-108400342D01*
X150419788Y-108400610D01*
X150039116Y-108436354D01*
X150036545Y-108436568D01*
X149655265Y-108464381D01*
X149652691Y-108464542D01*
X149270913Y-108484418D01*
X149268335Y-108484526D01*
X148886137Y-108496457D01*
X148883558Y-108496510D01*
X148501290Y-108500487D01*
X148498710Y-108500487D01*
X148116441Y-108496510D01*
X148113862Y-108496457D01*
X147731664Y-108484526D01*
X147729086Y-108484418D01*
X147347308Y-108464542D01*
X147344734Y-108464381D01*
X146963454Y-108436568D01*
X146960883Y-108436354D01*
X146580211Y-108400610D01*
X146577645Y-108400342D01*
X146197840Y-108356690D01*
X146195280Y-108356369D01*
X145816415Y-108304819D01*
X145813862Y-108304444D01*
X145436221Y-108245033D01*
X145433678Y-108244606D01*
X145057323Y-108177348D01*
X145054788Y-108176868D01*
X144679890Y-108101789D01*
X144677366Y-108101256D01*
X144304156Y-108018405D01*
X144301643Y-108017820D01*
X143930172Y-107927205D01*
X143927672Y-107926567D01*
X143558245Y-107828265D01*
X143555760Y-107827576D01*
X143188400Y-107721595D01*
X143185942Y-107720858D01*
X143114083Y-107698497D01*
X142820883Y-107607261D01*
X142818428Y-107606469D01*
X142455826Y-107485308D01*
X142453387Y-107484465D01*
X142093366Y-107355778D01*
X142090947Y-107354885D01*
X141733670Y-107218734D01*
X141731269Y-107217790D01*
X141376913Y-107074240D01*
X141374567Y-107073261D01*
X141023301Y-106922381D01*
X141020942Y-106921339D01*
X140672812Y-106763148D01*
X140670475Y-106762056D01*
X140325809Y-106596705D01*
X140323494Y-106595565D01*
X139982285Y-106423050D01*
X139979995Y-106421862D01*
X139642465Y-106242293D01*
X139640225Y-106241071D01*
X139306500Y-106054519D01*
X139304262Y-106053237D01*
X138974475Y-105859772D01*
X138972263Y-105858443D01*
X138646599Y-105658177D01*
X138644416Y-105656803D01*
X138322988Y-105449804D01*
X138320834Y-105448385D01*
X138003784Y-105234745D01*
X138001659Y-105233281D01*
X137964897Y-105207381D01*
X137689053Y-105013043D01*
X137687028Y-105011584D01*
X137452749Y-104839126D01*
X137410430Y-104783532D01*
X137404886Y-104713883D01*
X137437877Y-104652292D01*
X137485304Y-104622225D01*
X137548582Y-104600083D01*
X137573392Y-104591403D01*
X137573392Y-104591402D01*
X137573394Y-104591402D01*
X137856789Y-104454926D01*
X138123123Y-104287577D01*
X138369044Y-104091461D01*
X138591461Y-103869044D01*
X138787577Y-103623123D01*
X138954926Y-103356789D01*
X139091402Y-103073394D01*
X139195289Y-102776500D01*
X139265282Y-102469840D01*
X139300500Y-102157273D01*
X139300500Y-101842727D01*
X139265282Y-101530160D01*
X139195289Y-101223500D01*
X139091402Y-100926606D01*
X138954926Y-100643211D01*
X138787577Y-100376877D01*
X138591461Y-100130956D01*
X138369044Y-99908539D01*
X138123123Y-99712423D01*
X137856789Y-99545074D01*
X137856786Y-99545072D01*
X137573395Y-99408598D01*
X137276501Y-99304711D01*
X137276499Y-99304710D01*
X136969843Y-99234718D01*
X136969827Y-99234716D01*
X136657277Y-99199500D01*
X136657273Y-99199500D01*
X136342727Y-99199500D01*
X136342722Y-99199500D01*
X136030172Y-99234716D01*
X136030156Y-99234718D01*
X135723500Y-99304710D01*
X135723498Y-99304711D01*
X135426604Y-99408598D01*
X135143213Y-99545072D01*
X134876878Y-99712422D01*
X134630956Y-99908538D01*
X134408538Y-100130956D01*
X134212422Y-100376878D01*
X134045072Y-100643213D01*
X133908597Y-100926606D01*
X133908594Y-100926613D01*
X133877791Y-101014644D01*
X133871861Y-101022911D01*
X133869722Y-101032859D01*
X133851840Y-101050824D01*
X133837069Y-101071420D01*
X133827610Y-101075169D01*
X133820434Y-101082380D01*
X133795680Y-101087826D01*
X133772117Y-101097167D01*
X133762133Y-101095207D01*
X133752196Y-101097394D01*
X133728427Y-101088592D01*
X133703555Y-101083711D01*
X133694469Y-101076017D01*
X133686674Y-101073131D01*
X133661659Y-101048234D01*
X133601705Y-100968538D01*
X133600200Y-100966494D01*
X133376697Y-100656161D01*
X133375347Y-100654246D01*
X133158298Y-100339257D01*
X133156913Y-100337200D01*
X132946567Y-100017922D01*
X132945170Y-100015753D01*
X132877691Y-99908538D01*
X132741471Y-99692101D01*
X132740189Y-99690015D01*
X132543275Y-99362209D01*
X132542025Y-99360079D01*
X132351928Y-99028170D01*
X132350754Y-99026069D01*
X132167666Y-98690390D01*
X132166454Y-98688113D01*
X131990398Y-98348715D01*
X131989234Y-98346413D01*
X131820277Y-98003430D01*
X131819180Y-98001145D01*
X131657345Y-97654609D01*
X131656358Y-97652435D01*
X131501775Y-97302628D01*
X131500773Y-97300295D01*
X131353527Y-96947413D01*
X131352595Y-96945112D01*
X131212718Y-96589228D01*
X131211815Y-96586859D01*
X131079359Y-96228109D01*
X131078523Y-96225770D01*
X130953571Y-95864376D01*
X130952790Y-95862038D01*
X130835373Y-95498090D01*
X130834618Y-95495664D01*
X130834618Y-95495663D01*
X130784943Y-95329972D01*
X130784547Y-95260106D01*
X130821988Y-95201114D01*
X130885378Y-95171729D01*
X130954591Y-95181280D01*
X130960016Y-95183880D01*
X131053588Y-95231557D01*
X131255757Y-95297246D01*
X131465713Y-95330500D01*
X131465714Y-95330500D01*
X131678286Y-95330500D01*
X131678287Y-95330500D01*
X131888243Y-95297246D01*
X132090412Y-95231557D01*
X132279816Y-95135051D01*
X132366147Y-95072328D01*
X132451784Y-95010110D01*
X132451784Y-95010109D01*
X132451792Y-95010104D01*
X132565329Y-94896566D01*
X132626648Y-94863084D01*
X132696340Y-94868068D01*
X132752274Y-94909939D01*
X132769189Y-94940917D01*
X132818202Y-95072328D01*
X132818206Y-95072335D01*
X132904452Y-95187544D01*
X132904455Y-95187547D01*
X133019664Y-95273793D01*
X133019671Y-95273797D01*
X133154517Y-95324091D01*
X133154516Y-95324091D01*
X133161444Y-95324835D01*
X133214127Y-95330500D01*
X135009872Y-95330499D01*
X135069483Y-95324091D01*
X135204331Y-95273796D01*
X135319546Y-95187546D01*
X135405796Y-95072331D01*
X135456091Y-94937483D01*
X135462500Y-94877873D01*
X135462499Y-93082128D01*
X135456091Y-93022517D01*
X135454810Y-93019083D01*
X135405797Y-92887671D01*
X135405793Y-92887664D01*
X135319547Y-92772455D01*
X135319544Y-92772452D01*
X135204335Y-92686206D01*
X135204328Y-92686202D01*
X135072917Y-92637189D01*
X135016983Y-92595318D01*
X134992566Y-92529853D01*
X135007418Y-92461580D01*
X135028563Y-92433332D01*
X135142104Y-92319792D01*
X135145297Y-92315398D01*
X135259965Y-92157569D01*
X135267051Y-92147816D01*
X135363557Y-91958412D01*
X135429246Y-91756243D01*
X135462500Y-91546287D01*
X135462500Y-91333713D01*
X135429246Y-91123757D01*
X135363557Y-90921588D01*
X135286215Y-90769795D01*
X135273319Y-90701125D01*
X135299595Y-90636385D01*
X135356702Y-90596128D01*
X135396700Y-90589500D01*
X137357167Y-90589500D01*
X137424206Y-90609185D01*
X137444848Y-90625819D01*
X141745540Y-94926511D01*
X141801489Y-94982460D01*
X141801491Y-94982461D01*
X141801495Y-94982464D01*
X141849370Y-95010104D01*
X141870011Y-95022021D01*
X141946438Y-95042500D01*
X141946440Y-95042500D01*
X150485560Y-95042500D01*
X150485562Y-95042500D01*
X150561989Y-95022021D01*
X150630511Y-94982460D01*
X150686460Y-94926511D01*
X152302719Y-93310250D01*
X152364040Y-93276767D01*
X152421705Y-93279086D01*
X152421820Y-93278510D01*
X152425479Y-93279237D01*
X152426401Y-93279275D01*
X152427790Y-93279696D01*
X152427795Y-93279698D01*
X152427799Y-93279698D01*
X152427800Y-93279699D01*
X152577615Y-93309499D01*
X152577619Y-93309500D01*
X152577620Y-93309500D01*
X152730381Y-93309500D01*
X152730382Y-93309499D01*
X152880205Y-93279698D01*
X153021337Y-93221239D01*
X153148352Y-93136370D01*
X153256370Y-93028352D01*
X153341239Y-92901337D01*
X153399698Y-92760205D01*
X153429500Y-92610380D01*
X153429500Y-92457620D01*
X153399698Y-92307795D01*
X153341239Y-92166663D01*
X153273106Y-92064695D01*
X153252228Y-91998018D01*
X153270712Y-91930638D01*
X153322691Y-91883947D01*
X153376208Y-91871804D01*
X159467471Y-91871804D01*
X159534510Y-91891489D01*
X159555152Y-91908123D01*
X159751747Y-92104718D01*
X159785232Y-92166041D01*
X159782916Y-92223707D01*
X159783490Y-92223821D01*
X159782766Y-92227459D01*
X159782729Y-92228387D01*
X159782301Y-92229797D01*
X159752500Y-92379616D01*
X159752500Y-92532384D01*
X159782300Y-92682197D01*
X159782302Y-92682205D01*
X159840759Y-92823334D01*
X159840764Y-92823343D01*
X159925629Y-92950351D01*
X159925632Y-92950355D01*
X160033644Y-93058367D01*
X160033648Y-93058370D01*
X160160656Y-93143235D01*
X160160662Y-93143238D01*
X160160663Y-93143239D01*
X160301795Y-93201698D01*
X160419274Y-93225066D01*
X160451615Y-93231499D01*
X160451619Y-93231500D01*
X160451620Y-93231500D01*
X160604381Y-93231500D01*
X160604382Y-93231499D01*
X160754205Y-93201698D01*
X160895337Y-93143239D01*
X161022352Y-93058370D01*
X161130370Y-92950352D01*
X161215239Y-92823337D01*
X161273698Y-92682205D01*
X161303500Y-92532380D01*
X161303500Y-92379620D01*
X161273698Y-92229795D01*
X161215239Y-92088663D01*
X161215238Y-92088662D01*
X161215235Y-92088656D01*
X161130370Y-91961648D01*
X161130367Y-91961644D01*
X161022355Y-91853632D01*
X161022351Y-91853629D01*
X160895343Y-91768764D01*
X160895334Y-91768759D01*
X160754205Y-91710302D01*
X160754197Y-91710300D01*
X160604384Y-91680500D01*
X160604380Y-91680500D01*
X160451620Y-91680500D01*
X160451616Y-91680500D01*
X160301797Y-91710301D01*
X160300387Y-91710729D01*
X160299612Y-91710735D01*
X160295821Y-91711490D01*
X160295677Y-91710770D01*
X160230520Y-91711348D01*
X160176718Y-91679747D01*
X159827817Y-91330846D01*
X159827815Y-91330844D01*
X159817279Y-91324761D01*
X159759295Y-91291284D01*
X159759294Y-91291283D01*
X159733817Y-91284456D01*
X159682866Y-91270804D01*
X159682864Y-91270804D01*
X152485834Y-91270804D01*
X152485209Y-91270620D01*
X152484583Y-91270798D01*
X152451680Y-91260775D01*
X152418795Y-91251119D01*
X152418369Y-91250628D01*
X152417745Y-91250438D01*
X152395472Y-91224203D01*
X152373040Y-91198315D01*
X152372947Y-91197671D01*
X152372526Y-91197175D01*
X152367980Y-91163126D01*
X152363096Y-91129157D01*
X152363337Y-91128349D01*
X152363280Y-91127919D01*
X152364417Y-91124737D01*
X152373565Y-91094157D01*
X152376080Y-91088793D01*
X152401744Y-91045398D01*
X152410398Y-91015610D01*
X152414505Y-91006853D01*
X152431498Y-90987636D01*
X152445303Y-90966020D01*
X152454258Y-90961899D01*
X152460790Y-90954513D01*
X152485474Y-90947534D01*
X152508775Y-90936813D01*
X152526774Y-90935500D01*
X158578560Y-90935500D01*
X158578562Y-90935500D01*
X158654989Y-90915021D01*
X158723511Y-90875460D01*
X158779460Y-90819511D01*
X159981062Y-89617907D01*
X160042383Y-89584424D01*
X160112074Y-89589408D01*
X160168008Y-89631279D01*
X160171842Y-89636698D01*
X160179627Y-89648349D01*
X160179632Y-89648355D01*
X160287644Y-89756367D01*
X160287648Y-89756370D01*
X160414656Y-89841235D01*
X160414662Y-89841238D01*
X160414663Y-89841239D01*
X160555795Y-89899698D01*
X160679498Y-89924304D01*
X160705615Y-89929499D01*
X160705619Y-89929500D01*
X160705620Y-89929500D01*
X160858381Y-89929500D01*
X160858382Y-89929499D01*
X161008205Y-89899698D01*
X161149337Y-89841239D01*
X161276352Y-89756370D01*
X161384370Y-89648352D01*
X161469239Y-89521337D01*
X161527698Y-89380205D01*
X161557500Y-89230380D01*
X161557500Y-89077620D01*
X161527698Y-88927795D01*
X161469239Y-88786663D01*
X161469238Y-88786662D01*
X161469235Y-88786656D01*
X161384370Y-88659648D01*
X161384367Y-88659644D01*
X161276355Y-88551632D01*
X161276351Y-88551629D01*
X161149343Y-88466764D01*
X161149334Y-88466759D01*
X161008205Y-88408302D01*
X161008197Y-88408300D01*
X160858384Y-88378500D01*
X160858380Y-88378500D01*
X160705620Y-88378500D01*
X160705615Y-88378500D01*
X160555802Y-88408300D01*
X160555794Y-88408302D01*
X160414665Y-88466759D01*
X160414656Y-88466764D01*
X160287648Y-88551629D01*
X160287644Y-88551632D01*
X160179629Y-88659647D01*
X160094756Y-88786670D01*
X160094067Y-88787960D01*
X160093528Y-88788508D01*
X160091377Y-88791728D01*
X160090766Y-88791319D01*
X160045102Y-88837801D01*
X160005310Y-88851777D01*
X159995081Y-88853500D01*
X159980438Y-88853500D01*
X159955652Y-88860141D01*
X159949837Y-88861121D01*
X159920761Y-88857653D01*
X159891482Y-88856956D01*
X159886468Y-88853562D01*
X159880459Y-88852846D01*
X159857877Y-88834211D01*
X159833620Y-88817793D01*
X159831236Y-88812226D01*
X159826569Y-88808375D01*
X159817645Y-88780487D01*
X159806117Y-88753564D01*
X159807120Y-88747594D01*
X159805276Y-88741829D01*
X159812847Y-88713539D01*
X159817704Y-88684662D01*
X159822306Y-88678198D01*
X159823341Y-88674335D01*
X159828215Y-88669901D01*
X159841561Y-88651161D01*
X159860368Y-88632354D01*
X159860370Y-88632352D01*
X159945239Y-88505337D01*
X160003698Y-88364205D01*
X160033500Y-88214380D01*
X160033500Y-88061620D01*
X160003698Y-87911795D01*
X159945239Y-87770663D01*
X159945238Y-87770662D01*
X159945235Y-87770656D01*
X159860370Y-87643648D01*
X159860367Y-87643644D01*
X159752355Y-87535632D01*
X159752351Y-87535629D01*
X159625343Y-87450764D01*
X159625334Y-87450759D01*
X159484205Y-87392302D01*
X159484197Y-87392300D01*
X159334384Y-87362500D01*
X159334380Y-87362500D01*
X159181620Y-87362500D01*
X159181615Y-87362500D01*
X159031802Y-87392300D01*
X159031794Y-87392302D01*
X158890665Y-87450759D01*
X158890656Y-87450764D01*
X158763648Y-87535629D01*
X158763644Y-87535632D01*
X158655632Y-87643644D01*
X158655629Y-87643648D01*
X158570764Y-87770656D01*
X158570759Y-87770665D01*
X158512302Y-87911794D01*
X158512300Y-87911802D01*
X158482500Y-88061615D01*
X158482500Y-88214384D01*
X158512301Y-88364204D01*
X158512730Y-88365618D01*
X158512736Y-88366393D01*
X158513490Y-88370180D01*
X158512771Y-88370322D01*
X158513345Y-88435485D01*
X158481746Y-88489281D01*
X157942848Y-89028181D01*
X157881525Y-89061666D01*
X157855167Y-89064500D01*
X153321100Y-89064500D01*
X153254061Y-89044815D01*
X153208306Y-88992011D01*
X153198362Y-88922853D01*
X153227387Y-88859297D01*
X153270154Y-88828458D01*
X153269967Y-88828109D01*
X153272564Y-88826720D01*
X153273650Y-88825938D01*
X153274071Y-88825763D01*
X153275337Y-88825239D01*
X153402352Y-88740370D01*
X153510370Y-88632352D01*
X153595239Y-88505337D01*
X153653698Y-88364205D01*
X153683500Y-88214380D01*
X153683500Y-88061620D01*
X153653698Y-87911795D01*
X153595239Y-87770663D01*
X153595238Y-87770662D01*
X153595235Y-87770656D01*
X153510370Y-87643648D01*
X153510367Y-87643644D01*
X153402355Y-87535632D01*
X153402351Y-87535629D01*
X153275343Y-87450764D01*
X153275334Y-87450759D01*
X153134205Y-87392302D01*
X153134197Y-87392300D01*
X152984384Y-87362500D01*
X152984380Y-87362500D01*
X152831620Y-87362500D01*
X152831615Y-87362500D01*
X152681802Y-87392300D01*
X152681794Y-87392302D01*
X152540665Y-87450759D01*
X152540656Y-87450764D01*
X152436475Y-87520377D01*
X152369798Y-87541255D01*
X152302417Y-87522771D01*
X152279903Y-87504956D01*
X152201870Y-87426923D01*
X152201862Y-87426917D01*
X152060396Y-87343255D01*
X152060393Y-87343254D01*
X151902573Y-87297402D01*
X151902567Y-87297401D01*
X151865701Y-87294500D01*
X151865694Y-87294500D01*
X150284306Y-87294500D01*
X150284298Y-87294500D01*
X150247436Y-87297401D01*
X150247431Y-87297402D01*
X150215746Y-87306606D01*
X150145879Y-87306407D01*
X150105454Y-87284957D01*
X150105417Y-87285014D01*
X150104864Y-87284644D01*
X150102492Y-87283386D01*
X150100350Y-87281628D01*
X149973343Y-87196764D01*
X149973334Y-87196759D01*
X149832205Y-87138302D01*
X149832197Y-87138300D01*
X149682384Y-87108500D01*
X149682380Y-87108500D01*
X149529620Y-87108500D01*
X149529616Y-87108500D01*
X149379797Y-87138301D01*
X149378387Y-87138729D01*
X149377612Y-87138735D01*
X149373821Y-87139490D01*
X149373677Y-87138770D01*
X149308520Y-87139348D01*
X149254718Y-87107747D01*
X148915974Y-86769003D01*
X148882489Y-86707680D01*
X148887473Y-86637988D01*
X148929345Y-86582055D01*
X148994809Y-86557638D01*
X149051105Y-86566760D01*
X149125795Y-86597698D01*
X149275615Y-86627499D01*
X149275619Y-86627500D01*
X149275620Y-86627500D01*
X149428381Y-86627500D01*
X149428382Y-86627499D01*
X149578205Y-86597698D01*
X149719337Y-86539239D01*
X149846352Y-86454370D01*
X149954370Y-86346352D01*
X150039239Y-86219337D01*
X150097698Y-86078205D01*
X150127500Y-85928380D01*
X150127500Y-85775620D01*
X150097698Y-85625795D01*
X150039239Y-85484663D01*
X150039238Y-85484662D01*
X150039235Y-85484656D01*
X149954370Y-85357648D01*
X149954367Y-85357644D01*
X149846355Y-85249632D01*
X149846351Y-85249629D01*
X149719343Y-85164764D01*
X149719334Y-85164759D01*
X149578205Y-85106302D01*
X149578197Y-85106300D01*
X149428384Y-85076500D01*
X149428380Y-85076500D01*
X149275620Y-85076500D01*
X149275616Y-85076500D01*
X149125797Y-85106301D01*
X149124387Y-85106729D01*
X149123612Y-85106735D01*
X149119821Y-85107490D01*
X149119677Y-85106770D01*
X149054520Y-85107348D01*
X149000718Y-85075747D01*
X148374512Y-84449541D01*
X148374504Y-84449535D01*
X148305995Y-84409982D01*
X148305990Y-84409979D01*
X148280513Y-84403152D01*
X148229562Y-84389500D01*
X133281562Y-84389500D01*
X133202438Y-84389500D01*
X133126010Y-84409978D01*
X133057489Y-84449540D01*
X133057486Y-84449542D01*
X132358268Y-85148759D01*
X132296945Y-85182244D01*
X132227253Y-85177260D01*
X132214292Y-85171563D01*
X132210386Y-85169573D01*
X132090412Y-85108443D01*
X131888243Y-85042754D01*
X131888241Y-85042753D01*
X131888240Y-85042753D01*
X131726957Y-85017208D01*
X131678287Y-85009500D01*
X131465713Y-85009500D01*
X131417042Y-85017208D01*
X131255760Y-85042753D01*
X131255757Y-85042754D01*
X131060184Y-85106300D01*
X131053585Y-85108444D01*
X130864178Y-85204951D01*
X130860760Y-85207435D01*
X130833516Y-85217151D01*
X130807390Y-85229564D01*
X130801009Y-85228744D01*
X130794950Y-85230906D01*
X130766778Y-85224350D01*
X130738089Y-85220668D01*
X130733163Y-85216528D01*
X130726898Y-85215071D01*
X130706740Y-85194323D01*
X130684599Y-85175717D01*
X130682693Y-85169573D01*
X130678210Y-85164959D01*
X130672468Y-85136605D01*
X130663902Y-85108983D01*
X130665055Y-85099994D01*
X130664344Y-85096479D01*
X130668393Y-85073987D01*
X130724128Y-84872971D01*
X130724804Y-84870626D01*
X130834619Y-84504331D01*
X130835364Y-84501935D01*
X130952799Y-84137933D01*
X130953561Y-84135652D01*
X131078534Y-83774198D01*
X131079348Y-83771920D01*
X131211841Y-83413069D01*
X131212705Y-83410804D01*
X131352609Y-83054853D01*
X131353513Y-83052620D01*
X131500803Y-82699633D01*
X131501759Y-82697406D01*
X131656374Y-82347527D01*
X131657328Y-82345426D01*
X131819198Y-81998817D01*
X131820256Y-81996611D01*
X131989234Y-81653584D01*
X131990398Y-81651284D01*
X132166473Y-81311848D01*
X132167645Y-81309648D01*
X132350777Y-80973888D01*
X132351905Y-80971869D01*
X132542049Y-80639878D01*
X132543250Y-80637832D01*
X132740216Y-80309940D01*
X132741445Y-80307940D01*
X132945191Y-79984212D01*
X132946545Y-79982110D01*
X133156955Y-79662735D01*
X133158268Y-79660786D01*
X133375378Y-79345708D01*
X133376664Y-79343883D01*
X133600234Y-79033458D01*
X133601667Y-79031511D01*
X133661661Y-78951762D01*
X133717690Y-78910025D01*
X133787394Y-78905205D01*
X133848638Y-78938835D01*
X133877792Y-78985355D01*
X133908598Y-79073395D01*
X134045072Y-79356786D01*
X134045074Y-79356789D01*
X134212423Y-79623123D01*
X134408539Y-79869044D01*
X134630956Y-80091461D01*
X134876877Y-80287577D01*
X135143211Y-80454926D01*
X135426606Y-80591402D01*
X135723500Y-80695289D01*
X136030160Y-80765282D01*
X136342723Y-80800499D01*
X136342724Y-80800500D01*
X136342727Y-80800500D01*
X136657276Y-80800500D01*
X136657276Y-80800499D01*
X136969840Y-80765282D01*
X137276500Y-80695289D01*
X137573394Y-80591402D01*
X137856789Y-80454926D01*
X138123123Y-80287577D01*
X138369044Y-80091461D01*
X138591461Y-79869044D01*
X138787577Y-79623123D01*
X138954926Y-79356789D01*
X139091402Y-79073394D01*
X139195289Y-78776500D01*
X139265282Y-78469840D01*
X139300500Y-78157273D01*
X139300500Y-77842727D01*
X139265282Y-77530160D01*
X139195289Y-77223500D01*
X139091402Y-76926606D01*
X138954926Y-76643211D01*
X138787577Y-76376877D01*
X138591461Y-76130956D01*
X138369044Y-75908539D01*
X138123123Y-75712423D01*
X137856789Y-75545074D01*
X137856786Y-75545072D01*
X137573395Y-75408598D01*
X137485307Y-75377775D01*
X137428530Y-75337053D01*
X137402783Y-75272100D01*
X137416239Y-75203539D01*
X137452751Y-75160872D01*
X137687092Y-74988368D01*
X137688990Y-74987000D01*
X138001718Y-74766676D01*
X138003722Y-74765296D01*
X138320899Y-74551570D01*
X138322922Y-74550238D01*
X138644486Y-74343151D01*
X138646528Y-74341866D01*
X138972288Y-74141540D01*
X138974450Y-74140241D01*
X139304283Y-73946749D01*
X139306438Y-73945515D01*
X139640298Y-73758887D01*
X139642407Y-73757737D01*
X139980077Y-73578094D01*
X139982203Y-73576991D01*
X140323559Y-73404401D01*
X140325741Y-73403327D01*
X140670511Y-73237925D01*
X140672777Y-73236866D01*
X141020986Y-73078640D01*
X141023221Y-73077653D01*
X141374649Y-72926703D01*
X141376830Y-72925793D01*
X141731333Y-72782183D01*
X141733607Y-72781289D01*
X142090971Y-72645104D01*
X142093342Y-72644229D01*
X142453471Y-72515504D01*
X142455739Y-72514720D01*
X142818456Y-72393520D01*
X142820854Y-72392747D01*
X143186030Y-72279114D01*
X143188323Y-72278426D01*
X143555760Y-72172423D01*
X143558222Y-72171740D01*
X143927715Y-72073420D01*
X143930132Y-72072804D01*
X144301710Y-71982163D01*
X144304088Y-71981609D01*
X144677390Y-71898737D01*
X144679865Y-71898215D01*
X145054854Y-71823118D01*
X145057255Y-71822663D01*
X145433694Y-71755390D01*
X145436206Y-71754968D01*
X145813911Y-71695547D01*
X145816367Y-71695186D01*
X146195329Y-71643623D01*
X146197791Y-71643315D01*
X146577732Y-71599647D01*
X146580125Y-71599397D01*
X146960938Y-71563640D01*
X146963397Y-71563435D01*
X147344764Y-71535616D01*
X147347278Y-71535458D01*
X147729161Y-71515577D01*
X147731592Y-71515475D01*
X148113887Y-71503541D01*
X148116415Y-71503489D01*
X148498750Y-71499513D01*
X148501250Y-71499513D01*
X148883582Y-71503489D01*
G37*
%TD.AperFunction*%
%TA.AperFunction,Conductor*%
G36*
X147401435Y-87696185D02*
G01*
X147422077Y-87712819D01*
X149314718Y-89605460D01*
X149374058Y-89639720D01*
X149383237Y-89645020D01*
X149383241Y-89645022D01*
X149459667Y-89665500D01*
X149623226Y-89665500D01*
X149648745Y-89672993D01*
X149675066Y-89676856D01*
X149681754Y-89682686D01*
X149690265Y-89685185D01*
X149707681Y-89705285D01*
X149727736Y-89722765D01*
X149733116Y-89734638D01*
X149736020Y-89737989D01*
X149742302Y-89754907D01*
X149742304Y-89754912D01*
X149747377Y-89772377D01*
X149747174Y-89842246D01*
X149709229Y-89900914D01*
X149652494Y-89928582D01*
X149633796Y-89932301D01*
X149633794Y-89932302D01*
X149492665Y-89990759D01*
X149492656Y-89990764D01*
X149365648Y-90075629D01*
X149365644Y-90075632D01*
X149257632Y-90183644D01*
X149257629Y-90183648D01*
X149172764Y-90310656D01*
X149172759Y-90310665D01*
X149114302Y-90451794D01*
X149114300Y-90451802D01*
X149084500Y-90601615D01*
X149084500Y-90754384D01*
X149114300Y-90904197D01*
X149114302Y-90904205D01*
X149173925Y-91048148D01*
X149181394Y-91117618D01*
X149150119Y-91180097D01*
X149106817Y-91210162D01*
X148984666Y-91260759D01*
X148984656Y-91260764D01*
X148857648Y-91345629D01*
X148857644Y-91345632D01*
X148749632Y-91453644D01*
X148749629Y-91453648D01*
X148664764Y-91580656D01*
X148664759Y-91580665D01*
X148606302Y-91721794D01*
X148606300Y-91721802D01*
X148576500Y-91871615D01*
X148576500Y-92024384D01*
X148606300Y-92174197D01*
X148606302Y-92174205D01*
X148664759Y-92315334D01*
X148664764Y-92315343D01*
X148749629Y-92442351D01*
X148749632Y-92442355D01*
X148857644Y-92550367D01*
X148857648Y-92550370D01*
X148984656Y-92635235D01*
X148984665Y-92635240D01*
X148992671Y-92638556D01*
X149125795Y-92693698D01*
X149275615Y-92723499D01*
X149275619Y-92723500D01*
X149275620Y-92723500D01*
X149428381Y-92723500D01*
X149428382Y-92723499D01*
X149578205Y-92693698D01*
X149719337Y-92635239D01*
X149811246Y-92573826D01*
X149877923Y-92552949D01*
X149943258Y-92570197D01*
X149949396Y-92573827D01*
X150089602Y-92656744D01*
X150131224Y-92668836D01*
X150247426Y-92702597D01*
X150247429Y-92702597D01*
X150247431Y-92702598D01*
X150284306Y-92705500D01*
X150284314Y-92705500D01*
X151758166Y-92705500D01*
X151825205Y-92725185D01*
X151870960Y-92777989D01*
X151880904Y-92847147D01*
X151851879Y-92910703D01*
X151845847Y-92917181D01*
X150357848Y-94405181D01*
X150296525Y-94438666D01*
X150270167Y-94441500D01*
X147375289Y-94441500D01*
X147308250Y-94421815D01*
X147262495Y-94369011D01*
X147252551Y-94299853D01*
X147281576Y-94236297D01*
X147327836Y-94202939D01*
X147433337Y-94159239D01*
X147560352Y-94074370D01*
X147668370Y-93966352D01*
X147753239Y-93839337D01*
X147811698Y-93698205D01*
X147841500Y-93548380D01*
X147841500Y-93395620D01*
X147811698Y-93245795D01*
X147753239Y-93104663D01*
X147753238Y-93104662D01*
X147753235Y-93104656D01*
X147668370Y-92977648D01*
X147668367Y-92977644D01*
X147560359Y-92869636D01*
X147560355Y-92869633D01*
X147560352Y-92869630D01*
X147521606Y-92843740D01*
X147516517Y-92837650D01*
X147509297Y-92834353D01*
X147494432Y-92811222D01*
X147476803Y-92790127D01*
X147474851Y-92780754D01*
X147471523Y-92775575D01*
X147466500Y-92740640D01*
X147466500Y-92518729D01*
X147466501Y-92518716D01*
X147466501Y-92403274D01*
X147460163Y-92379620D01*
X147439207Y-92301413D01*
X147386480Y-92210087D01*
X147362090Y-92185697D01*
X147336818Y-92160424D01*
X147303334Y-92099101D01*
X147300500Y-92072744D01*
X147300500Y-91689313D01*
X147300499Y-91689298D01*
X147300261Y-91686279D01*
X147297598Y-91652431D01*
X147280231Y-91592655D01*
X147251745Y-91494606D01*
X147251744Y-91494603D01*
X147251744Y-91494602D01*
X147168081Y-91353135D01*
X147168078Y-91353132D01*
X147163298Y-91346969D01*
X147165750Y-91345066D01*
X147139155Y-91296421D01*
X147144104Y-91226726D01*
X147164940Y-91194304D01*
X147163298Y-91193031D01*
X147168075Y-91186870D01*
X147168081Y-91186865D01*
X147251744Y-91045398D01*
X147285505Y-90929191D01*
X147297597Y-90887573D01*
X147297598Y-90887567D01*
X147300500Y-90850694D01*
X147300500Y-90419306D01*
X147297598Y-90382431D01*
X147289622Y-90354979D01*
X147251745Y-90224606D01*
X147251744Y-90224603D01*
X147251744Y-90224602D01*
X147168081Y-90083135D01*
X147168078Y-90083132D01*
X147163298Y-90076969D01*
X147165750Y-90075066D01*
X147139155Y-90026421D01*
X147144104Y-89956726D01*
X147164940Y-89924304D01*
X147163298Y-89923031D01*
X147168075Y-89916870D01*
X147168081Y-89916865D01*
X147251744Y-89775398D01*
X147288655Y-89648351D01*
X147297597Y-89617573D01*
X147297598Y-89617567D01*
X147298365Y-89607820D01*
X147300500Y-89580694D01*
X147300500Y-89149306D01*
X147297598Y-89112431D01*
X147289623Y-89084982D01*
X147251745Y-88954606D01*
X147251744Y-88954603D01*
X147251744Y-88954602D01*
X147168081Y-88813135D01*
X147168079Y-88813133D01*
X147168076Y-88813129D01*
X147051870Y-88696923D01*
X147051862Y-88696917D01*
X146967228Y-88646865D01*
X146910398Y-88613256D01*
X146910397Y-88613255D01*
X146910396Y-88613255D01*
X146910393Y-88613254D01*
X146752573Y-88567402D01*
X146752567Y-88567401D01*
X146715701Y-88564500D01*
X146715694Y-88564500D01*
X145134306Y-88564500D01*
X145134298Y-88564500D01*
X145097432Y-88567401D01*
X145097426Y-88567402D01*
X144939606Y-88613254D01*
X144939603Y-88613255D01*
X144798137Y-88696917D01*
X144798129Y-88696923D01*
X144681923Y-88813129D01*
X144681917Y-88813137D01*
X144598255Y-88954603D01*
X144592303Y-88975093D01*
X144554697Y-89033980D01*
X144491225Y-89063187D01*
X144473226Y-89064500D01*
X142751438Y-89064500D01*
X142713224Y-89074739D01*
X142675009Y-89084979D01*
X142675004Y-89084982D01*
X142606495Y-89124535D01*
X142606487Y-89124541D01*
X141067281Y-90663746D01*
X141005958Y-90697231D01*
X140948293Y-90694917D01*
X140948180Y-90695490D01*
X140944546Y-90694767D01*
X140943618Y-90694730D01*
X140942204Y-90694301D01*
X140792384Y-90664500D01*
X140792380Y-90664500D01*
X140639620Y-90664500D01*
X140639615Y-90664500D01*
X140489802Y-90694300D01*
X140489794Y-90694302D01*
X140348665Y-90752759D01*
X140348656Y-90752764D01*
X140221648Y-90837629D01*
X140221644Y-90837632D01*
X140113632Y-90945644D01*
X140113629Y-90945648D01*
X140028764Y-91072656D01*
X140028759Y-91072665D01*
X139970302Y-91213794D01*
X139970300Y-91213802D01*
X139940500Y-91363615D01*
X139940500Y-91516384D01*
X139970300Y-91666197D01*
X139970302Y-91666205D01*
X140028759Y-91807334D01*
X140028764Y-91807343D01*
X140113629Y-91934351D01*
X140113632Y-91934355D01*
X140221644Y-92042367D01*
X140221648Y-92042370D01*
X140348656Y-92127235D01*
X140348662Y-92127238D01*
X140348663Y-92127239D01*
X140489795Y-92185698D01*
X140562271Y-92200114D01*
X140609892Y-92209587D01*
X140671803Y-92241972D01*
X140706377Y-92302687D01*
X140707318Y-92355395D01*
X140702500Y-92379615D01*
X140702500Y-92532384D01*
X140732300Y-92682197D01*
X140732302Y-92682205D01*
X140763238Y-92756891D01*
X140770707Y-92826361D01*
X140739432Y-92888840D01*
X140679343Y-92924492D01*
X140609518Y-92921998D01*
X140560996Y-92892025D01*
X137717510Y-90048539D01*
X137704123Y-90040810D01*
X137690735Y-90033081D01*
X137669862Y-90021030D01*
X137648990Y-90008979D01*
X137623513Y-90002152D01*
X137572562Y-89988500D01*
X132692758Y-89988500D01*
X132625719Y-89968815D01*
X132579964Y-89916011D01*
X132570020Y-89846853D01*
X132598954Y-89783494D01*
X132598947Y-89783488D01*
X132598970Y-89783460D01*
X132599045Y-89783297D01*
X132599833Y-89782449D01*
X132602109Y-89779786D01*
X132719965Y-89617569D01*
X132727051Y-89607816D01*
X132823557Y-89418412D01*
X132889246Y-89216243D01*
X132922500Y-89006287D01*
X132922500Y-88793713D01*
X132889246Y-88583757D01*
X132823557Y-88381588D01*
X132823555Y-88381584D01*
X132823555Y-88381583D01*
X132767585Y-88271737D01*
X132760435Y-88257705D01*
X132755873Y-88233416D01*
X132747236Y-88210256D01*
X132749537Y-88199677D01*
X132747539Y-88189037D01*
X132756833Y-88166136D01*
X132762088Y-88141983D01*
X132772023Y-88128710D01*
X132773815Y-88124297D01*
X132783220Y-88113749D01*
X132930153Y-87966816D01*
X132991476Y-87933334D01*
X133017833Y-87930500D01*
X136437560Y-87930500D01*
X136437562Y-87930500D01*
X136513989Y-87910021D01*
X136582511Y-87870460D01*
X136638460Y-87814511D01*
X136740152Y-87712819D01*
X136801475Y-87679334D01*
X136827833Y-87676500D01*
X147334396Y-87676500D01*
X147401435Y-87696185D01*
G37*
%TD.AperFunction*%
%TD*%
%TA.AperFunction,NonConductor*%
G36*
X148081206Y-85010185D02*
G01*
X148101848Y-85026819D01*
X148575747Y-85500718D01*
X148609232Y-85562041D01*
X148606916Y-85619707D01*
X148607490Y-85619821D01*
X148606766Y-85623459D01*
X148606729Y-85624387D01*
X148606301Y-85625797D01*
X148576500Y-85775616D01*
X148576500Y-85928384D01*
X148606300Y-86078197D01*
X148606302Y-86078205D01*
X148637238Y-86152891D01*
X148644707Y-86222361D01*
X148613432Y-86284840D01*
X148553343Y-86320492D01*
X148483518Y-86317998D01*
X148434996Y-86288025D01*
X148266512Y-86119541D01*
X148266511Y-86119540D01*
X148229538Y-86098194D01*
X148229538Y-86098193D01*
X148229534Y-86098192D01*
X148218527Y-86091836D01*
X148197990Y-86079979D01*
X148197991Y-86079979D01*
X148159775Y-86069739D01*
X148121562Y-86059500D01*
X148121560Y-86059500D01*
X135524452Y-86059500D01*
X135457413Y-86039815D01*
X135411658Y-85987011D01*
X135406521Y-85973818D01*
X135363557Y-85841588D01*
X135267051Y-85652184D01*
X135267049Y-85652181D01*
X135267048Y-85652179D01*
X135142109Y-85480213D01*
X134991790Y-85329894D01*
X134991785Y-85329890D01*
X134833401Y-85214818D01*
X134790735Y-85159489D01*
X134784756Y-85089875D01*
X134817361Y-85028080D01*
X134878200Y-84993723D01*
X134906286Y-84990500D01*
X148014167Y-84990500D01*
X148081206Y-85010185D01*
G37*
%TD.AperFunction*%
%TA.AperFunction,NonConductor*%
G36*
X147973206Y-86680185D02*
G01*
X147993848Y-86696819D01*
X148829747Y-87532718D01*
X148863232Y-87594041D01*
X148860916Y-87651707D01*
X148861490Y-87651821D01*
X148860766Y-87655459D01*
X148860729Y-87656387D01*
X148860301Y-87657797D01*
X148830500Y-87807616D01*
X148830500Y-87966472D01*
X148829345Y-87966472D01*
X148817480Y-88029030D01*
X148769414Y-88079739D01*
X148701562Y-88096411D01*
X148635468Y-88073754D01*
X148619416Y-88060216D01*
X147694741Y-87135541D01*
X147694733Y-87135535D01*
X147626224Y-87095982D01*
X147626219Y-87095979D01*
X147600742Y-87089152D01*
X147549791Y-87075500D01*
X136612438Y-87075500D01*
X136574224Y-87085739D01*
X136536009Y-87095979D01*
X136536004Y-87095982D01*
X136467495Y-87135535D01*
X136467487Y-87135541D01*
X136309848Y-87293181D01*
X136248525Y-87326666D01*
X136222167Y-87329500D01*
X135320291Y-87329500D01*
X135253252Y-87309815D01*
X135207497Y-87257011D01*
X135197553Y-87187853D01*
X135219973Y-87132615D01*
X135267048Y-87067820D01*
X135267047Y-87067820D01*
X135267051Y-87067816D01*
X135363557Y-86878412D01*
X135406521Y-86746181D01*
X135445959Y-86688506D01*
X135510317Y-86661308D01*
X135524452Y-86660500D01*
X147906167Y-86660500D01*
X147973206Y-86680185D01*
G37*
%TD.AperFunction*%
%TA.AperFunction,NonConductor*%
G36*
X130377402Y-87056921D02*
G01*
X130436073Y-87094862D01*
X130442448Y-87102914D01*
X130541890Y-87239785D01*
X130541894Y-87239790D01*
X130692213Y-87390109D01*
X130864182Y-87515050D01*
X130872946Y-87519516D01*
X130923742Y-87567491D01*
X130940536Y-87635312D01*
X130917998Y-87701447D01*
X130872946Y-87740484D01*
X130864182Y-87744949D01*
X130692213Y-87869890D01*
X130541890Y-88020213D01*
X130416951Y-88192179D01*
X130320444Y-88381584D01*
X130315554Y-88396636D01*
X130303624Y-88414081D01*
X130296005Y-88433795D01*
X130284297Y-88442345D01*
X130276115Y-88454311D01*
X130256648Y-88462537D01*
X130239580Y-88475003D01*
X130225108Y-88475866D01*
X130211756Y-88481509D01*
X130190930Y-88477904D01*
X130169835Y-88479163D01*
X130157195Y-88472066D01*
X130142910Y-88469594D01*
X130127338Y-88455302D01*
X130108912Y-88444956D01*
X130102115Y-88432152D01*
X130091435Y-88422349D01*
X130086062Y-88401907D01*
X130076154Y-88383241D01*
X130074685Y-88358622D01*
X130073674Y-88354775D01*
X130074052Y-88348010D01*
X130080414Y-88271737D01*
X130080414Y-88271736D01*
X130080655Y-88269168D01*
X130095320Y-88128710D01*
X130120360Y-87888865D01*
X130120653Y-87886325D01*
X130168262Y-87506917D01*
X130168591Y-87504506D01*
X130219444Y-87157801D01*
X130248648Y-87094331D01*
X130307533Y-87056723D01*
X130377402Y-87056921D01*
G37*
%TD.AperFunction*%
%TA.AperFunction,NonConductor*%
G36*
X159690839Y-88876566D02*
G01*
X159726492Y-88936655D01*
X159723999Y-89006480D01*
X159694025Y-89055003D01*
X158450848Y-90298181D01*
X158389525Y-90331666D01*
X158363167Y-90334500D01*
X152526774Y-90334500D01*
X152459735Y-90314815D01*
X152413980Y-90262011D01*
X152407697Y-90245093D01*
X152401744Y-90224603D01*
X152401744Y-90224602D01*
X152318081Y-90083135D01*
X152318078Y-90083132D01*
X152313298Y-90076969D01*
X152315750Y-90075066D01*
X152289155Y-90026421D01*
X152294104Y-89956726D01*
X152301808Y-89939969D01*
X152310268Y-89924677D01*
X152318081Y-89916865D01*
X152401744Y-89775398D01*
X152411564Y-89741595D01*
X152418274Y-89729469D01*
X152433657Y-89714255D01*
X152445303Y-89696020D01*
X152458008Y-89690173D01*
X152467953Y-89680339D01*
X152489119Y-89675857D01*
X152508775Y-89666813D01*
X152526774Y-89665500D01*
X158070560Y-89665500D01*
X158070562Y-89665500D01*
X158146989Y-89645021D01*
X158215511Y-89605460D01*
X158271460Y-89549511D01*
X158906719Y-88914250D01*
X158968040Y-88880767D01*
X159025705Y-88883086D01*
X159025820Y-88882510D01*
X159029479Y-88883237D01*
X159030401Y-88883275D01*
X159031790Y-88883696D01*
X159031795Y-88883698D01*
X159031799Y-88883698D01*
X159031800Y-88883699D01*
X159181615Y-88913499D01*
X159181619Y-88913500D01*
X159181620Y-88913500D01*
X159334381Y-88913500D01*
X159334382Y-88913499D01*
X159484205Y-88883698D01*
X159558894Y-88852760D01*
X159628359Y-88845292D01*
X159690839Y-88876566D01*
G37*
%TD.AperFunction*%
%TA.AperFunction,NonConductor*%
G36*
X130224331Y-89171929D02*
G01*
X130257230Y-89223863D01*
X130308029Y-89380205D01*
X130320444Y-89418414D01*
X130416951Y-89607820D01*
X130541890Y-89779786D01*
X130692213Y-89930109D01*
X130864182Y-90055050D01*
X130872946Y-90059516D01*
X130923742Y-90107491D01*
X130940536Y-90175312D01*
X130917998Y-90241447D01*
X130872946Y-90280484D01*
X130864182Y-90284949D01*
X130692213Y-90409890D01*
X130541890Y-90560213D01*
X130416951Y-90732179D01*
X130320444Y-90921583D01*
X130286202Y-91026967D01*
X130281183Y-91042419D01*
X130271245Y-91073004D01*
X130264322Y-91083127D01*
X130261608Y-91095087D01*
X130244970Y-91111428D01*
X130231807Y-91130679D01*
X130220510Y-91135452D01*
X130211761Y-91144047D01*
X130188929Y-91148799D01*
X130167449Y-91157877D01*
X130155364Y-91155785D01*
X130143357Y-91158285D01*
X130121580Y-91149938D01*
X130098602Y-91145962D01*
X130089565Y-91137668D01*
X130078115Y-91133280D01*
X130064310Y-91114489D01*
X130047126Y-91098718D01*
X130042991Y-91085471D01*
X130036748Y-91076973D01*
X130029555Y-91042419D01*
X130025112Y-90971333D01*
X130024598Y-90963105D01*
X130024465Y-90960541D01*
X130023978Y-90948852D01*
X130008558Y-90578470D01*
X130008482Y-90576018D01*
X130000524Y-90193595D01*
X130000498Y-90191353D01*
X130000456Y-90175312D01*
X130000000Y-90000000D01*
X130000498Y-89808630D01*
X130000525Y-89806390D01*
X130000528Y-89806252D01*
X130008482Y-89423978D01*
X130008557Y-89421535D01*
X130015407Y-89257023D01*
X130037864Y-89190862D01*
X130092526Y-89147343D01*
X130162038Y-89140286D01*
X130224331Y-89171929D01*
G37*
%TD.AperFunction*%
%TA.AperFunction,NonConductor*%
G36*
X144498744Y-89672993D02*
G01*
X144525061Y-89676854D01*
X144531751Y-89682685D01*
X144540265Y-89685185D01*
X144557679Y-89705282D01*
X144577733Y-89722760D01*
X144583116Y-89734638D01*
X144586020Y-89737989D01*
X144592303Y-89754907D01*
X144598254Y-89775393D01*
X144598256Y-89775398D01*
X144603044Y-89783494D01*
X144681917Y-89916862D01*
X144686702Y-89923031D01*
X144684256Y-89924927D01*
X144710857Y-89973642D01*
X144705873Y-90043334D01*
X144698191Y-90060031D01*
X144689729Y-90075324D01*
X144681919Y-90083135D01*
X144598256Y-90224602D01*
X144588435Y-90258404D01*
X144581726Y-90270531D01*
X144566342Y-90285744D01*
X144554697Y-90303980D01*
X144541991Y-90309826D01*
X144532047Y-90319661D01*
X144510880Y-90324142D01*
X144491225Y-90333187D01*
X144473226Y-90334500D01*
X143259438Y-90334500D01*
X143228867Y-90342691D01*
X143183008Y-90354979D01*
X143183007Y-90354980D01*
X143135464Y-90382430D01*
X143135463Y-90382431D01*
X143114490Y-90394539D01*
X143114487Y-90394541D01*
X141829281Y-91679746D01*
X141822015Y-91683713D01*
X141817137Y-91690402D01*
X141791800Y-91700212D01*
X141767958Y-91713231D01*
X141758016Y-91713292D01*
X141751980Y-91715630D01*
X141731427Y-91713457D01*
X141716748Y-91713549D01*
X141707453Y-91711647D01*
X141704205Y-91710302D01*
X141583901Y-91686372D01*
X141583446Y-91686279D01*
X141552874Y-91670075D01*
X141522195Y-91654027D01*
X141522021Y-91653721D01*
X141521712Y-91653558D01*
X141504771Y-91623428D01*
X141487621Y-91593311D01*
X141487613Y-91592914D01*
X141487468Y-91592655D01*
X141487576Y-91590817D01*
X141486681Y-91540606D01*
X141491500Y-91516380D01*
X141491500Y-91363620D01*
X141461698Y-91213795D01*
X141461696Y-91213790D01*
X141461275Y-91212401D01*
X141461268Y-91211631D01*
X141460510Y-91207820D01*
X141461232Y-91207676D01*
X141460647Y-91142534D01*
X141492250Y-91088719D01*
X142879152Y-89701819D01*
X142940475Y-89668334D01*
X142966833Y-89665500D01*
X144473226Y-89665500D01*
X144498744Y-89672993D01*
G37*
%TD.AperFunction*%
%TA.AperFunction,NonConductor*%
G36*
X132913444Y-92093999D02*
G01*
X132952486Y-92139056D01*
X132956951Y-92147820D01*
X133081890Y-92319786D01*
X133195430Y-92433326D01*
X133228915Y-92494649D01*
X133223931Y-92564341D01*
X133182059Y-92620274D01*
X133151083Y-92637189D01*
X133019669Y-92686203D01*
X133019664Y-92686206D01*
X132904455Y-92772452D01*
X132904452Y-92772455D01*
X132818206Y-92887664D01*
X132818203Y-92887669D01*
X132769189Y-93019083D01*
X132727317Y-93075016D01*
X132661853Y-93099433D01*
X132593580Y-93084581D01*
X132565326Y-93063430D01*
X132451786Y-92949890D01*
X132279820Y-92824951D01*
X132276646Y-92823334D01*
X132271054Y-92820485D01*
X132220259Y-92772512D01*
X132203463Y-92704692D01*
X132225999Y-92638556D01*
X132271054Y-92599515D01*
X132279816Y-92595051D01*
X132341319Y-92550367D01*
X132451786Y-92470109D01*
X132451788Y-92470106D01*
X132451792Y-92470104D01*
X132602104Y-92319792D01*
X132602106Y-92319788D01*
X132602109Y-92319786D01*
X132719965Y-92157569D01*
X132727051Y-92147816D01*
X132731514Y-92139054D01*
X132779488Y-92088259D01*
X132847308Y-92071463D01*
X132913444Y-92093999D01*
G37*
%TD.AperFunction*%
%TA.AperFunction,NonConductor*%
G36*
X130312442Y-91974800D02*
G01*
X130351897Y-92020145D01*
X130374597Y-92064695D01*
X130406462Y-92127235D01*
X130416951Y-92147819D01*
X130541890Y-92319786D01*
X130692213Y-92470109D01*
X130864182Y-92595050D01*
X130872946Y-92599516D01*
X130923742Y-92647491D01*
X130940536Y-92715312D01*
X130917998Y-92781447D01*
X130872946Y-92820484D01*
X130864182Y-92824949D01*
X130692213Y-92949890D01*
X130541894Y-93100209D01*
X130541890Y-93100214D01*
X130488292Y-93173986D01*
X130471204Y-93187162D01*
X130457461Y-93203802D01*
X130444083Y-93208075D01*
X130432962Y-93216652D01*
X130411460Y-93218498D01*
X130390905Y-93225066D01*
X130377340Y-93221429D01*
X130363349Y-93222631D01*
X130344264Y-93212560D01*
X130323419Y-93206972D01*
X130313973Y-93196577D01*
X130301554Y-93190025D01*
X130290943Y-93171236D01*
X130276429Y-93155265D01*
X130269271Y-93132860D01*
X130267196Y-93129186D01*
X130265691Y-93121660D01*
X130224473Y-92876313D01*
X130224093Y-92873894D01*
X130168592Y-92495506D01*
X130168261Y-92493069D01*
X130120651Y-92113661D01*
X130120359Y-92111114D01*
X130118083Y-92089319D01*
X130130698Y-92020598D01*
X130178464Y-91969606D01*
X130246216Y-91952533D01*
X130312442Y-91974800D01*
G37*
%TD.AperFunction*%
%TA.AperFunction,NonConductor*%
G36*
X144485821Y-90939198D02*
G01*
X144498910Y-90938189D01*
X144518699Y-90948852D01*
X144540265Y-90955185D01*
X144548860Y-90965104D01*
X144560419Y-90971333D01*
X144581726Y-90999469D01*
X144588435Y-91011595D01*
X144598256Y-91045398D01*
X144681919Y-91186865D01*
X144689729Y-91194675D01*
X144698191Y-91209969D01*
X144713422Y-91278159D01*
X144689370Y-91343758D01*
X144686642Y-91346922D01*
X144686702Y-91346969D01*
X144681917Y-91353137D01*
X144598255Y-91494603D01*
X144598254Y-91494606D01*
X144552402Y-91652426D01*
X144552401Y-91652432D01*
X144549500Y-91689298D01*
X144549500Y-92120701D01*
X144552401Y-92157567D01*
X144552402Y-92157573D01*
X144598254Y-92315393D01*
X144598255Y-92315396D01*
X144681917Y-92456862D01*
X144681923Y-92456870D01*
X144798129Y-92573076D01*
X144798133Y-92573079D01*
X144798135Y-92573081D01*
X144939602Y-92656744D01*
X144981224Y-92668836D01*
X145097426Y-92702597D01*
X145097429Y-92702597D01*
X145097431Y-92702598D01*
X145134306Y-92705500D01*
X146436415Y-92705500D01*
X146503454Y-92725185D01*
X146549209Y-92777989D01*
X146559153Y-92847147D01*
X146530128Y-92910703D01*
X146524096Y-92917181D01*
X146463632Y-92977644D01*
X146463629Y-92977648D01*
X146378764Y-93104656D01*
X146378759Y-93104665D01*
X146320302Y-93245794D01*
X146320300Y-93245802D01*
X146290500Y-93395615D01*
X146290500Y-93548384D01*
X146320300Y-93698197D01*
X146320302Y-93698205D01*
X146378759Y-93839334D01*
X146378764Y-93839343D01*
X146463629Y-93966351D01*
X146463632Y-93966355D01*
X146571644Y-94074367D01*
X146571648Y-94074370D01*
X146698656Y-94159235D01*
X146698665Y-94159240D01*
X146804164Y-94202939D01*
X146858567Y-94246780D01*
X146880632Y-94313074D01*
X146863353Y-94380773D01*
X146812216Y-94428384D01*
X146756711Y-94441500D01*
X142161833Y-94441500D01*
X142094794Y-94421815D01*
X142074152Y-94405181D01*
X141041974Y-93373003D01*
X141008489Y-93311680D01*
X141013473Y-93241988D01*
X141055345Y-93186055D01*
X141120809Y-93161638D01*
X141177105Y-93170760D01*
X141251795Y-93201698D01*
X141369274Y-93225066D01*
X141401615Y-93231499D01*
X141401619Y-93231500D01*
X141401620Y-93231500D01*
X141554381Y-93231500D01*
X141554382Y-93231499D01*
X141704205Y-93201698D01*
X141845337Y-93143239D01*
X141972352Y-93058370D01*
X142080370Y-92950352D01*
X142165239Y-92823337D01*
X142223698Y-92682205D01*
X142253500Y-92532380D01*
X142253500Y-92379620D01*
X142223698Y-92229795D01*
X142223696Y-92229790D01*
X142223275Y-92228401D01*
X142223268Y-92227631D01*
X142222510Y-92223820D01*
X142223232Y-92223676D01*
X142222647Y-92158534D01*
X142254250Y-92104719D01*
X143387152Y-90971819D01*
X143448475Y-90938334D01*
X143474833Y-90935500D01*
X144473226Y-90935500D01*
X144485821Y-90939198D01*
G37*
%TD.AperFunction*%
M02*
