%TF.GenerationSoftware,KiCad,Pcbnew,9.0.6+1*%
%TF.CreationDate,Date%
%TF.ProjectId,kibot-test-cicd,6b69626f-742d-4746-9573-742d63696364,0.1.0+ (Unreleased)*%
%TF.SameCoordinates,Original*%
%TF.FileFunction,Copper,L2,Bot*%
%TF.FilePolarity,Positive*%
%FSLAX46Y46*%
G04 Gerber Fmt 4.6, Leading zero omitted, Abs format (unit mm)*
G04 Created by KiCad*
%MOMM*%
%LPD*%
G01*
G04 APERTURE LIST*
G04 Aperture macros list*
%AMRoundRect*
0 Rectangle with rounded corners*
0 $1 Rounding radius*
0 $2 $3 $4 $5 $6 $7 $8 $9 X,Y pos of 4 corners*
0 Add a 4 corners polygon primitive as box body*
4,1,4,$2,$3,$4,$5,$6,$7,$8,$9,$2,$3,0*
0 Add four circle primitives for the rounded corners*
1,1,$1+$1,$2,$3*
1,1,$1+$1,$4,$5*
1,1,$1+$1,$6,$7*
1,1,$1+$1,$8,$9*
0 Add four rect primitives between the rounded corners*
20,1,$1+$1,$2,$3,$4,$5,0*
20,1,$1+$1,$4,$5,$6,$7,0*
20,1,$1+$1,$6,$7,$8,$9,0*
20,1,$1+$1,$8,$9,$2,$3,0*%
G04 Aperture macros list end*
%TA.AperFunction,ComponentPad*%
%ADD10R,1.700000X1.700000*%
%TD*%
%TA.AperFunction,ComponentPad*%
%ADD11C,1.700000*%
%TD*%
%TA.AperFunction,SMDPad,CuDef*%
%ADD12RoundRect,0.150000X-0.725000X-0.150000X0.725000X-0.150000X0.725000X0.150000X-0.725000X0.150000X0*%
%TD*%
%TA.AperFunction,ViaPad*%
%ADD13C,1.300000*%
%TD*%
%TA.AperFunction,Conductor*%
%ADD14C,0.400000*%
%TD*%
%TA.AperFunction,Conductor*%
%ADD15C,0.200000*%
%TD*%
G04 APERTURE END LIST*
D10*
%TO.P,J1,1,Pin_1*%
%TO.N,out_sel*%
X134112000Y-93980000D03*
D11*
%TO.P,J1,2,Pin_2*%
%TO.N,mode*%
X131572000Y-93980000D03*
%TO.P,J1,3,Pin_3*%
%TO.N,+3V3*%
X134112000Y-91440000D03*
%TO.P,J1,4,Pin_4*%
%TO.N,push*%
X131572000Y-91440000D03*
%TO.P,J1,5,Pin_5*%
%TO.N,GND*%
X134112000Y-88900000D03*
%TO.P,J1,6,Pin_6*%
%TO.N,SDA-A*%
X131572000Y-88900000D03*
%TO.P,J1,7,Pin_7*%
%TO.N,SCL-B*%
X134112000Y-86360000D03*
%TO.P,J1,8,Pin_8*%
%TO.N,Z-CS*%
X131572000Y-86360000D03*
%TD*%
D12*
%TO.P,U1,1,VDD*%
%TO.N,+3V3*%
X145925000Y-91905000D03*
%TO.P,U1,2,MODE*%
%TO.N,mode*%
X145925000Y-90635000D03*
%TO.P,U1,3,OUT*%
%TO.N,out_sel*%
X145925000Y-89365000D03*
%TO.P,U1,4,GND*%
%TO.N,GND*%
X145925000Y-88095000D03*
%TO.P,U1,5,PUSH*%
%TO.N,push*%
X151075000Y-88095000D03*
%TO.P,U1,6,A*%
%TO.N,SDA-A*%
X151075000Y-89365000D03*
%TO.P,U1,7,B*%
%TO.N,SCL-B*%
X151075000Y-90635000D03*
%TO.P,U1,8,Z*%
%TO.N,Z-CS*%
X151075000Y-91905000D03*
%TD*%
D13*
%TO.N,GND*%
X155750000Y-93000000D03*
X148234258Y-89515216D03*
X139500000Y-84746000D03*
X162500000Y-93750000D03*
X137000000Y-92750000D03*
X152750000Y-97750000D03*
%TO.N,+3V3*%
X148250000Y-93750000D03*
%TO.N,out_sel*%
X140000000Y-91250000D03*
%TO.N,SDA-A*%
X156000000Y-88000000D03*
%TO.N,mode*%
X141842000Y-92092000D03*
%TO.N,push*%
X152908000Y-88138000D03*
X152789891Y-92368000D03*
%TO.N,SCL-B*%
X149250000Y-90678000D03*
X159250000Y-89154000D03*
X149069532Y-87430468D03*
%TO.N,Z-CS*%
X148750000Y-92250000D03*
X160528000Y-92456000D03*
X149500000Y-85500000D03*
%TD*%
D14*
%TO.N,+3V3*%
X145925000Y-91905000D02*
X147770000Y-93750000D01*
X147770000Y-93750000D02*
X148250000Y-93750000D01*
D15*
%TO.N,out_sel*%
X145925000Y-89365000D02*
X141885000Y-89365000D01*
X141885000Y-89365000D02*
X140000000Y-91250000D01*
%TO.N,SDA-A*%
X151075000Y-89365000D02*
X154635000Y-89365000D01*
X149499229Y-89365000D02*
X147983880Y-87849651D01*
X132842000Y-87630000D02*
X131572000Y-88900000D01*
X147983880Y-87507076D02*
X147226804Y-86750000D01*
X142750000Y-86750000D02*
X141870000Y-87630000D01*
X141870000Y-87630000D02*
X132842000Y-87630000D01*
X147983880Y-87849651D02*
X147983880Y-87507076D01*
X154635000Y-89365000D02*
X156000000Y-88000000D01*
X147226804Y-86750000D02*
X142750000Y-86750000D01*
X151075000Y-89365000D02*
X149499229Y-89365000D01*
%TO.N,mode*%
X145925000Y-90635000D02*
X143299000Y-90635000D01*
X143299000Y-90635000D02*
X141842000Y-92092000D01*
%TO.N,push*%
X142244000Y-95000000D02*
X150188000Y-95000000D01*
X137533000Y-90289000D02*
X142244000Y-95000000D01*
X131572000Y-91440000D02*
X132723000Y-90289000D01*
X132723000Y-90289000D02*
X137533000Y-90289000D01*
X150188000Y-95000000D02*
X152789891Y-92398109D01*
X151075000Y-88095000D02*
X152865000Y-88095000D01*
X152789891Y-92398109D02*
X152789891Y-92368000D01*
X152865000Y-88095000D02*
X152908000Y-88138000D01*
%TO.N,SCL-B*%
X149293000Y-90635000D02*
X149250000Y-90678000D01*
X151075000Y-90635000D02*
X149293000Y-90635000D01*
X151075000Y-90635000D02*
X157769000Y-90635000D01*
X134112000Y-86360000D02*
X140842129Y-86360000D01*
X140842129Y-86360000D02*
X141834129Y-85368000D01*
X141834129Y-85368000D02*
X147007065Y-85368000D01*
X147007065Y-85368000D02*
X149069532Y-87430468D01*
X157769000Y-90635000D02*
X159250000Y-89154000D01*
%TO.N,Z-CS*%
X131572000Y-86360000D02*
X134190000Y-83742000D01*
X153205762Y-91364000D02*
X153413066Y-91571304D01*
X151616000Y-91364000D02*
X153205762Y-91364000D01*
X151075000Y-91905000D02*
X151616000Y-91364000D01*
X159643304Y-91571304D02*
X160528000Y-92456000D01*
X153413066Y-91571304D02*
X159643304Y-91571304D01*
X149095000Y-91905000D02*
X148750000Y-92250000D01*
X151075000Y-91905000D02*
X149095000Y-91905000D01*
X134190000Y-83742000D02*
X139915871Y-83742000D01*
X148000000Y-84000000D02*
X149500000Y-85500000D01*
X139915871Y-83742000D02*
X140173871Y-84000000D01*
X140173871Y-84000000D02*
X148000000Y-84000000D01*
%TD*%
%TA.AperFunction,Conductor*%
%TO.N,GND*%
G36*
X148883582Y-71503489D02*
G01*
X148886114Y-71503541D01*
X149268403Y-71515475D01*
X149270842Y-71515578D01*
X149652715Y-71535458D01*
X149655241Y-71535616D01*
X150036594Y-71563435D01*
X150039069Y-71563641D01*
X150419864Y-71599397D01*
X150422277Y-71599649D01*
X150802196Y-71643313D01*
X150804682Y-71643625D01*
X151183618Y-71695185D01*
X151186102Y-71695549D01*
X151563778Y-71754966D01*
X151566321Y-71755393D01*
X151942726Y-71822660D01*
X151945162Y-71823121D01*
X152320109Y-71898210D01*
X152322628Y-71898742D01*
X152695890Y-71981604D01*
X152698310Y-71982168D01*
X153069845Y-72072798D01*
X153072308Y-72073427D01*
X153423535Y-72166886D01*
X153441754Y-72171734D01*
X153444239Y-72172423D01*
X153571569Y-72209156D01*
X153811649Y-72278419D01*
X153813996Y-72279122D01*
X154179116Y-72392738D01*
X154181571Y-72393530D01*
X154544230Y-72514710D01*
X154546557Y-72515515D01*
X154867718Y-72630311D01*
X154906633Y-72644221D01*
X154909052Y-72645114D01*
X155266359Y-72781277D01*
X155268699Y-72782197D01*
X155623135Y-72925779D01*
X155625384Y-72926718D01*
X155976742Y-73077637D01*
X155979057Y-73078660D01*
X156327187Y-73236851D01*
X156329525Y-73237943D01*
X156674220Y-73403308D01*
X156676477Y-73404420D01*
X157017757Y-73576971D01*
X157019962Y-73578115D01*
X157357534Y-73757706D01*
X157359741Y-73758909D01*
X157693520Y-73945492D01*
X157695737Y-73946762D01*
X158025524Y-74140227D01*
X158027736Y-74141556D01*
X158353427Y-74341839D01*
X158355556Y-74343179D01*
X158677033Y-74550209D01*
X158679165Y-74551614D01*
X158996215Y-74765254D01*
X158998325Y-74766708D01*
X159310964Y-74986968D01*
X159312953Y-74988402D01*
X159463899Y-75099517D01*
X159547248Y-75160872D01*
X159589568Y-75216467D01*
X159595112Y-75286117D01*
X159562121Y-75347707D01*
X159514693Y-75377774D01*
X159426613Y-75408594D01*
X159426606Y-75408597D01*
X159143213Y-75545072D01*
X158876878Y-75712422D01*
X158630956Y-75908538D01*
X158408538Y-76130956D01*
X158212422Y-76376878D01*
X158045072Y-76643213D01*
X157908598Y-76926604D01*
X157804711Y-77223498D01*
X157804710Y-77223500D01*
X157734718Y-77530156D01*
X157734716Y-77530172D01*
X157699500Y-77842722D01*
X157699500Y-78157277D01*
X157734716Y-78469827D01*
X157734718Y-78469843D01*
X157804710Y-78776499D01*
X157804711Y-78776501D01*
X157908598Y-79073395D01*
X158045072Y-79356786D01*
X158045074Y-79356789D01*
X158212423Y-79623123D01*
X158408539Y-79869044D01*
X158630956Y-80091461D01*
X158876877Y-80287577D01*
X159143211Y-80454926D01*
X159426606Y-80591402D01*
X159723500Y-80695289D01*
X160030160Y-80765282D01*
X160342723Y-80800499D01*
X160342724Y-80800500D01*
X160342727Y-80800500D01*
X160657276Y-80800500D01*
X160657276Y-80800499D01*
X160969840Y-80765282D01*
X161276500Y-80695289D01*
X161573394Y-80591402D01*
X161856789Y-80454926D01*
X162123123Y-80287577D01*
X162369044Y-80091461D01*
X162591461Y-79869044D01*
X162787577Y-79623123D01*
X162954926Y-79356789D01*
X163091402Y-79073394D01*
X163122208Y-78985354D01*
X163128137Y-78977087D01*
X163130277Y-78967140D01*
X163148155Y-78949177D01*
X163162928Y-78928580D01*
X163172387Y-78924829D01*
X163179565Y-78917619D01*
X163204317Y-78912172D01*
X163227881Y-78902832D01*
X163237865Y-78904791D01*
X163247803Y-78902605D01*
X163271573Y-78911407D01*
X163296442Y-78916288D01*
X163305526Y-78923980D01*
X163313325Y-78926868D01*
X163338340Y-78951765D01*
X163398294Y-79031461D01*
X163399810Y-79033521D01*
X163623288Y-79343818D01*
X163624665Y-79345772D01*
X163841686Y-79660721D01*
X163843086Y-79662799D01*
X164053432Y-79982077D01*
X164054829Y-79984246D01*
X164258494Y-80307843D01*
X164259845Y-80310041D01*
X164456708Y-80637763D01*
X164457991Y-80639949D01*
X164648053Y-80971797D01*
X164649276Y-80973986D01*
X164832333Y-81309609D01*
X164833545Y-81311886D01*
X165009601Y-81651284D01*
X165010765Y-81653586D01*
X165179722Y-81996569D01*
X165180838Y-81998895D01*
X165342634Y-82345347D01*
X165343673Y-82347634D01*
X165498208Y-82697334D01*
X165499226Y-82699704D01*
X165646453Y-83052541D01*
X165647422Y-83054933D01*
X165787265Y-83410730D01*
X165788184Y-83413140D01*
X165920624Y-83771846D01*
X165921492Y-83774276D01*
X166046419Y-84135598D01*
X166047237Y-84138045D01*
X166164615Y-84501873D01*
X166165381Y-84504336D01*
X166275175Y-84870560D01*
X166275890Y-84873038D01*
X166378045Y-85241481D01*
X166378708Y-85243974D01*
X166473161Y-85614403D01*
X166473773Y-85616909D01*
X166560514Y-85989282D01*
X166561073Y-85991801D01*
X166640040Y-86365862D01*
X166640547Y-86368392D01*
X166711727Y-86744080D01*
X166712180Y-86746619D01*
X166775515Y-87123621D01*
X166775916Y-87126170D01*
X166831398Y-87504433D01*
X166831746Y-87506989D01*
X166879346Y-87886325D01*
X166879641Y-87888888D01*
X166919344Y-88269168D01*
X166919585Y-88271736D01*
X166951364Y-88652716D01*
X166951552Y-88655290D01*
X166975400Y-89036882D01*
X166975534Y-89039458D01*
X166991439Y-89421466D01*
X166991519Y-89424044D01*
X166999472Y-89806252D01*
X166999499Y-89808832D01*
X166999499Y-90191167D01*
X166999472Y-90193747D01*
X166991519Y-90575955D01*
X166991439Y-90578533D01*
X166975534Y-90960541D01*
X166975400Y-90963117D01*
X166951552Y-91344709D01*
X166951364Y-91347283D01*
X166919585Y-91728263D01*
X166919344Y-91730831D01*
X166879641Y-92111111D01*
X166879346Y-92113674D01*
X166831746Y-92493010D01*
X166831398Y-92495566D01*
X166775916Y-92873829D01*
X166775515Y-92876378D01*
X166712180Y-93253380D01*
X166711727Y-93255919D01*
X166640547Y-93631607D01*
X166640040Y-93634137D01*
X166561073Y-94008198D01*
X166560514Y-94010717D01*
X166473773Y-94383090D01*
X166473161Y-94385596D01*
X166378708Y-94756025D01*
X166378045Y-94758518D01*
X166275890Y-95126961D01*
X166275175Y-95129439D01*
X166165381Y-95495663D01*
X166164615Y-95498126D01*
X166047237Y-95861954D01*
X166046419Y-95864401D01*
X165921492Y-96225723D01*
X165920624Y-96228153D01*
X165788184Y-96586859D01*
X165787265Y-96589269D01*
X165647422Y-96945066D01*
X165646453Y-96947458D01*
X165499226Y-97300295D01*
X165498208Y-97302665D01*
X165343673Y-97652365D01*
X165342606Y-97654714D01*
X165180838Y-98001104D01*
X165179722Y-98003430D01*
X165010765Y-98346413D01*
X165009601Y-98348715D01*
X164833545Y-98688113D01*
X164832333Y-98690390D01*
X164649276Y-99026013D01*
X164648030Y-99028242D01*
X164529775Y-99234716D01*
X164458013Y-99360012D01*
X164456708Y-99362236D01*
X164259845Y-99689958D01*
X164258494Y-99692156D01*
X164054829Y-100015753D01*
X164053432Y-100017922D01*
X163843086Y-100337200D01*
X163841656Y-100339322D01*
X163624696Y-100654182D01*
X163623239Y-100656251D01*
X163399823Y-100966461D01*
X163398294Y-100968538D01*
X163338340Y-101048234D01*
X163282308Y-101089973D01*
X163212605Y-101094793D01*
X163151361Y-101061163D01*
X163122207Y-101014643D01*
X163091402Y-100926606D01*
X162954926Y-100643211D01*
X162787577Y-100376877D01*
X162591461Y-100130956D01*
X162369044Y-99908539D01*
X162123123Y-99712423D01*
X161856789Y-99545074D01*
X161856786Y-99545072D01*
X161573395Y-99408598D01*
X161276501Y-99304711D01*
X161276499Y-99304710D01*
X160969843Y-99234718D01*
X160969827Y-99234716D01*
X160657277Y-99199500D01*
X160657273Y-99199500D01*
X160342727Y-99199500D01*
X160342722Y-99199500D01*
X160030172Y-99234716D01*
X160030156Y-99234718D01*
X159723500Y-99304710D01*
X159723498Y-99304711D01*
X159426604Y-99408598D01*
X159143213Y-99545072D01*
X158876878Y-99712422D01*
X158630956Y-99908538D01*
X158408538Y-100130956D01*
X158212422Y-100376878D01*
X158045072Y-100643213D01*
X157908598Y-100926604D01*
X157804711Y-101223498D01*
X157804710Y-101223500D01*
X157734718Y-101530156D01*
X157734716Y-101530172D01*
X157699500Y-101842722D01*
X157699500Y-102157277D01*
X157734716Y-102469827D01*
X157734718Y-102469843D01*
X157804710Y-102776499D01*
X157804711Y-102776501D01*
X157908598Y-103073395D01*
X158045072Y-103356786D01*
X158045074Y-103356789D01*
X158212423Y-103623123D01*
X158408539Y-103869044D01*
X158630956Y-104091461D01*
X158876877Y-104287577D01*
X159143211Y-104454926D01*
X159426606Y-104591402D01*
X159514693Y-104622224D01*
X159571468Y-104662945D01*
X159597216Y-104727898D01*
X159583760Y-104796460D01*
X159547248Y-104839127D01*
X159313006Y-105011559D01*
X159310913Y-105013067D01*
X158998340Y-105233281D01*
X158996215Y-105234745D01*
X158679165Y-105448385D01*
X158677011Y-105449804D01*
X158355583Y-105656803D01*
X158353400Y-105658177D01*
X158027736Y-105858443D01*
X158025524Y-105859772D01*
X157695737Y-106053237D01*
X157693499Y-106054519D01*
X157359799Y-106241058D01*
X157357534Y-106242293D01*
X157020004Y-106421862D01*
X157017714Y-106423050D01*
X156676505Y-106595565D01*
X156674190Y-106596705D01*
X156329524Y-106762056D01*
X156327187Y-106763148D01*
X155979057Y-106921339D01*
X155976698Y-106922381D01*
X155625468Y-107073246D01*
X155623086Y-107074240D01*
X155268730Y-107217790D01*
X155266329Y-107218734D01*
X154909052Y-107354885D01*
X154906633Y-107355778D01*
X154546612Y-107484465D01*
X154544173Y-107485308D01*
X154181571Y-107606469D01*
X154179116Y-107607261D01*
X153814071Y-107720854D01*
X153811599Y-107721595D01*
X153444239Y-107827576D01*
X153441754Y-107828265D01*
X153072327Y-107926567D01*
X153069827Y-107927205D01*
X152698356Y-108017820D01*
X152695843Y-108018405D01*
X152322633Y-108101256D01*
X152320109Y-108101789D01*
X151945211Y-108176868D01*
X151942676Y-108177348D01*
X151566321Y-108244606D01*
X151563778Y-108245033D01*
X151186137Y-108304444D01*
X151183584Y-108304819D01*
X150804719Y-108356369D01*
X150802159Y-108356690D01*
X150422354Y-108400342D01*
X150419788Y-108400610D01*
X150039116Y-108436354D01*
X150036545Y-108436568D01*
X149655265Y-108464381D01*
X149652691Y-108464542D01*
X149270913Y-108484418D01*
X149268335Y-108484526D01*
X148886137Y-108496457D01*
X148883558Y-108496510D01*
X148501290Y-108500487D01*
X148498710Y-108500487D01*
X148116441Y-108496510D01*
X148113862Y-108496457D01*
X147731664Y-108484526D01*
X147729086Y-108484418D01*
X147347308Y-108464542D01*
X147344734Y-108464381D01*
X146963454Y-108436568D01*
X146960883Y-108436354D01*
X146580211Y-108400610D01*
X146577645Y-108400342D01*
X146197840Y-108356690D01*
X146195280Y-108356369D01*
X145816415Y-108304819D01*
X145813862Y-108304444D01*
X145436221Y-108245033D01*
X145433678Y-108244606D01*
X145057323Y-108177348D01*
X145054788Y-108176868D01*
X144679890Y-108101789D01*
X144677366Y-108101256D01*
X144304156Y-108018405D01*
X144301643Y-108017820D01*
X143930172Y-107927205D01*
X143927672Y-107926567D01*
X143558245Y-107828265D01*
X143555760Y-107827576D01*
X143188400Y-107721595D01*
X143185942Y-107720858D01*
X143114083Y-107698497D01*
X142820883Y-107607261D01*
X142818428Y-107606469D01*
X142455826Y-107485308D01*
X142453387Y-107484465D01*
X142093366Y-107355778D01*
X142090947Y-107354885D01*
X141733670Y-107218734D01*
X141731269Y-107217790D01*
X141376913Y-107074240D01*
X141374567Y-107073261D01*
X141023301Y-106922381D01*
X141020942Y-106921339D01*
X140672812Y-106763148D01*
X140670475Y-106762056D01*
X140325809Y-106596705D01*
X140323494Y-106595565D01*
X139982285Y-106423050D01*
X139979995Y-106421862D01*
X139642465Y-106242293D01*
X139640225Y-106241071D01*
X139306500Y-106054519D01*
X139304262Y-106053237D01*
X138974475Y-105859772D01*
X138972263Y-105858443D01*
X138646599Y-105658177D01*
X138644416Y-105656803D01*
X138322988Y-105449804D01*
X138320834Y-105448385D01*
X138003784Y-105234745D01*
X138001659Y-105233281D01*
X137964897Y-105207381D01*
X137689053Y-105013043D01*
X137687028Y-105011584D01*
X137452749Y-104839126D01*
X137410430Y-104783532D01*
X137404886Y-104713883D01*
X137437877Y-104652292D01*
X137485304Y-104622225D01*
X137548582Y-104600083D01*
X137573392Y-104591403D01*
X137573392Y-104591402D01*
X137573394Y-104591402D01*
X137856789Y-104454926D01*
X138123123Y-104287577D01*
X138369044Y-104091461D01*
X138591461Y-103869044D01*
X138787577Y-103623123D01*
X138954926Y-103356789D01*
X139091402Y-103073394D01*
X139195289Y-102776500D01*
X139265282Y-102469840D01*
X139300500Y-102157273D01*
X139300500Y-101842727D01*
X139265282Y-101530160D01*
X139195289Y-101223500D01*
X139091402Y-100926606D01*
X138954926Y-100643211D01*
X138787577Y-100376877D01*
X138591461Y-100130956D01*
X138369044Y-99908539D01*
X138123123Y-99712423D01*
X137856789Y-99545074D01*
X137856786Y-99545072D01*
X137573395Y-99408598D01*
X137276501Y-99304711D01*
X137276499Y-99304710D01*
X136969843Y-99234718D01*
X136969827Y-99234716D01*
X136657277Y-99199500D01*
X136657273Y-99199500D01*
X136342727Y-99199500D01*
X136342722Y-99199500D01*
X136030172Y-99234716D01*
X136030156Y-99234718D01*
X135723500Y-99304710D01*
X135723498Y-99304711D01*
X135426604Y-99408598D01*
X135143213Y-99545072D01*
X134876878Y-99712422D01*
X134630956Y-99908538D01*
X134408538Y-100130956D01*
X134212422Y-100376878D01*
X134045072Y-100643213D01*
X133908597Y-100926606D01*
X133908594Y-100926613D01*
X133877791Y-101014644D01*
X133871861Y-101022911D01*
X133869722Y-101032859D01*
X133851840Y-101050824D01*
X133837069Y-101071420D01*
X133827610Y-101075169D01*
X133820434Y-101082380D01*
X133795680Y-101087826D01*
X133772117Y-101097167D01*
X133762133Y-101095207D01*
X133752196Y-101097394D01*
X133728427Y-101088592D01*
X133703555Y-101083711D01*
X133694469Y-101076017D01*
X133686674Y-101073131D01*
X133661659Y-101048234D01*
X133601705Y-100968538D01*
X133600200Y-100966494D01*
X133376697Y-100656161D01*
X133375347Y-100654246D01*
X133158298Y-100339257D01*
X133156913Y-100337200D01*
X132946567Y-100017922D01*
X132945170Y-100015753D01*
X132877691Y-99908538D01*
X132741471Y-99692101D01*
X132740189Y-99690015D01*
X132543275Y-99362209D01*
X132542025Y-99360079D01*
X132351928Y-99028170D01*
X132350754Y-99026069D01*
X132167666Y-98690390D01*
X132166454Y-98688113D01*
X131990398Y-98348715D01*
X131989234Y-98346413D01*
X131820277Y-98003430D01*
X131819180Y-98001145D01*
X131657345Y-97654609D01*
X131656358Y-97652435D01*
X131501775Y-97302628D01*
X131500773Y-97300295D01*
X131353527Y-96947413D01*
X131352595Y-96945112D01*
X131212718Y-96589228D01*
X131211815Y-96586859D01*
X131079359Y-96228109D01*
X131078523Y-96225770D01*
X130953571Y-95864376D01*
X130952790Y-95862038D01*
X130835373Y-95498090D01*
X130834618Y-95495664D01*
X130834618Y-95495663D01*
X130784943Y-95329972D01*
X130784547Y-95260106D01*
X130821988Y-95201114D01*
X130885378Y-95171729D01*
X130954591Y-95181280D01*
X130960016Y-95183880D01*
X130967207Y-95187544D01*
X131053588Y-95231557D01*
X131255757Y-95297246D01*
X131465713Y-95330500D01*
X131465714Y-95330500D01*
X131678286Y-95330500D01*
X131678287Y-95330500D01*
X131888243Y-95297246D01*
X132090412Y-95231557D01*
X132279816Y-95135051D01*
X132451792Y-95010104D01*
X132565329Y-94896566D01*
X132626648Y-94863084D01*
X132696340Y-94868068D01*
X132752274Y-94909939D01*
X132769189Y-94940917D01*
X132818202Y-95072328D01*
X132818206Y-95072335D01*
X132904452Y-95187544D01*
X132904455Y-95187547D01*
X133019664Y-95273793D01*
X133019671Y-95273797D01*
X133154517Y-95324091D01*
X133154516Y-95324091D01*
X133161444Y-95324835D01*
X133214127Y-95330500D01*
X135009872Y-95330499D01*
X135069483Y-95324091D01*
X135204331Y-95273796D01*
X135319546Y-95187546D01*
X135405796Y-95072331D01*
X135456091Y-94937483D01*
X135462500Y-94877873D01*
X135462499Y-93082128D01*
X135456091Y-93022517D01*
X135454810Y-93019083D01*
X135405797Y-92887671D01*
X135405793Y-92887664D01*
X135319547Y-92772455D01*
X135319544Y-92772452D01*
X135204335Y-92686206D01*
X135204328Y-92686202D01*
X135072917Y-92637189D01*
X135016983Y-92595318D01*
X134992566Y-92529853D01*
X135007418Y-92461580D01*
X135028563Y-92433332D01*
X135142104Y-92319792D01*
X135145297Y-92315398D01*
X135225408Y-92205133D01*
X135267051Y-92147816D01*
X135363557Y-91958412D01*
X135429246Y-91756243D01*
X135462500Y-91546287D01*
X135462500Y-91333713D01*
X135429246Y-91123757D01*
X135363557Y-90921588D01*
X135286215Y-90769795D01*
X135273319Y-90701125D01*
X135299595Y-90636385D01*
X135356702Y-90596128D01*
X135396700Y-90589500D01*
X137357167Y-90589500D01*
X137424206Y-90609185D01*
X137444848Y-90625819D01*
X142003540Y-95184511D01*
X142059489Y-95240460D01*
X142059491Y-95240461D01*
X142059495Y-95240464D01*
X142128004Y-95280017D01*
X142128011Y-95280021D01*
X142204438Y-95300500D01*
X142204440Y-95300500D01*
X150227560Y-95300500D01*
X150227562Y-95300500D01*
X150303989Y-95280021D01*
X150372511Y-95240460D01*
X150428460Y-95184511D01*
X152172267Y-93440702D01*
X152233588Y-93407219D01*
X152303279Y-93412203D01*
X152316236Y-93417898D01*
X152348252Y-93434211D01*
X152348254Y-93434212D01*
X152432511Y-93461588D01*
X152520482Y-93490171D01*
X152603320Y-93503291D01*
X152699340Y-93518500D01*
X152699345Y-93518500D01*
X152880442Y-93518500D01*
X152967150Y-93504765D01*
X153059300Y-93490171D01*
X153231530Y-93434211D01*
X153392885Y-93351996D01*
X153539392Y-93245553D01*
X153667444Y-93117501D01*
X153773887Y-92970994D01*
X153856102Y-92809639D01*
X153912062Y-92637409D01*
X153927175Y-92541990D01*
X153940391Y-92458551D01*
X153940391Y-92277448D01*
X153912062Y-92098590D01*
X153891115Y-92034122D01*
X153889120Y-91964281D01*
X153925200Y-91904448D01*
X153987901Y-91873620D01*
X154009046Y-91871804D01*
X159337437Y-91871804D01*
X159404476Y-91891489D01*
X159450231Y-91944293D01*
X159460175Y-92013451D01*
X159455368Y-92034122D01*
X159405829Y-92186589D01*
X159377500Y-92365448D01*
X159377500Y-92546551D01*
X159405829Y-92725410D01*
X159461787Y-92897636D01*
X159461788Y-92897639D01*
X159499165Y-92970994D01*
X159525417Y-93022516D01*
X159544006Y-93058997D01*
X159650441Y-93205494D01*
X159650445Y-93205499D01*
X159778500Y-93333554D01*
X159778505Y-93333558D01*
X159838299Y-93377000D01*
X159925006Y-93439996D01*
X160023479Y-93490171D01*
X160086360Y-93522211D01*
X160086363Y-93522212D01*
X160172476Y-93550191D01*
X160258591Y-93578171D01*
X160341429Y-93591291D01*
X160437449Y-93606500D01*
X160437454Y-93606500D01*
X160618551Y-93606500D01*
X160705259Y-93592765D01*
X160797409Y-93578171D01*
X160969639Y-93522211D01*
X161130994Y-93439996D01*
X161277501Y-93333553D01*
X161405553Y-93205501D01*
X161511996Y-93058994D01*
X161594211Y-92897639D01*
X161650171Y-92725409D01*
X161667456Y-92616274D01*
X161678500Y-92546551D01*
X161678500Y-92365448D01*
X161657679Y-92233996D01*
X161650171Y-92186591D01*
X161600632Y-92034122D01*
X161594212Y-92014363D01*
X161594211Y-92014360D01*
X161538207Y-91904448D01*
X161511996Y-91853006D01*
X161441691Y-91756239D01*
X161405558Y-91706505D01*
X161405554Y-91706500D01*
X161277499Y-91578445D01*
X161277494Y-91578441D01*
X161130997Y-91472006D01*
X161130996Y-91472005D01*
X161130994Y-91472004D01*
X161046903Y-91429157D01*
X160969639Y-91389788D01*
X160969636Y-91389787D01*
X160797410Y-91333829D01*
X160618551Y-91305500D01*
X160618546Y-91305500D01*
X160437454Y-91305500D01*
X160437449Y-91305500D01*
X160258589Y-91333829D01*
X160086364Y-91389787D01*
X160034403Y-91416262D01*
X160013457Y-91420195D01*
X159993944Y-91428761D01*
X159979804Y-91426514D01*
X159965733Y-91429157D01*
X159945985Y-91421141D01*
X159924940Y-91417798D01*
X159907576Y-91405551D01*
X159900993Y-91402879D01*
X159895533Y-91398280D01*
X159892905Y-91395934D01*
X159827815Y-91330844D01*
X159816719Y-91324438D01*
X159759293Y-91291283D01*
X159682866Y-91270804D01*
X159682864Y-91270804D01*
X153588899Y-91270804D01*
X153559459Y-91262159D01*
X153529472Y-91255636D01*
X153524456Y-91251881D01*
X153521860Y-91251119D01*
X153501222Y-91234489D01*
X153413914Y-91147181D01*
X153380430Y-91085857D01*
X153385414Y-91016166D01*
X153427286Y-90960232D01*
X153492751Y-90935816D01*
X153501596Y-90935500D01*
X157808560Y-90935500D01*
X157808562Y-90935500D01*
X157884989Y-90915021D01*
X157953511Y-90875460D01*
X158009460Y-90819511D01*
X158612430Y-90216539D01*
X158673751Y-90183056D01*
X158743442Y-90188040D01*
X158756405Y-90193738D01*
X158808356Y-90220209D01*
X158808363Y-90220212D01*
X158873720Y-90241447D01*
X158980591Y-90276171D01*
X159063429Y-90289291D01*
X159159449Y-90304500D01*
X159159454Y-90304500D01*
X159340551Y-90304500D01*
X159427259Y-90290765D01*
X159519409Y-90276171D01*
X159691639Y-90220211D01*
X159852994Y-90137996D01*
X159999501Y-90031553D01*
X160127553Y-89903501D01*
X160233996Y-89756994D01*
X160316211Y-89595639D01*
X160372171Y-89423409D01*
X160386765Y-89331259D01*
X160400500Y-89244551D01*
X160400500Y-89063448D01*
X160378231Y-88922853D01*
X160372171Y-88884591D01*
X160336022Y-88773334D01*
X160316212Y-88712363D01*
X160316211Y-88712360D01*
X160265714Y-88613256D01*
X160233996Y-88551006D01*
X160194527Y-88496681D01*
X160127558Y-88404505D01*
X160127554Y-88404500D01*
X159999499Y-88276445D01*
X159999494Y-88276441D01*
X159852997Y-88170006D01*
X159852996Y-88170005D01*
X159852994Y-88170004D01*
X159798000Y-88141983D01*
X159691639Y-88087788D01*
X159691636Y-88087787D01*
X159519410Y-88031829D01*
X159340551Y-88003500D01*
X159340546Y-88003500D01*
X159159454Y-88003500D01*
X159159449Y-88003500D01*
X158980589Y-88031829D01*
X158808363Y-88087787D01*
X158808360Y-88087788D01*
X158647002Y-88170006D01*
X158500505Y-88276441D01*
X158500500Y-88276445D01*
X158372445Y-88404500D01*
X158372441Y-88404505D01*
X158266006Y-88551002D01*
X158183788Y-88712360D01*
X158183787Y-88712363D01*
X158127829Y-88884589D01*
X158099500Y-89063448D01*
X158099500Y-89244551D01*
X158127829Y-89423410D01*
X158183787Y-89595636D01*
X158183791Y-89595644D01*
X158210261Y-89647595D01*
X158223157Y-89716264D01*
X158196880Y-89781004D01*
X158187457Y-89791570D01*
X157680848Y-90298181D01*
X157619525Y-90331666D01*
X157593167Y-90334500D01*
X152526774Y-90334500D01*
X152459735Y-90314815D01*
X152418274Y-90270531D01*
X152411564Y-90258404D01*
X152401744Y-90224602D01*
X152318081Y-90083135D01*
X152310268Y-90075322D01*
X152301808Y-90060031D01*
X152297855Y-90042334D01*
X152289155Y-90026421D01*
X152290396Y-90008940D01*
X152286577Y-89991842D01*
X152292819Y-89974816D01*
X152294104Y-89956726D01*
X152306556Y-89937349D01*
X152310629Y-89926243D01*
X152314074Y-89923633D01*
X152313298Y-89923031D01*
X152318075Y-89916870D01*
X152318081Y-89916865D01*
X152401744Y-89775398D01*
X152407697Y-89754906D01*
X152445303Y-89696020D01*
X152508775Y-89666813D01*
X152526774Y-89665500D01*
X154674560Y-89665500D01*
X154674562Y-89665500D01*
X154750989Y-89645021D01*
X154819511Y-89605460D01*
X154875460Y-89549511D01*
X155362430Y-89062539D01*
X155423751Y-89029056D01*
X155493442Y-89034040D01*
X155506405Y-89039738D01*
X155558356Y-89066209D01*
X155558363Y-89066212D01*
X155644476Y-89094191D01*
X155730591Y-89122171D01*
X155813429Y-89135291D01*
X155909449Y-89150500D01*
X155909454Y-89150500D01*
X156090551Y-89150500D01*
X156177259Y-89136765D01*
X156269409Y-89122171D01*
X156441639Y-89066211D01*
X156602994Y-88983996D01*
X156749501Y-88877553D01*
X156877553Y-88749501D01*
X156983996Y-88602994D01*
X157066211Y-88441639D01*
X157122171Y-88269409D01*
X157138528Y-88166136D01*
X157150500Y-88090551D01*
X157150500Y-87909448D01*
X157132351Y-87794867D01*
X157122171Y-87730591D01*
X157094191Y-87644476D01*
X157066212Y-87558363D01*
X157066211Y-87558360D01*
X157037740Y-87502484D01*
X156983996Y-87397006D01*
X156944945Y-87343256D01*
X156877558Y-87250505D01*
X156877554Y-87250500D01*
X156749499Y-87122445D01*
X156749494Y-87122441D01*
X156602997Y-87016006D01*
X156602996Y-87016005D01*
X156602994Y-87016004D01*
X156547052Y-86987500D01*
X156441639Y-86933788D01*
X156441636Y-86933787D01*
X156269410Y-86877829D01*
X156090551Y-86849500D01*
X156090546Y-86849500D01*
X155909454Y-86849500D01*
X155909449Y-86849500D01*
X155730589Y-86877829D01*
X155558363Y-86933787D01*
X155558360Y-86933788D01*
X155397002Y-87016006D01*
X155250505Y-87122441D01*
X155250500Y-87122445D01*
X155122445Y-87250500D01*
X155122441Y-87250505D01*
X155016006Y-87397002D01*
X154933788Y-87558360D01*
X154933787Y-87558363D01*
X154877829Y-87730589D01*
X154849500Y-87909448D01*
X154849500Y-88090551D01*
X154877829Y-88269410D01*
X154933787Y-88441636D01*
X154933791Y-88441644D01*
X154960261Y-88493595D01*
X154973157Y-88562264D01*
X154946880Y-88627004D01*
X154937457Y-88637570D01*
X154546848Y-89028181D01*
X154485525Y-89061666D01*
X154459167Y-89064500D01*
X153900320Y-89064500D01*
X153833281Y-89044815D01*
X153787526Y-88992011D01*
X153777582Y-88922853D01*
X153800002Y-88867615D01*
X153858978Y-88786439D01*
X153891996Y-88740994D01*
X153974211Y-88579639D01*
X154030171Y-88407409D01*
X154044765Y-88315259D01*
X154058500Y-88228551D01*
X154058500Y-88047448D01*
X154036733Y-87910021D01*
X154030171Y-87868591D01*
X153974211Y-87696361D01*
X153974211Y-87696360D01*
X153931001Y-87611557D01*
X153891996Y-87535006D01*
X153786723Y-87390109D01*
X153785558Y-87388505D01*
X153785554Y-87388500D01*
X153657499Y-87260445D01*
X153657494Y-87260441D01*
X153510997Y-87154006D01*
X153510996Y-87154005D01*
X153510994Y-87154004D01*
X153456367Y-87126170D01*
X153349639Y-87071788D01*
X153349636Y-87071787D01*
X153177410Y-87015829D01*
X152998551Y-86987500D01*
X152998546Y-86987500D01*
X152817454Y-86987500D01*
X152817449Y-86987500D01*
X152638589Y-87015829D01*
X152466363Y-87071787D01*
X152466360Y-87071788D01*
X152305002Y-87154006D01*
X152158502Y-87260443D01*
X152158501Y-87260444D01*
X152124098Y-87294846D01*
X152062774Y-87328329D01*
X152001824Y-87326238D01*
X151902573Y-87297402D01*
X151902567Y-87297401D01*
X151865701Y-87294500D01*
X151865694Y-87294500D01*
X150318744Y-87294500D01*
X150251705Y-87274815D01*
X150205950Y-87222011D01*
X150196271Y-87189899D01*
X150195191Y-87183084D01*
X150191703Y-87161059D01*
X150135743Y-86988829D01*
X150135743Y-86988828D01*
X150079185Y-86877829D01*
X150053528Y-86827474D01*
X149994784Y-86746619D01*
X149970102Y-86712646D01*
X149946622Y-86646840D01*
X149962448Y-86578786D01*
X150012554Y-86530091D01*
X150014036Y-86529322D01*
X150102994Y-86483996D01*
X150249501Y-86377553D01*
X150377553Y-86249501D01*
X150483996Y-86102994D01*
X150566211Y-85941639D01*
X150622171Y-85769409D01*
X150636765Y-85677259D01*
X150650500Y-85590551D01*
X150650500Y-85409448D01*
X150634019Y-85305397D01*
X150622171Y-85230591D01*
X150587658Y-85124369D01*
X150566212Y-85058363D01*
X150566211Y-85058360D01*
X150533134Y-84993444D01*
X150483996Y-84897006D01*
X150464782Y-84870560D01*
X150377558Y-84750505D01*
X150377554Y-84750500D01*
X150249499Y-84622445D01*
X150249494Y-84622441D01*
X150102997Y-84516006D01*
X150102996Y-84516005D01*
X150102994Y-84516004D01*
X150018905Y-84473158D01*
X149941639Y-84433788D01*
X149941636Y-84433787D01*
X149769410Y-84377829D01*
X149590551Y-84349500D01*
X149590546Y-84349500D01*
X149409454Y-84349500D01*
X149409449Y-84349500D01*
X149230589Y-84377829D01*
X149058361Y-84433788D01*
X149006404Y-84460262D01*
X148937735Y-84473158D01*
X148872995Y-84446881D01*
X148862429Y-84437458D01*
X148184512Y-83759541D01*
X148184504Y-83759535D01*
X148115995Y-83719982D01*
X148115990Y-83719979D01*
X148090513Y-83713152D01*
X148039562Y-83699500D01*
X148039560Y-83699500D01*
X140349704Y-83699500D01*
X140282665Y-83679815D01*
X140262023Y-83663181D01*
X140100383Y-83501541D01*
X140100378Y-83501537D01*
X140078906Y-83489140D01*
X140078904Y-83489140D01*
X140052603Y-83473955D01*
X140031861Y-83461979D01*
X140006384Y-83455152D01*
X139955433Y-83441500D01*
X134150438Y-83441500D01*
X134083039Y-83459559D01*
X134074007Y-83461980D01*
X134026966Y-83489140D01*
X134005492Y-83501537D01*
X134005487Y-83501541D01*
X132358268Y-85148759D01*
X132296945Y-85182244D01*
X132227253Y-85177260D01*
X132214292Y-85171563D01*
X132210386Y-85169573D01*
X132090412Y-85108443D01*
X131888243Y-85042754D01*
X131888241Y-85042753D01*
X131888240Y-85042753D01*
X131726957Y-85017208D01*
X131678287Y-85009500D01*
X131465713Y-85009500D01*
X131417042Y-85017208D01*
X131255760Y-85042753D01*
X131053585Y-85108444D01*
X130864178Y-85204951D01*
X130860760Y-85207435D01*
X130833516Y-85217151D01*
X130807390Y-85229564D01*
X130801009Y-85228744D01*
X130794950Y-85230906D01*
X130766778Y-85224350D01*
X130738089Y-85220668D01*
X130733163Y-85216528D01*
X130726898Y-85215071D01*
X130706740Y-85194323D01*
X130684599Y-85175717D01*
X130682693Y-85169573D01*
X130678210Y-85164959D01*
X130672468Y-85136605D01*
X130663902Y-85108983D01*
X130665055Y-85099994D01*
X130664344Y-85096479D01*
X130668393Y-85073987D01*
X130724128Y-84872971D01*
X130724804Y-84870626D01*
X130834619Y-84504331D01*
X130835364Y-84501935D01*
X130952799Y-84137933D01*
X130953561Y-84135652D01*
X131078534Y-83774198D01*
X131079348Y-83771920D01*
X131211841Y-83413069D01*
X131212705Y-83410804D01*
X131352609Y-83054853D01*
X131353513Y-83052620D01*
X131500803Y-82699633D01*
X131501759Y-82697406D01*
X131656374Y-82347527D01*
X131657328Y-82345426D01*
X131819198Y-81998817D01*
X131820256Y-81996611D01*
X131989234Y-81653584D01*
X131990398Y-81651284D01*
X132166473Y-81311848D01*
X132167645Y-81309648D01*
X132350777Y-80973888D01*
X132351905Y-80971869D01*
X132542049Y-80639878D01*
X132543250Y-80637832D01*
X132740216Y-80309940D01*
X132741445Y-80307940D01*
X132945191Y-79984212D01*
X132946545Y-79982110D01*
X133156955Y-79662735D01*
X133158268Y-79660786D01*
X133375378Y-79345708D01*
X133376664Y-79343883D01*
X133600234Y-79033458D01*
X133601667Y-79031511D01*
X133661661Y-78951762D01*
X133717690Y-78910025D01*
X133787394Y-78905205D01*
X133848638Y-78938835D01*
X133877792Y-78985355D01*
X133908598Y-79073395D01*
X134045072Y-79356786D01*
X134045074Y-79356789D01*
X134212423Y-79623123D01*
X134408539Y-79869044D01*
X134630956Y-80091461D01*
X134876877Y-80287577D01*
X135143211Y-80454926D01*
X135426606Y-80591402D01*
X135723500Y-80695289D01*
X136030160Y-80765282D01*
X136342723Y-80800499D01*
X136342724Y-80800500D01*
X136342727Y-80800500D01*
X136657276Y-80800500D01*
X136657276Y-80800499D01*
X136969840Y-80765282D01*
X137276500Y-80695289D01*
X137573394Y-80591402D01*
X137856789Y-80454926D01*
X138123123Y-80287577D01*
X138369044Y-80091461D01*
X138591461Y-79869044D01*
X138787577Y-79623123D01*
X138954926Y-79356789D01*
X139091402Y-79073394D01*
X139195289Y-78776500D01*
X139265282Y-78469840D01*
X139300500Y-78157273D01*
X139300500Y-77842727D01*
X139265282Y-77530160D01*
X139195289Y-77223500D01*
X139091402Y-76926606D01*
X138954926Y-76643211D01*
X138787577Y-76376877D01*
X138591461Y-76130956D01*
X138369044Y-75908539D01*
X138123123Y-75712423D01*
X137856789Y-75545074D01*
X137856786Y-75545072D01*
X137573395Y-75408598D01*
X137485307Y-75377775D01*
X137428530Y-75337053D01*
X137402783Y-75272100D01*
X137416239Y-75203539D01*
X137452751Y-75160872D01*
X137687092Y-74988368D01*
X137688990Y-74987000D01*
X138001718Y-74766676D01*
X138003722Y-74765296D01*
X138320899Y-74551570D01*
X138322922Y-74550238D01*
X138644486Y-74343151D01*
X138646528Y-74341866D01*
X138972288Y-74141540D01*
X138974450Y-74140241D01*
X139304283Y-73946749D01*
X139306438Y-73945515D01*
X139640298Y-73758887D01*
X139642407Y-73757737D01*
X139980077Y-73578094D01*
X139982203Y-73576991D01*
X140323559Y-73404401D01*
X140325741Y-73403327D01*
X140670511Y-73237925D01*
X140672777Y-73236866D01*
X141020986Y-73078640D01*
X141023221Y-73077653D01*
X141374649Y-72926703D01*
X141376830Y-72925793D01*
X141731333Y-72782183D01*
X141733607Y-72781289D01*
X142090971Y-72645104D01*
X142093342Y-72644229D01*
X142453471Y-72515504D01*
X142455739Y-72514720D01*
X142818456Y-72393520D01*
X142820854Y-72392747D01*
X143186030Y-72279114D01*
X143188323Y-72278426D01*
X143555760Y-72172423D01*
X143558222Y-72171740D01*
X143927715Y-72073420D01*
X143930132Y-72072804D01*
X144301710Y-71982163D01*
X144304088Y-71981609D01*
X144677390Y-71898737D01*
X144679865Y-71898215D01*
X145054854Y-71823118D01*
X145057255Y-71822663D01*
X145433694Y-71755390D01*
X145436206Y-71754968D01*
X145813911Y-71695547D01*
X145816367Y-71695186D01*
X146195329Y-71643623D01*
X146197791Y-71643315D01*
X146577732Y-71599647D01*
X146580125Y-71599397D01*
X146960938Y-71563640D01*
X146963397Y-71563435D01*
X147344764Y-71535616D01*
X147347278Y-71535458D01*
X147729161Y-71515577D01*
X147731592Y-71515475D01*
X148113887Y-71503541D01*
X148116415Y-71503489D01*
X148498750Y-71499513D01*
X148501250Y-71499513D01*
X148883582Y-71503489D01*
G37*
%TD.AperFunction*%
%TA.AperFunction,Conductor*%
G36*
X147118010Y-87070185D02*
G01*
X147138652Y-87086819D01*
X147647061Y-87595228D01*
X147680546Y-87656551D01*
X147683380Y-87682909D01*
X147683380Y-87889213D01*
X147688956Y-87910021D01*
X147703859Y-87965642D01*
X147703861Y-87965645D01*
X147731414Y-88013367D01*
X147731416Y-88013369D01*
X147743422Y-88034165D01*
X147743423Y-88034166D01*
X149054104Y-89344846D01*
X149087589Y-89406169D01*
X149082605Y-89475861D01*
X149040733Y-89531794D01*
X148985827Y-89554999D01*
X148980591Y-89555828D01*
X148808363Y-89611787D01*
X148808360Y-89611788D01*
X148647002Y-89694006D01*
X148500505Y-89800441D01*
X148500500Y-89800445D01*
X148372445Y-89928500D01*
X148372441Y-89928505D01*
X148266006Y-90075002D01*
X148183788Y-90236360D01*
X148183787Y-90236363D01*
X148127829Y-90408589D01*
X148099500Y-90587448D01*
X148099500Y-90768551D01*
X148127829Y-90947410D01*
X148183792Y-91119649D01*
X148184476Y-91121301D01*
X148184548Y-91121978D01*
X148185294Y-91124272D01*
X148184811Y-91124428D01*
X148191939Y-91190771D01*
X148160658Y-91253247D01*
X148142796Y-91269061D01*
X148000505Y-91372441D01*
X148000500Y-91372445D01*
X147872445Y-91500500D01*
X147872441Y-91500505D01*
X147766006Y-91647002D01*
X147683788Y-91808360D01*
X147683787Y-91808363D01*
X147627829Y-91980589D01*
X147599500Y-92159448D01*
X147599500Y-92340551D01*
X147627829Y-92519410D01*
X147668472Y-92644498D01*
X147669177Y-92669202D01*
X147674086Y-92693427D01*
X147670157Y-92703516D01*
X147670467Y-92714340D01*
X147657703Y-92735504D01*
X147648737Y-92758536D01*
X147636846Y-92770091D01*
X147634386Y-92774172D01*
X147623426Y-92783134D01*
X147562049Y-92827727D01*
X147496243Y-92851207D01*
X147428189Y-92835382D01*
X147401483Y-92815090D01*
X147189706Y-92603313D01*
X147156221Y-92541990D01*
X147161205Y-92472298D01*
X147170651Y-92452519D01*
X147251744Y-92315398D01*
X147290340Y-92182551D01*
X147297597Y-92157573D01*
X147297598Y-92157567D01*
X147298365Y-92147819D01*
X147300500Y-92120694D01*
X147300500Y-91689306D01*
X147297598Y-91652431D01*
X147296997Y-91650363D01*
X147253459Y-91500505D01*
X147251744Y-91494602D01*
X147168081Y-91353135D01*
X147168078Y-91353132D01*
X147163298Y-91346969D01*
X147165750Y-91345066D01*
X147139155Y-91296421D01*
X147144104Y-91226726D01*
X147164940Y-91194304D01*
X147163298Y-91193031D01*
X147168075Y-91186870D01*
X147168081Y-91186865D01*
X147251744Y-91045398D01*
X147285505Y-90929191D01*
X147297597Y-90887573D01*
X147297598Y-90887567D01*
X147300500Y-90850694D01*
X147300500Y-90419306D01*
X147297598Y-90382431D01*
X147294697Y-90372447D01*
X147251745Y-90224606D01*
X147251744Y-90224603D01*
X147251744Y-90224602D01*
X147168081Y-90083135D01*
X147168078Y-90083132D01*
X147163298Y-90076969D01*
X147165750Y-90075066D01*
X147139155Y-90026421D01*
X147144104Y-89956726D01*
X147164940Y-89924304D01*
X147163298Y-89923031D01*
X147168075Y-89916870D01*
X147168081Y-89916865D01*
X147251744Y-89775398D01*
X147297598Y-89617569D01*
X147300500Y-89580694D01*
X147300500Y-89149306D01*
X147297598Y-89112431D01*
X147283103Y-89062541D01*
X147251745Y-88954606D01*
X147251744Y-88954603D01*
X147251744Y-88954602D01*
X147168081Y-88813135D01*
X147168079Y-88813133D01*
X147168076Y-88813129D01*
X147051870Y-88696923D01*
X147051862Y-88696917D01*
X146910396Y-88613255D01*
X146910393Y-88613254D01*
X146752573Y-88567402D01*
X146752567Y-88567401D01*
X146715701Y-88564500D01*
X146715694Y-88564500D01*
X145134306Y-88564500D01*
X145134298Y-88564500D01*
X145097432Y-88567401D01*
X145097426Y-88567402D01*
X144939606Y-88613254D01*
X144939603Y-88613255D01*
X144798137Y-88696917D01*
X144798129Y-88696923D01*
X144681923Y-88813129D01*
X144681917Y-88813137D01*
X144598255Y-88954603D01*
X144592303Y-88975093D01*
X144554697Y-89033980D01*
X144491225Y-89063187D01*
X144473226Y-89064500D01*
X141845438Y-89064500D01*
X141769010Y-89084978D01*
X141700489Y-89124540D01*
X141700486Y-89124542D01*
X140637570Y-90187457D01*
X140576247Y-90220942D01*
X140506555Y-90215958D01*
X140493595Y-90210261D01*
X140441644Y-90183791D01*
X140441636Y-90183787D01*
X140269410Y-90127829D01*
X140090551Y-90099500D01*
X140090546Y-90099500D01*
X139909454Y-90099500D01*
X139909449Y-90099500D01*
X139730589Y-90127829D01*
X139558363Y-90183787D01*
X139558360Y-90183788D01*
X139397002Y-90266006D01*
X139250505Y-90372441D01*
X139250500Y-90372445D01*
X139122445Y-90500500D01*
X139122441Y-90500505D01*
X139016006Y-90647002D01*
X138933788Y-90808360D01*
X138933787Y-90808363D01*
X138884378Y-90960432D01*
X138844941Y-91018107D01*
X138780582Y-91045306D01*
X138711736Y-91033391D01*
X138678766Y-91009795D01*
X137717510Y-90048539D01*
X137704123Y-90040810D01*
X137690735Y-90033081D01*
X137669862Y-90021030D01*
X137648990Y-90008979D01*
X137623513Y-90002152D01*
X137572562Y-89988500D01*
X132692758Y-89988500D01*
X132625719Y-89968815D01*
X132579964Y-89916011D01*
X132570020Y-89846853D01*
X132598954Y-89783494D01*
X132598947Y-89783488D01*
X132598970Y-89783460D01*
X132599045Y-89783297D01*
X132599833Y-89782449D01*
X132602109Y-89779786D01*
X132719965Y-89617569D01*
X132727051Y-89607816D01*
X132823557Y-89418412D01*
X132889246Y-89216243D01*
X132922500Y-89006287D01*
X132922500Y-88793713D01*
X132889246Y-88583757D01*
X132823557Y-88381588D01*
X132823555Y-88381584D01*
X132823555Y-88381583D01*
X132769982Y-88276441D01*
X132760435Y-88257705D01*
X132755873Y-88233416D01*
X132747236Y-88210256D01*
X132749537Y-88199677D01*
X132747539Y-88189037D01*
X132756833Y-88166136D01*
X132762088Y-88141983D01*
X132772023Y-88128710D01*
X132773815Y-88124297D01*
X132783220Y-88113749D01*
X132930153Y-87966816D01*
X132991476Y-87933334D01*
X133017833Y-87930500D01*
X141909560Y-87930500D01*
X141909562Y-87930500D01*
X141985989Y-87910021D01*
X142054511Y-87870460D01*
X142110460Y-87814511D01*
X142838152Y-87086819D01*
X142899475Y-87053334D01*
X142925833Y-87050500D01*
X147050971Y-87050500D01*
X147118010Y-87070185D01*
G37*
%TD.AperFunction*%
%TA.AperFunction,Conductor*%
G36*
X139807077Y-84062185D02*
G01*
X139827719Y-84078819D01*
X139933411Y-84184511D01*
X139989360Y-84240460D01*
X139989362Y-84240461D01*
X139989366Y-84240464D01*
X140057875Y-84280017D01*
X140057882Y-84280021D01*
X140134309Y-84300500D01*
X140213433Y-84300500D01*
X147824167Y-84300500D01*
X147891206Y-84320185D01*
X147911848Y-84336819D01*
X148437458Y-84862429D01*
X148470943Y-84923752D01*
X148465959Y-84993444D01*
X148460262Y-85006404D01*
X148433788Y-85058361D01*
X148377829Y-85230589D01*
X148349500Y-85409448D01*
X148349500Y-85590551D01*
X148377829Y-85769410D01*
X148433787Y-85941636D01*
X148433788Y-85941639D01*
X148516006Y-86102997D01*
X148517088Y-86104487D01*
X148517324Y-86105150D01*
X148518550Y-86107150D01*
X148518130Y-86107407D01*
X148540568Y-86170293D01*
X148524742Y-86238347D01*
X148474636Y-86287042D01*
X148406158Y-86300917D01*
X148341049Y-86275568D01*
X148329089Y-86265053D01*
X147191577Y-85127541D01*
X147191569Y-85127535D01*
X147123060Y-85087982D01*
X147123055Y-85087979D01*
X147097578Y-85081152D01*
X147046627Y-85067500D01*
X141794567Y-85067500D01*
X141770358Y-85073987D01*
X141718138Y-85087979D01*
X141718133Y-85087982D01*
X141649624Y-85127535D01*
X141649616Y-85127541D01*
X140753977Y-86023181D01*
X140692654Y-86056666D01*
X140666296Y-86059500D01*
X135524452Y-86059500D01*
X135457413Y-86039815D01*
X135411658Y-85987011D01*
X135406521Y-85973818D01*
X135363557Y-85841588D01*
X135267051Y-85652184D01*
X135267049Y-85652181D01*
X135267048Y-85652179D01*
X135142109Y-85480213D01*
X134991786Y-85329890D01*
X134819820Y-85204951D01*
X134630414Y-85108444D01*
X134630413Y-85108443D01*
X134630412Y-85108443D01*
X134428243Y-85042754D01*
X134428241Y-85042753D01*
X134428240Y-85042753D01*
X134266957Y-85017208D01*
X134218287Y-85009500D01*
X134005713Y-85009500D01*
X133957042Y-85017208D01*
X133795760Y-85042753D01*
X133593580Y-85108445D01*
X133593578Y-85108446D01*
X133587628Y-85111478D01*
X133518958Y-85124369D01*
X133454219Y-85098087D01*
X133413967Y-85040978D01*
X133410980Y-84971172D01*
X133443659Y-84913311D01*
X134278152Y-84078819D01*
X134339475Y-84045334D01*
X134365833Y-84042500D01*
X139740038Y-84042500D01*
X139807077Y-84062185D01*
G37*
%TD.AperFunction*%
%TD*%
M02*
