%TF.GenerationSoftware,KiCad,Pcbnew,9.0.6+1*%
%TF.CreationDate,Date%
%TF.ProjectId,kibot-test-cicd,6b69626f-742d-4746-9573-742d63696364,0.1.0+ (Unreleased)*%
%TF.SameCoordinates,Original*%
%TF.FileFunction,Copper,L1,Top*%
%TF.FilePolarity,Positive*%
%FSLAX46Y46*%
G04 Gerber Fmt 4.6, Leading zero omitted, Abs format (unit mm)*
G04 Created by KiCad*
%MOMM*%
%LPD*%
G01*
G04 APERTURE LIST*
G04 Aperture macros list*
%AMRoundRect*
0 Rectangle with rounded corners*
0 $1 Rounding radius*
0 $2 $3 $4 $5 $6 $7 $8 $9 X,Y pos of 4 corners*
0 Add a 4 corners polygon primitive as box body*
4,1,4,$2,$3,$4,$5,$6,$7,$8,$9,$2,$3,0*
0 Add four circle primitives for the rounded corners*
1,1,$1+$1,$2,$3*
1,1,$1+$1,$4,$5*
1,1,$1+$1,$6,$7*
1,1,$1+$1,$8,$9*
0 Add four rect primitives between the rounded corners*
20,1,$1+$1,$2,$3,$4,$5,0*
20,1,$1+$1,$4,$5,$6,$7,0*
20,1,$1+$1,$6,$7,$8,$9,0*
20,1,$1+$1,$8,$9,$2,$3,0*%
%AMFreePoly0*
4,1,23,0.500000,-0.750000,0.000000,-0.750000,0.000000,-0.745722,-0.065263,-0.745722,-0.191342,-0.711940,-0.304381,-0.646677,-0.396677,-0.554381,-0.461940,-0.441342,-0.495722,-0.315263,-0.495722,-0.250000,-0.500000,-0.250000,-0.500000,0.250000,-0.495722,0.250000,-0.495722,0.315263,-0.461940,0.441342,-0.396677,0.554381,-0.304381,0.646677,-0.191342,0.711940,-0.065263,0.745722,0.000000,0.745722,
0.000000,0.750000,0.500000,0.750000,0.500000,-0.750000,0.500000,-0.750000,$1*%
%AMFreePoly1*
4,1,23,0.000000,0.745722,0.065263,0.745722,0.191342,0.711940,0.304381,0.646677,0.396677,0.554381,0.461940,0.441342,0.495722,0.315263,0.495722,0.250000,0.500000,0.250000,0.500000,-0.250000,0.495722,-0.250000,0.495722,-0.315263,0.461940,-0.441342,0.396677,-0.554381,0.304381,-0.646677,0.191342,-0.711940,0.065263,-0.745722,0.000000,-0.745722,0.000000,-0.750000,-0.500000,-0.750000,
-0.500000,0.750000,0.000000,0.750000,0.000000,0.745722,0.000000,0.745722,$1*%
G04 Aperture macros list end*
%TA.AperFunction,EtchedComponent*%
%ADD10C,0.000000*%
%TD*%
%TA.AperFunction,SMDPad,CuDef*%
%ADD11FreePoly0,180.000000*%
%TD*%
%TA.AperFunction,SMDPad,CuDef*%
%ADD12FreePoly1,180.000000*%
%TD*%
%TA.AperFunction,SMDPad,CuDef*%
%ADD13RoundRect,0.062500X0.117500X0.062500X-0.117500X0.062500X-0.117500X-0.062500X0.117500X-0.062500X0*%
%TD*%
%TA.AperFunction,SMDPad,CuDef*%
%ADD14RoundRect,0.218750X-0.256250X0.218750X-0.256250X-0.218750X0.256250X-0.218750X0.256250X0.218750X0*%
%TD*%
%TA.AperFunction,SMDPad,CuDef*%
%ADD15RoundRect,0.225000X0.250000X-0.225000X0.250000X0.225000X-0.250000X0.225000X-0.250000X-0.225000X0*%
%TD*%
%TA.AperFunction,SMDPad,CuDef*%
%ADD16RoundRect,0.150000X-0.625000X0.150000X-0.625000X-0.150000X0.625000X-0.150000X0.625000X0.150000X0*%
%TD*%
%TA.AperFunction,SMDPad,CuDef*%
%ADD17RoundRect,0.250000X-0.650000X0.350000X-0.650000X-0.350000X0.650000X-0.350000X0.650000X0.350000X0*%
%TD*%
%TA.AperFunction,SMDPad,CuDef*%
%ADD18RoundRect,0.135000X-0.185000X0.135000X-0.185000X-0.135000X0.185000X-0.135000X0.185000X0.135000X0*%
%TD*%
%TA.AperFunction,ComponentPad*%
%ADD19R,1.700000X1.700000*%
%TD*%
%TA.AperFunction,ComponentPad*%
%ADD20C,1.700000*%
%TD*%
%TA.AperFunction,ViaPad*%
%ADD21C,0.550000*%
%TD*%
%TA.AperFunction,Conductor*%
%ADD22C,0.200000*%
%TD*%
%TA.AperFunction,Conductor*%
%ADD23C,0.400000*%
%TD*%
G04 APERTURE END LIST*
D10*
%TA.AperFunction,EtchedComponent*%
%TO.C,JP1*%
G36*
X150222000Y-97836000D02*
G01*
X149722000Y-97836000D01*
X149722000Y-97236000D01*
X150222000Y-97236000D01*
X150222000Y-97836000D01*
G37*
%TD.AperFunction*%
%TD*%
D11*
%TO.P,JP1,1,A*%
%TO.N,GND*%
X150622000Y-97536000D03*
D12*
%TO.P,JP1,2,B*%
%TO.N,Net-(JP1-B)*%
X149322000Y-97536000D03*
%TD*%
D13*
%TO.P,D1,1,A1*%
%TO.N,GND*%
X159766000Y-90424000D03*
%TO.P,D1,2,A2*%
%TO.N,+3V3*%
X160606000Y-90424000D03*
%TD*%
D14*
%TO.P,D2,1,K*%
%TO.N,+3V3*%
X144272000Y-93700500D03*
%TO.P,D2,2,A*%
%TO.N,Net-(D2-A)*%
X144272000Y-95275500D03*
%TD*%
D15*
%TO.P,C1,1*%
%TO.N,+3V3*%
X146040000Y-93570000D03*
%TO.P,C1,2*%
%TO.N,GND*%
X146040000Y-92020000D03*
%TD*%
D16*
%TO.P,J2,1,Pin_1*%
%TO.N,SDA-A*%
X162505000Y-88170000D03*
%TO.P,J2,2,Pin_2*%
%TO.N,SCL-B*%
X162505000Y-89170000D03*
%TO.P,J2,3,Pin_3*%
%TO.N,+3V3*%
X162505000Y-90170000D03*
%TO.P,J2,4,Pin_4*%
%TO.N,Z-CS*%
X162505000Y-91170000D03*
%TO.P,J2,5,Pin_5*%
%TO.N,GND*%
X162505000Y-92170000D03*
D17*
%TO.P,J2,MP*%
%TO.N,N/C*%
X165030000Y-86870000D03*
X165030000Y-93470000D03*
%TD*%
D18*
%TO.P,R1,1*%
%TO.N,Net-(D2-A)*%
X146050000Y-95248000D03*
%TO.P,R1,2*%
%TO.N,Net-(JP1-B)*%
X146050000Y-96268000D03*
%TD*%
D19*
%TO.P,J1,1,Pin_1*%
%TO.N,out_sel*%
X134112000Y-93980000D03*
D20*
%TO.P,J1,2,Pin_2*%
%TO.N,mode*%
X131572000Y-93980000D03*
%TO.P,J1,3,Pin_3*%
%TO.N,+3V3*%
X134112000Y-91440000D03*
%TO.P,J1,4,Pin_4*%
%TO.N,push*%
X131572000Y-91440000D03*
%TO.P,J1,5,Pin_5*%
%TO.N,GND*%
X134112000Y-88900000D03*
%TO.P,J1,6,Pin_6*%
%TO.N,SDA-A*%
X131572000Y-88900000D03*
%TO.P,J1,7,Pin_7*%
%TO.N,SCL-B*%
X134112000Y-86360000D03*
%TO.P,J1,8,Pin_8*%
%TO.N,Z-CS*%
X131572000Y-86360000D03*
%TD*%
D21*
%TO.N,GND*%
X147320000Y-91186000D03*
X147320000Y-88138000D03*
X159162519Y-90836519D03*
X149250000Y-89500000D03*
X139500000Y-85121000D03*
X162306000Y-93218000D03*
X144000000Y-92000000D03*
X137000000Y-92750000D03*
X142250000Y-86750000D03*
X155750000Y-90000000D03*
X137250000Y-95000000D03*
X139500000Y-90750000D03*
X143750000Y-90000000D03*
X151892000Y-97536000D03*
%TO.N,+3V3*%
X147066000Y-93472000D03*
%TO.N,out_sel*%
X140716000Y-91440000D03*
%TO.N,SDA-A*%
X159258000Y-88138000D03*
%TO.N,mode*%
X141842000Y-92092000D03*
%TO.N,push*%
X152908000Y-88138000D03*
X152654000Y-92534000D03*
%TO.N,SCL-B*%
X149860000Y-90678000D03*
X160782000Y-89154000D03*
X149606000Y-87884000D03*
%TO.N,Z-CS*%
X149352000Y-91948000D03*
X160528000Y-92456000D03*
X149500000Y-85500000D03*
%TD*%
D22*
%TO.N,GND*%
X150622000Y-97536000D02*
X151892000Y-97536000D01*
X159575038Y-90424000D02*
X159162519Y-90836519D01*
X146486000Y-92020000D02*
X147320000Y-91186000D01*
X162505000Y-93019000D02*
X162306000Y-93218000D01*
X162505000Y-92170000D02*
X162505000Y-93019000D01*
X146040000Y-92020000D02*
X146486000Y-92020000D01*
X159766000Y-90424000D02*
X159575038Y-90424000D01*
D23*
%TO.N,+3V3*%
X146968000Y-93570000D02*
X147066000Y-93472000D01*
X144141500Y-93570000D02*
X144018000Y-93446500D01*
X144018000Y-93446500D02*
X143002000Y-92430500D01*
X146040000Y-93570000D02*
X146968000Y-93570000D01*
X161290000Y-90170000D02*
X162505000Y-90170000D01*
X160606000Y-90424000D02*
X161036000Y-90424000D01*
X160606000Y-90424000D02*
X157558000Y-93472000D01*
X135877000Y-89675000D02*
X134112000Y-91440000D01*
X161036000Y-90424000D02*
X161290000Y-90170000D01*
X143002000Y-91694000D02*
X140983000Y-89675000D01*
X146040000Y-93570000D02*
X144141500Y-93570000D01*
X140983000Y-89675000D02*
X135877000Y-89675000D01*
X144018000Y-93446500D02*
X144272000Y-93700500D01*
X157558000Y-93472000D02*
X147066000Y-93472000D01*
X143002000Y-92430500D02*
X143002000Y-91694000D01*
D22*
%TO.N,Net-(D2-A)*%
X144272000Y-95275500D02*
X146022500Y-95275500D01*
X146022500Y-95275500D02*
X146050000Y-95248000D01*
%TO.N,out_sel*%
X134112000Y-93980000D02*
X138176000Y-93980000D01*
X138176000Y-93980000D02*
X140716000Y-91440000D01*
%TO.N,SDA-A*%
X162505000Y-88170000D02*
X159290000Y-88170000D01*
X159290000Y-88170000D02*
X159258000Y-88138000D01*
%TO.N,mode*%
X138176000Y-95758000D02*
X141842000Y-92092000D01*
X133350000Y-95758000D02*
X138176000Y-95758000D01*
X131572000Y-93980000D02*
X133350000Y-95758000D01*
%TO.N,push*%
X152654000Y-92534000D02*
X152908000Y-92280000D01*
X152908000Y-92280000D02*
X152908000Y-88138000D01*
%TO.N,SCL-B*%
X149860000Y-90678000D02*
X150368000Y-90170000D01*
X150368000Y-88646000D02*
X149606000Y-87884000D01*
X162505000Y-89170000D02*
X160798000Y-89170000D01*
X160798000Y-89170000D02*
X160782000Y-89154000D01*
X150368000Y-90170000D02*
X150368000Y-88646000D01*
%TO.N,Z-CS*%
X148336000Y-86664000D02*
X149500000Y-85500000D01*
X161814000Y-91170000D02*
X160528000Y-92456000D01*
X162505000Y-91170000D02*
X161814000Y-91170000D01*
X149352000Y-91948000D02*
X148336000Y-90932000D01*
X148336000Y-90932000D02*
X148336000Y-86664000D01*
%TO.N,Net-(JP1-B)*%
X148054000Y-96268000D02*
X149322000Y-97536000D01*
X146050000Y-96268000D02*
X148054000Y-96268000D01*
%TD*%
%TA.AperFunction,Conductor*%
%TO.N,GND*%
G36*
X166635702Y-86486634D02*
G01*
X166673476Y-86545412D01*
X166676332Y-86557264D01*
X166711727Y-86744080D01*
X166712180Y-86746619D01*
X166775515Y-87123621D01*
X166775916Y-87126170D01*
X166831398Y-87504433D01*
X166831746Y-87506989D01*
X166879346Y-87886325D01*
X166879641Y-87888888D01*
X166919344Y-88269168D01*
X166919585Y-88271736D01*
X166951364Y-88652716D01*
X166951552Y-88655290D01*
X166975400Y-89036882D01*
X166975534Y-89039458D01*
X166991439Y-89421466D01*
X166991519Y-89424044D01*
X166999472Y-89806252D01*
X166999499Y-89808832D01*
X166999499Y-90191167D01*
X166999472Y-90193747D01*
X166991519Y-90575955D01*
X166991439Y-90578533D01*
X166975534Y-90960541D01*
X166975400Y-90963117D01*
X166951552Y-91344709D01*
X166951364Y-91347283D01*
X166919585Y-91728263D01*
X166919344Y-91730831D01*
X166879641Y-92111111D01*
X166879346Y-92113674D01*
X166831746Y-92493010D01*
X166831398Y-92495566D01*
X166775916Y-92873829D01*
X166775515Y-92876378D01*
X166712180Y-93253380D01*
X166711727Y-93255919D01*
X166676332Y-93442734D01*
X166644511Y-93504937D01*
X166584113Y-93540063D01*
X166514312Y-93536958D01*
X166457271Y-93496610D01*
X166431098Y-93431827D01*
X166430499Y-93419651D01*
X166430499Y-93069998D01*
X166430498Y-93069980D01*
X166419999Y-92967203D01*
X166419998Y-92967200D01*
X166395065Y-92891958D01*
X166364814Y-92800666D01*
X166272712Y-92651344D01*
X166148656Y-92527288D01*
X166035704Y-92457619D01*
X165999336Y-92435187D01*
X165999331Y-92435185D01*
X165993718Y-92433325D01*
X165832797Y-92380001D01*
X165832795Y-92380000D01*
X165730010Y-92369500D01*
X164329998Y-92369500D01*
X164329981Y-92369501D01*
X164227203Y-92380000D01*
X164227200Y-92380001D01*
X164060668Y-92435185D01*
X164060663Y-92435187D01*
X163911342Y-92527289D01*
X163787289Y-92651342D01*
X163695187Y-92800663D01*
X163695185Y-92800668D01*
X163672333Y-92869632D01*
X163640001Y-92967203D01*
X163640001Y-92967204D01*
X163640000Y-92967204D01*
X163629500Y-93069983D01*
X163629500Y-93870001D01*
X163629501Y-93870019D01*
X163640000Y-93972796D01*
X163640001Y-93972799D01*
X163670780Y-94065683D01*
X163695186Y-94139334D01*
X163787288Y-94288656D01*
X163911344Y-94412712D01*
X164060666Y-94504814D01*
X164227203Y-94559999D01*
X164329991Y-94570500D01*
X165730008Y-94570499D01*
X165832797Y-94559999D01*
X165999334Y-94504814D01*
X166148656Y-94412712D01*
X166255484Y-94305883D01*
X166316803Y-94272401D01*
X166386495Y-94277385D01*
X166442429Y-94319256D01*
X166466846Y-94384720D01*
X166463317Y-94424205D01*
X166378708Y-94756025D01*
X166378045Y-94758518D01*
X166275890Y-95126961D01*
X166275175Y-95129439D01*
X166165381Y-95495663D01*
X166164615Y-95498126D01*
X166047237Y-95861954D01*
X166046419Y-95864401D01*
X165921492Y-96225723D01*
X165920624Y-96228153D01*
X165788184Y-96586859D01*
X165787265Y-96589269D01*
X165647422Y-96945066D01*
X165646453Y-96947458D01*
X165499226Y-97300295D01*
X165498208Y-97302665D01*
X165343673Y-97652365D01*
X165342606Y-97654714D01*
X165180838Y-98001104D01*
X165179722Y-98003430D01*
X165010765Y-98346413D01*
X165009601Y-98348715D01*
X164833545Y-98688113D01*
X164832333Y-98690390D01*
X164649276Y-99026013D01*
X164648030Y-99028242D01*
X164529775Y-99234716D01*
X164458013Y-99360012D01*
X164456708Y-99362236D01*
X164259845Y-99689958D01*
X164258494Y-99692156D01*
X164054829Y-100015753D01*
X164053432Y-100017922D01*
X163843086Y-100337200D01*
X163841656Y-100339322D01*
X163624696Y-100654182D01*
X163623239Y-100656251D01*
X163399823Y-100966461D01*
X163398294Y-100968538D01*
X163338340Y-101048234D01*
X163282308Y-101089973D01*
X163212605Y-101094793D01*
X163151361Y-101061163D01*
X163122207Y-101014643D01*
X163091402Y-100926606D01*
X162954926Y-100643211D01*
X162787577Y-100376877D01*
X162591461Y-100130956D01*
X162369044Y-99908539D01*
X162123123Y-99712423D01*
X161856789Y-99545074D01*
X161856786Y-99545072D01*
X161573395Y-99408598D01*
X161276501Y-99304711D01*
X161276499Y-99304710D01*
X160969843Y-99234718D01*
X160969827Y-99234716D01*
X160657277Y-99199500D01*
X160657273Y-99199500D01*
X160342727Y-99199500D01*
X160342722Y-99199500D01*
X160030172Y-99234716D01*
X160030156Y-99234718D01*
X159723500Y-99304710D01*
X159723498Y-99304711D01*
X159426604Y-99408598D01*
X159143213Y-99545072D01*
X158876878Y-99712422D01*
X158630956Y-99908538D01*
X158408538Y-100130956D01*
X158212422Y-100376878D01*
X158045072Y-100643213D01*
X157908598Y-100926604D01*
X157804711Y-101223498D01*
X157804710Y-101223500D01*
X157734718Y-101530156D01*
X157734716Y-101530172D01*
X157699500Y-101842722D01*
X157699500Y-102157277D01*
X157734716Y-102469827D01*
X157734718Y-102469843D01*
X157804710Y-102776499D01*
X157804711Y-102776501D01*
X157908598Y-103073395D01*
X158045072Y-103356786D01*
X158045074Y-103356789D01*
X158212423Y-103623123D01*
X158408539Y-103869044D01*
X158630956Y-104091461D01*
X158876877Y-104287577D01*
X159143211Y-104454926D01*
X159426606Y-104591402D01*
X159514693Y-104622224D01*
X159571468Y-104662945D01*
X159597216Y-104727898D01*
X159583760Y-104796460D01*
X159547248Y-104839127D01*
X159313006Y-105011559D01*
X159310913Y-105013067D01*
X158998340Y-105233281D01*
X158996215Y-105234745D01*
X158679165Y-105448385D01*
X158677011Y-105449804D01*
X158355583Y-105656803D01*
X158353400Y-105658177D01*
X158027736Y-105858443D01*
X158025524Y-105859772D01*
X157695737Y-106053237D01*
X157693499Y-106054519D01*
X157359799Y-106241058D01*
X157357534Y-106242293D01*
X157020004Y-106421862D01*
X157017714Y-106423050D01*
X156676505Y-106595565D01*
X156674190Y-106596705D01*
X156329524Y-106762056D01*
X156327187Y-106763148D01*
X155979057Y-106921339D01*
X155976698Y-106922381D01*
X155625468Y-107073246D01*
X155623086Y-107074240D01*
X155268730Y-107217790D01*
X155266329Y-107218734D01*
X154909052Y-107354885D01*
X154906633Y-107355778D01*
X154546612Y-107484465D01*
X154544173Y-107485308D01*
X154181571Y-107606469D01*
X154179116Y-107607261D01*
X153814071Y-107720854D01*
X153811599Y-107721595D01*
X153444239Y-107827576D01*
X153441754Y-107828265D01*
X153072327Y-107926567D01*
X153069827Y-107927205D01*
X152698356Y-108017820D01*
X152695843Y-108018405D01*
X152322633Y-108101256D01*
X152320109Y-108101789D01*
X151945211Y-108176868D01*
X151942676Y-108177348D01*
X151566321Y-108244606D01*
X151563778Y-108245033D01*
X151186137Y-108304444D01*
X151183584Y-108304819D01*
X150804719Y-108356369D01*
X150802159Y-108356690D01*
X150422354Y-108400342D01*
X150419788Y-108400610D01*
X150039116Y-108436354D01*
X150036545Y-108436568D01*
X149655265Y-108464381D01*
X149652691Y-108464542D01*
X149270913Y-108484418D01*
X149268335Y-108484526D01*
X148886137Y-108496457D01*
X148883558Y-108496510D01*
X148501290Y-108500487D01*
X148498710Y-108500487D01*
X148116441Y-108496510D01*
X148113862Y-108496457D01*
X147731664Y-108484526D01*
X147729086Y-108484418D01*
X147347308Y-108464542D01*
X147344734Y-108464381D01*
X146963454Y-108436568D01*
X146960883Y-108436354D01*
X146580211Y-108400610D01*
X146577645Y-108400342D01*
X146197840Y-108356690D01*
X146195280Y-108356369D01*
X145816415Y-108304819D01*
X145813862Y-108304444D01*
X145436221Y-108245033D01*
X145433678Y-108244606D01*
X145057323Y-108177348D01*
X145054788Y-108176868D01*
X144679890Y-108101789D01*
X144677366Y-108101256D01*
X144304156Y-108018405D01*
X144301643Y-108017820D01*
X143930172Y-107927205D01*
X143927672Y-107926567D01*
X143558245Y-107828265D01*
X143555760Y-107827576D01*
X143188400Y-107721595D01*
X143185942Y-107720858D01*
X143114083Y-107698497D01*
X142820883Y-107607261D01*
X142818428Y-107606469D01*
X142455826Y-107485308D01*
X142453387Y-107484465D01*
X142093366Y-107355778D01*
X142090947Y-107354885D01*
X141733670Y-107218734D01*
X141731269Y-107217790D01*
X141376913Y-107074240D01*
X141374567Y-107073261D01*
X141023301Y-106922381D01*
X141020942Y-106921339D01*
X140672812Y-106763148D01*
X140670475Y-106762056D01*
X140325809Y-106596705D01*
X140323494Y-106595565D01*
X139982285Y-106423050D01*
X139979995Y-106421862D01*
X139642465Y-106242293D01*
X139640225Y-106241071D01*
X139306500Y-106054519D01*
X139304262Y-106053237D01*
X138974475Y-105859772D01*
X138972263Y-105858443D01*
X138646599Y-105658177D01*
X138644416Y-105656803D01*
X138322988Y-105449804D01*
X138320834Y-105448385D01*
X138003784Y-105234745D01*
X138001659Y-105233281D01*
X137964897Y-105207381D01*
X137689053Y-105013043D01*
X137687028Y-105011584D01*
X137452749Y-104839126D01*
X137410430Y-104783532D01*
X137404886Y-104713883D01*
X137437877Y-104652292D01*
X137485304Y-104622225D01*
X137548582Y-104600083D01*
X137573392Y-104591403D01*
X137573392Y-104591402D01*
X137573394Y-104591402D01*
X137856789Y-104454926D01*
X138123123Y-104287577D01*
X138369044Y-104091461D01*
X138591461Y-103869044D01*
X138787577Y-103623123D01*
X138954926Y-103356789D01*
X139091402Y-103073394D01*
X139195289Y-102776500D01*
X139265282Y-102469840D01*
X139300500Y-102157273D01*
X139300500Y-101842727D01*
X139265282Y-101530160D01*
X139195289Y-101223500D01*
X139091402Y-100926606D01*
X138954926Y-100643211D01*
X138787577Y-100376877D01*
X138591461Y-100130956D01*
X138369044Y-99908539D01*
X138123123Y-99712423D01*
X137856789Y-99545074D01*
X137856786Y-99545072D01*
X137573395Y-99408598D01*
X137276501Y-99304711D01*
X137276499Y-99304710D01*
X136969843Y-99234718D01*
X136969827Y-99234716D01*
X136657277Y-99199500D01*
X136657273Y-99199500D01*
X136342727Y-99199500D01*
X136342722Y-99199500D01*
X136030172Y-99234716D01*
X136030156Y-99234718D01*
X135723500Y-99304710D01*
X135723498Y-99304711D01*
X135426604Y-99408598D01*
X135143213Y-99545072D01*
X134876878Y-99712422D01*
X134630956Y-99908538D01*
X134408538Y-100130956D01*
X134212422Y-100376878D01*
X134045072Y-100643213D01*
X133908597Y-100926606D01*
X133908594Y-100926613D01*
X133877791Y-101014644D01*
X133871861Y-101022911D01*
X133869722Y-101032859D01*
X133851840Y-101050824D01*
X133837069Y-101071420D01*
X133827610Y-101075169D01*
X133820434Y-101082380D01*
X133795680Y-101087826D01*
X133772117Y-101097167D01*
X133762133Y-101095207D01*
X133752196Y-101097394D01*
X133728427Y-101088592D01*
X133703555Y-101083711D01*
X133694469Y-101076017D01*
X133686674Y-101073131D01*
X133661659Y-101048234D01*
X133601705Y-100968538D01*
X133600200Y-100966494D01*
X133376697Y-100656161D01*
X133375347Y-100654246D01*
X133158298Y-100339257D01*
X133156913Y-100337200D01*
X132946567Y-100017922D01*
X132945170Y-100015753D01*
X132877691Y-99908538D01*
X132741471Y-99692101D01*
X132740189Y-99690015D01*
X132543275Y-99362209D01*
X132542025Y-99360079D01*
X132351928Y-99028170D01*
X132350754Y-99026069D01*
X132167666Y-98690390D01*
X132166454Y-98688113D01*
X131990398Y-98348715D01*
X131989234Y-98346413D01*
X131820277Y-98003430D01*
X131819180Y-98001145D01*
X131657345Y-97654609D01*
X131656358Y-97652435D01*
X131501775Y-97302628D01*
X131500773Y-97300295D01*
X131467338Y-97220166D01*
X131353527Y-96947413D01*
X131352595Y-96945112D01*
X131212718Y-96589228D01*
X131211815Y-96586859D01*
X131207808Y-96576005D01*
X131079359Y-96228109D01*
X131078523Y-96225770D01*
X130953571Y-95864376D01*
X130952790Y-95862038D01*
X130835373Y-95498090D01*
X130834618Y-95495664D01*
X130830882Y-95483202D01*
X130784943Y-95329972D01*
X130784547Y-95260106D01*
X130821988Y-95201114D01*
X130885378Y-95171729D01*
X130954591Y-95181280D01*
X130960016Y-95183880D01*
X131053588Y-95231557D01*
X131255757Y-95297246D01*
X131465713Y-95330500D01*
X131465714Y-95330500D01*
X131678286Y-95330500D01*
X131678287Y-95330500D01*
X131888243Y-95297246D01*
X132090412Y-95231557D01*
X132214294Y-95168435D01*
X132282962Y-95155540D01*
X132347702Y-95181816D01*
X132358269Y-95191240D01*
X133165489Y-95998460D01*
X133206007Y-96021853D01*
X133234008Y-96038020D01*
X133234012Y-96038022D01*
X133310438Y-96058500D01*
X133310440Y-96058500D01*
X138215560Y-96058500D01*
X138215562Y-96058500D01*
X138291989Y-96038021D01*
X138360511Y-95998460D01*
X138416460Y-95942511D01*
X141490719Y-92868250D01*
X141552040Y-92834767D01*
X141609705Y-92837086D01*
X141609820Y-92836510D01*
X141613479Y-92837237D01*
X141614401Y-92837275D01*
X141615790Y-92837696D01*
X141615795Y-92837698D01*
X141615799Y-92837698D01*
X141615800Y-92837699D01*
X141765615Y-92867499D01*
X141765619Y-92867500D01*
X141765620Y-92867500D01*
X141918381Y-92867500D01*
X141918382Y-92867499D01*
X142068205Y-92837698D01*
X142209337Y-92779239D01*
X142336352Y-92694370D01*
X142444370Y-92586352D01*
X142444372Y-92586348D01*
X142447483Y-92583238D01*
X142508806Y-92549753D01*
X142578498Y-92554737D01*
X142634432Y-92596608D01*
X142642551Y-92608918D01*
X142681520Y-92676413D01*
X142681522Y-92676415D01*
X143268036Y-93262929D01*
X143301521Y-93324252D01*
X143303713Y-93363211D01*
X143296500Y-93433813D01*
X143296500Y-93967181D01*
X143306563Y-94065683D01*
X143359450Y-94225284D01*
X143359455Y-94225295D01*
X143447716Y-94368387D01*
X143447719Y-94368391D01*
X143479647Y-94400319D01*
X143513132Y-94461642D01*
X143508148Y-94531334D01*
X143479647Y-94575681D01*
X143447719Y-94607608D01*
X143447716Y-94607612D01*
X143359455Y-94750704D01*
X143359450Y-94750715D01*
X143338346Y-94814404D01*
X143306564Y-94910315D01*
X143306564Y-94910316D01*
X143306563Y-94910316D01*
X143296500Y-95008818D01*
X143296500Y-95542181D01*
X143306563Y-95640683D01*
X143359450Y-95800284D01*
X143359455Y-95800295D01*
X143447716Y-95943387D01*
X143447719Y-95943391D01*
X143566608Y-96062280D01*
X143566612Y-96062283D01*
X143709704Y-96150544D01*
X143709707Y-96150545D01*
X143709713Y-96150549D01*
X143869315Y-96203436D01*
X143967826Y-96213500D01*
X143967831Y-96213500D01*
X144576169Y-96213500D01*
X144576174Y-96213500D01*
X144674685Y-96203436D01*
X144834287Y-96150549D01*
X144977391Y-96062281D01*
X145017820Y-96021851D01*
X145079141Y-95988367D01*
X145148832Y-95993351D01*
X145204766Y-96035221D01*
X145229184Y-96100686D01*
X145229500Y-96109533D01*
X145229500Y-96467169D01*
X145229501Y-96467191D01*
X145232335Y-96503205D01*
X145277129Y-96657388D01*
X145277131Y-96657393D01*
X145358863Y-96795595D01*
X145358869Y-96795603D01*
X145472396Y-96909130D01*
X145472400Y-96909133D01*
X145472402Y-96909135D01*
X145610607Y-96990869D01*
X145632898Y-96997345D01*
X145764791Y-97035664D01*
X145764794Y-97035664D01*
X145764796Y-97035665D01*
X145800819Y-97038500D01*
X146299180Y-97038499D01*
X146335204Y-97035665D01*
X146489393Y-96990869D01*
X146627598Y-96909135D01*
X146741135Y-96795598D01*
X146822869Y-96657393D01*
X146822870Y-96657386D01*
X146825969Y-96650230D01*
X146827263Y-96650790D01*
X146860328Y-96599018D01*
X146923801Y-96569813D01*
X146941797Y-96568500D01*
X147878167Y-96568500D01*
X147945206Y-96588185D01*
X147965848Y-96604819D01*
X148307751Y-96946722D01*
X148341236Y-97008045D01*
X148339845Y-97066496D01*
X148333727Y-97089327D01*
X148333725Y-97089339D01*
X148316500Y-97220166D01*
X148316500Y-97851833D01*
X148333724Y-97982658D01*
X148367800Y-98109829D01*
X148418302Y-98231750D01*
X148418303Y-98231751D01*
X148484120Y-98345749D01*
X148484132Y-98345767D01*
X148564455Y-98450444D01*
X148564459Y-98450449D01*
X148657551Y-98543541D01*
X148657555Y-98543544D01*
X148762232Y-98623867D01*
X148762236Y-98623869D01*
X148762243Y-98623875D01*
X148762250Y-98623879D01*
X148876248Y-98689696D01*
X148876249Y-98689697D01*
X148876252Y-98689698D01*
X148876257Y-98689701D01*
X148998171Y-98740200D01*
X149125338Y-98774275D01*
X149256174Y-98791500D01*
X149256181Y-98791500D01*
X149822000Y-98791500D01*
X149893940Y-98786355D01*
X150031992Y-98745819D01*
X150153032Y-98668031D01*
X150247254Y-98559294D01*
X150307024Y-98428416D01*
X150327500Y-98286000D01*
X150327500Y-96786000D01*
X150322355Y-96714060D01*
X150281819Y-96576008D01*
X150235031Y-96503204D01*
X150204032Y-96454969D01*
X150204028Y-96454965D01*
X150095299Y-96360750D01*
X150095297Y-96360748D01*
X150095294Y-96360746D01*
X150095290Y-96360744D01*
X149964419Y-96300976D01*
X149964414Y-96300975D01*
X149822000Y-96280500D01*
X149256174Y-96280500D01*
X149256166Y-96280500D01*
X149125341Y-96297724D01*
X148998170Y-96331800D01*
X148876249Y-96382302D01*
X148876248Y-96382303D01*
X148779251Y-96438305D01*
X148711351Y-96454778D01*
X148645324Y-96431926D01*
X148629570Y-96418599D01*
X148238511Y-96027540D01*
X148228660Y-96021853D01*
X148222851Y-96018499D01*
X148222848Y-96018497D01*
X148169994Y-95987981D01*
X148169991Y-95987979D01*
X148131775Y-95977739D01*
X148093562Y-95967500D01*
X148093560Y-95967500D01*
X146941797Y-95967500D01*
X146874758Y-95947815D01*
X146832702Y-95902442D01*
X146826410Y-95890797D01*
X146822869Y-95878607D01*
X146787646Y-95819048D01*
X146786508Y-95816942D01*
X146779718Y-95785048D01*
X146771688Y-95753398D01*
X146772437Y-95750846D01*
X146771960Y-95748604D01*
X146777045Y-95735151D01*
X146788869Y-95694882D01*
X146822869Y-95637393D01*
X146840706Y-95576000D01*
X146867664Y-95483208D01*
X146867665Y-95483202D01*
X146870499Y-95447188D01*
X146870500Y-95447181D01*
X146870499Y-95048820D01*
X146867665Y-95012796D01*
X146822869Y-94858607D01*
X146741135Y-94720402D01*
X146741133Y-94720400D01*
X146741130Y-94720396D01*
X146634773Y-94614039D01*
X146601288Y-94552716D01*
X146606272Y-94483024D01*
X146648144Y-94427091D01*
X146657339Y-94420831D01*
X146743044Y-94367968D01*
X146837571Y-94273440D01*
X146898890Y-94239958D01*
X146949438Y-94239507D01*
X146989620Y-94247500D01*
X146989621Y-94247500D01*
X147142381Y-94247500D01*
X147142382Y-94247499D01*
X147292205Y-94217698D01*
X147433337Y-94159239D01*
X147560352Y-94074370D01*
X147668370Y-93966352D01*
X147694257Y-93927608D01*
X147747868Y-93882805D01*
X147797359Y-93872500D01*
X157610725Y-93872500D01*
X157610727Y-93872500D01*
X157712588Y-93845207D01*
X157803913Y-93792480D01*
X159635448Y-91960943D01*
X159696769Y-91927460D01*
X159766460Y-91932444D01*
X159822394Y-91974316D01*
X159846811Y-92039780D01*
X159837688Y-92096078D01*
X159782303Y-92229790D01*
X159782300Y-92229802D01*
X159752500Y-92379615D01*
X159752500Y-92532384D01*
X159782300Y-92682197D01*
X159782302Y-92682205D01*
X159840759Y-92823334D01*
X159840764Y-92823343D01*
X159925629Y-92950351D01*
X159925632Y-92950355D01*
X160033644Y-93058367D01*
X160033648Y-93058370D01*
X160160656Y-93143235D01*
X160160662Y-93143238D01*
X160160663Y-93143239D01*
X160301795Y-93201698D01*
X160419274Y-93225066D01*
X160451615Y-93231499D01*
X160451619Y-93231500D01*
X160451620Y-93231500D01*
X160604381Y-93231500D01*
X160604382Y-93231499D01*
X160754205Y-93201698D01*
X160895337Y-93143239D01*
X161022352Y-93058370D01*
X161130370Y-92950352D01*
X161215239Y-92823337D01*
X161273698Y-92682205D01*
X161303500Y-92532380D01*
X161303500Y-92379620D01*
X161273698Y-92229795D01*
X161273696Y-92229790D01*
X161273275Y-92228401D01*
X161273268Y-92227631D01*
X161272510Y-92223820D01*
X161273232Y-92223676D01*
X161273148Y-92214381D01*
X161268249Y-92201244D01*
X161272841Y-92180134D01*
X161272647Y-92158534D01*
X161280419Y-92145299D01*
X161283101Y-92132971D01*
X161304249Y-92104720D01*
X161468409Y-91940560D01*
X161529730Y-91907077D01*
X161599422Y-91912061D01*
X161619204Y-91921509D01*
X161619602Y-91921744D01*
X161619605Y-91921744D01*
X161619607Y-91921746D01*
X161777426Y-91967597D01*
X161777429Y-91967597D01*
X161777431Y-91967598D01*
X161814306Y-91970500D01*
X161814314Y-91970500D01*
X163195686Y-91970500D01*
X163195694Y-91970500D01*
X163232569Y-91967598D01*
X163232571Y-91967597D01*
X163232573Y-91967597D01*
X163274191Y-91955505D01*
X163390398Y-91921744D01*
X163531865Y-91838081D01*
X163648081Y-91721865D01*
X163731744Y-91580398D01*
X163777598Y-91422569D01*
X163780500Y-91385694D01*
X163780500Y-90954306D01*
X163777598Y-90917431D01*
X163773755Y-90904205D01*
X163731745Y-90759606D01*
X163731744Y-90759602D01*
X163728658Y-90754384D01*
X163716084Y-90733122D01*
X163698900Y-90665399D01*
X163716084Y-90606878D01*
X163731742Y-90580401D01*
X163731744Y-90580398D01*
X163777598Y-90422569D01*
X163780500Y-90385694D01*
X163780500Y-89954306D01*
X163777598Y-89917431D01*
X163731744Y-89759602D01*
X163716084Y-89733122D01*
X163698900Y-89665399D01*
X163716084Y-89606878D01*
X163725939Y-89590213D01*
X163731744Y-89580398D01*
X163765505Y-89464191D01*
X163777597Y-89422573D01*
X163777598Y-89422567D01*
X163780499Y-89385701D01*
X163780500Y-89385694D01*
X163780500Y-88954306D01*
X163777598Y-88917431D01*
X163767797Y-88883697D01*
X163731745Y-88759606D01*
X163731744Y-88759602D01*
X163720370Y-88740370D01*
X163716084Y-88733122D01*
X163698900Y-88665399D01*
X163716084Y-88606878D01*
X163731742Y-88580401D01*
X163731744Y-88580398D01*
X163771094Y-88444956D01*
X163777597Y-88422573D01*
X163777598Y-88422567D01*
X163780499Y-88385701D01*
X163780500Y-88385694D01*
X163780500Y-87954306D01*
X163780500Y-87954181D01*
X163800185Y-87887142D01*
X163852989Y-87841387D01*
X163922147Y-87831443D01*
X163969594Y-87848641D01*
X164060666Y-87904814D01*
X164227203Y-87959999D01*
X164329991Y-87970500D01*
X165730008Y-87970499D01*
X165832797Y-87959999D01*
X165999334Y-87904814D01*
X166148656Y-87812712D01*
X166272712Y-87688656D01*
X166364814Y-87539334D01*
X166419999Y-87372797D01*
X166430500Y-87270009D01*
X166430499Y-86580346D01*
X166450183Y-86513308D01*
X166502987Y-86467553D01*
X166572146Y-86457609D01*
X166635702Y-86486634D01*
G37*
%TD.AperFunction*%
%TA.AperFunction,Conductor*%
G36*
X140483705Y-92185086D02*
G01*
X140483820Y-92184510D01*
X140487479Y-92185237D01*
X140488401Y-92185275D01*
X140489790Y-92185696D01*
X140489795Y-92185698D01*
X140587501Y-92205133D01*
X140639615Y-92215499D01*
X140639619Y-92215500D01*
X140639620Y-92215500D01*
X140792381Y-92215500D01*
X140792381Y-92215499D01*
X140942205Y-92185698D01*
X140942207Y-92185696D01*
X140943464Y-92185447D01*
X140951553Y-92186170D01*
X140959174Y-92183354D01*
X140985851Y-92189239D01*
X141013056Y-92191674D01*
X141019470Y-92196656D01*
X141027403Y-92198407D01*
X141046663Y-92217781D01*
X141068233Y-92234537D01*
X141072200Y-92243469D01*
X141076662Y-92247957D01*
X141087403Y-92277695D01*
X141088899Y-92281062D01*
X141089103Y-92282014D01*
X141096302Y-92318205D01*
X141097468Y-92321021D01*
X141099308Y-92329598D01*
X141097081Y-92359500D01*
X141097345Y-92389485D01*
X141094485Y-92394353D01*
X141094119Y-92399275D01*
X141082651Y-92414500D01*
X141065746Y-92443281D01*
X138087848Y-95421181D01*
X138026525Y-95454666D01*
X138000167Y-95457500D01*
X135331491Y-95457500D01*
X135264452Y-95437815D01*
X135218697Y-95385011D01*
X135208753Y-95315853D01*
X135237778Y-95252297D01*
X135257180Y-95234234D01*
X135295357Y-95205653D01*
X135319546Y-95187546D01*
X135405796Y-95072331D01*
X135456091Y-94937483D01*
X135462500Y-94877873D01*
X135462500Y-94404500D01*
X135482185Y-94337461D01*
X135534989Y-94291706D01*
X135586500Y-94280500D01*
X138215560Y-94280500D01*
X138215562Y-94280500D01*
X138291989Y-94260021D01*
X138360511Y-94220460D01*
X138416460Y-94164511D01*
X140364719Y-92216250D01*
X140426040Y-92182767D01*
X140483705Y-92185086D01*
G37*
%TD.AperFunction*%
%TA.AperFunction,Conductor*%
G36*
X140832784Y-90095185D02*
G01*
X140853426Y-90111819D01*
X141846496Y-91104889D01*
X141851560Y-91114164D01*
X141859866Y-91120704D01*
X141868017Y-91144302D01*
X141879981Y-91166212D01*
X141879227Y-91176754D01*
X141882678Y-91186745D01*
X141876777Y-91211002D01*
X141874997Y-91235904D01*
X141868662Y-91244365D01*
X141866165Y-91254635D01*
X141848084Y-91271853D01*
X141833125Y-91291837D01*
X141822954Y-91295786D01*
X141815569Y-91302820D01*
X141782209Y-91314343D01*
X141770981Y-91316500D01*
X141765620Y-91316500D01*
X141615795Y-91346302D01*
X141615747Y-91346321D01*
X141613737Y-91346708D01*
X141579349Y-91343403D01*
X141544942Y-91340325D01*
X141544607Y-91340065D01*
X141544187Y-91340025D01*
X141517073Y-91318675D01*
X141489765Y-91297462D01*
X141489624Y-91297062D01*
X141489292Y-91296801D01*
X141468726Y-91249127D01*
X141461698Y-91213795D01*
X141403239Y-91072663D01*
X141403238Y-91072662D01*
X141403235Y-91072656D01*
X141318370Y-90945648D01*
X141318367Y-90945644D01*
X141210355Y-90837632D01*
X141210351Y-90837629D01*
X141083343Y-90752764D01*
X141083334Y-90752759D01*
X140942205Y-90694302D01*
X140942197Y-90694300D01*
X140792384Y-90664500D01*
X140792380Y-90664500D01*
X140639620Y-90664500D01*
X140639615Y-90664500D01*
X140489802Y-90694300D01*
X140489794Y-90694302D01*
X140348665Y-90752759D01*
X140348656Y-90752764D01*
X140221648Y-90837629D01*
X140221644Y-90837632D01*
X140113632Y-90945644D01*
X140113629Y-90945648D01*
X140028764Y-91072656D01*
X140028759Y-91072665D01*
X139970302Y-91213794D01*
X139970300Y-91213802D01*
X139940500Y-91363615D01*
X139940500Y-91516384D01*
X139970301Y-91666204D01*
X139970730Y-91667618D01*
X139970736Y-91668393D01*
X139971490Y-91672180D01*
X139970771Y-91672322D01*
X139971345Y-91737485D01*
X139939746Y-91791281D01*
X138087848Y-93643181D01*
X138026525Y-93676666D01*
X138000167Y-93679500D01*
X135586499Y-93679500D01*
X135519460Y-93659815D01*
X135473705Y-93607011D01*
X135462499Y-93555500D01*
X135462499Y-93082129D01*
X135462498Y-93082123D01*
X135462410Y-93081308D01*
X135456091Y-93022517D01*
X135454810Y-93019083D01*
X135405797Y-92887671D01*
X135405793Y-92887664D01*
X135319547Y-92772455D01*
X135319544Y-92772452D01*
X135204335Y-92686206D01*
X135204328Y-92686202D01*
X135072917Y-92637189D01*
X135016983Y-92595318D01*
X134992566Y-92529853D01*
X135007418Y-92461580D01*
X135028563Y-92433332D01*
X135142104Y-92319792D01*
X135145337Y-92315343D01*
X135231567Y-92196656D01*
X135267051Y-92147816D01*
X135363557Y-91958412D01*
X135429246Y-91756243D01*
X135462500Y-91546287D01*
X135462500Y-91333713D01*
X135429246Y-91123757D01*
X135363557Y-90921588D01*
X135363555Y-90921585D01*
X135363555Y-90921583D01*
X135348172Y-90891393D01*
X135335275Y-90822724D01*
X135361550Y-90757983D01*
X135370966Y-90747426D01*
X136006574Y-90111819D01*
X136067897Y-90078334D01*
X136094255Y-90075500D01*
X140765745Y-90075500D01*
X140832784Y-90095185D01*
G37*
%TD.AperFunction*%
%TA.AperFunction,Conductor*%
G36*
X148788398Y-88075232D02*
G01*
X148799659Y-88075635D01*
X148819607Y-88089485D01*
X148841703Y-88099576D01*
X148849284Y-88110090D01*
X148857052Y-88115483D01*
X148875061Y-88145836D01*
X148918759Y-88251334D01*
X148918764Y-88251343D01*
X149003629Y-88378351D01*
X149003632Y-88378355D01*
X149111644Y-88486367D01*
X149111648Y-88486370D01*
X149238656Y-88571235D01*
X149238662Y-88571238D01*
X149238663Y-88571239D01*
X149379795Y-88629698D01*
X149508455Y-88655290D01*
X149529615Y-88659499D01*
X149529619Y-88659500D01*
X149529620Y-88659500D01*
X149682381Y-88659500D01*
X149682382Y-88659499D01*
X149832205Y-88629698D01*
X149832224Y-88629690D01*
X149833588Y-88629277D01*
X149834359Y-88629270D01*
X149838180Y-88628510D01*
X149838324Y-88629234D01*
X149847614Y-88629149D01*
X149860754Y-88624249D01*
X149881856Y-88628839D01*
X149903455Y-88628644D01*
X149916693Y-88636417D01*
X149929027Y-88639101D01*
X149957281Y-88660252D01*
X150031181Y-88734152D01*
X150064666Y-88795475D01*
X150067500Y-88821833D01*
X150067500Y-89778601D01*
X150047815Y-89845640D01*
X149995011Y-89891395D01*
X149942472Y-89900156D01*
X149942472Y-89902500D01*
X149783615Y-89902500D01*
X149633802Y-89932300D01*
X149633794Y-89932302D01*
X149492665Y-89990759D01*
X149492656Y-89990764D01*
X149365648Y-90075629D01*
X149365644Y-90075632D01*
X149257632Y-90183644D01*
X149257629Y-90183648D01*
X149172764Y-90310656D01*
X149172759Y-90310665D01*
X149114302Y-90451794D01*
X149114300Y-90451802D01*
X149084500Y-90601615D01*
X149084500Y-90754384D01*
X149114300Y-90904197D01*
X149114302Y-90904205D01*
X149145238Y-90978891D01*
X149152707Y-91048361D01*
X149121432Y-91110840D01*
X149061343Y-91146492D01*
X148991518Y-91143998D01*
X148942996Y-91114025D01*
X148672819Y-90843848D01*
X148639334Y-90782525D01*
X148636500Y-90756167D01*
X148636500Y-88193289D01*
X148639674Y-88182477D01*
X148638470Y-88171272D01*
X148649343Y-88149550D01*
X148656185Y-88126250D01*
X148664699Y-88118871D01*
X148669745Y-88108793D01*
X148690636Y-88096397D01*
X148708989Y-88080495D01*
X148720142Y-88078891D01*
X148729834Y-88073141D01*
X148754105Y-88074007D01*
X148778147Y-88070551D01*
X148788398Y-88075232D01*
G37*
%TD.AperFunction*%
%TA.AperFunction,Conductor*%
G36*
X148883582Y-71503489D02*
G01*
X148886114Y-71503541D01*
X149268403Y-71515475D01*
X149270842Y-71515578D01*
X149652715Y-71535458D01*
X149655241Y-71535616D01*
X150036594Y-71563435D01*
X150039069Y-71563641D01*
X150419864Y-71599397D01*
X150422277Y-71599649D01*
X150802196Y-71643313D01*
X150804682Y-71643625D01*
X151183618Y-71695185D01*
X151186102Y-71695549D01*
X151563778Y-71754966D01*
X151566321Y-71755393D01*
X151942726Y-71822660D01*
X151945162Y-71823121D01*
X152320109Y-71898210D01*
X152322628Y-71898742D01*
X152695890Y-71981604D01*
X152698310Y-71982168D01*
X153069845Y-72072798D01*
X153072308Y-72073427D01*
X153423535Y-72166886D01*
X153441754Y-72171734D01*
X153444239Y-72172423D01*
X153571569Y-72209156D01*
X153811649Y-72278419D01*
X153813996Y-72279122D01*
X154179116Y-72392738D01*
X154181571Y-72393530D01*
X154544230Y-72514710D01*
X154546557Y-72515515D01*
X154867718Y-72630311D01*
X154906633Y-72644221D01*
X154909052Y-72645114D01*
X155266359Y-72781277D01*
X155268699Y-72782197D01*
X155623135Y-72925779D01*
X155625384Y-72926718D01*
X155976742Y-73077637D01*
X155979057Y-73078660D01*
X156327187Y-73236851D01*
X156329525Y-73237943D01*
X156674220Y-73403308D01*
X156676477Y-73404420D01*
X157017757Y-73576971D01*
X157019962Y-73578115D01*
X157357534Y-73757706D01*
X157359741Y-73758909D01*
X157693520Y-73945492D01*
X157695737Y-73946762D01*
X158025524Y-74140227D01*
X158027736Y-74141556D01*
X158353427Y-74341839D01*
X158355556Y-74343179D01*
X158677033Y-74550209D01*
X158679165Y-74551614D01*
X158996215Y-74765254D01*
X158998325Y-74766708D01*
X159310964Y-74986968D01*
X159312953Y-74988402D01*
X159463899Y-75099517D01*
X159547248Y-75160872D01*
X159589568Y-75216467D01*
X159595112Y-75286117D01*
X159562121Y-75347707D01*
X159514693Y-75377774D01*
X159426613Y-75408594D01*
X159426606Y-75408597D01*
X159143213Y-75545072D01*
X158876878Y-75712422D01*
X158630956Y-75908538D01*
X158408538Y-76130956D01*
X158212422Y-76376878D01*
X158045072Y-76643213D01*
X157908598Y-76926604D01*
X157804711Y-77223498D01*
X157804710Y-77223500D01*
X157734718Y-77530156D01*
X157734716Y-77530172D01*
X157699500Y-77842722D01*
X157699500Y-78157277D01*
X157734716Y-78469827D01*
X157734718Y-78469843D01*
X157804710Y-78776499D01*
X157804711Y-78776501D01*
X157908598Y-79073395D01*
X158045072Y-79356786D01*
X158045074Y-79356789D01*
X158212423Y-79623123D01*
X158408539Y-79869044D01*
X158630956Y-80091461D01*
X158876877Y-80287577D01*
X159143211Y-80454926D01*
X159426606Y-80591402D01*
X159723500Y-80695289D01*
X160030160Y-80765282D01*
X160342723Y-80800499D01*
X160342724Y-80800500D01*
X160342727Y-80800500D01*
X160657276Y-80800500D01*
X160657276Y-80800499D01*
X160969840Y-80765282D01*
X161276500Y-80695289D01*
X161573394Y-80591402D01*
X161856789Y-80454926D01*
X162123123Y-80287577D01*
X162369044Y-80091461D01*
X162591461Y-79869044D01*
X162787577Y-79623123D01*
X162954926Y-79356789D01*
X163091402Y-79073394D01*
X163122208Y-78985354D01*
X163128137Y-78977087D01*
X163130277Y-78967140D01*
X163148155Y-78949177D01*
X163162928Y-78928580D01*
X163172387Y-78924829D01*
X163179565Y-78917619D01*
X163204317Y-78912172D01*
X163227881Y-78902832D01*
X163237865Y-78904791D01*
X163247803Y-78902605D01*
X163271573Y-78911407D01*
X163296442Y-78916288D01*
X163305526Y-78923980D01*
X163313325Y-78926868D01*
X163338340Y-78951765D01*
X163398294Y-79031461D01*
X163399810Y-79033521D01*
X163623288Y-79343818D01*
X163624665Y-79345772D01*
X163841686Y-79660721D01*
X163843086Y-79662799D01*
X164053432Y-79982077D01*
X164054829Y-79984246D01*
X164258494Y-80307843D01*
X164259845Y-80310041D01*
X164456708Y-80637763D01*
X164457991Y-80639949D01*
X164648053Y-80971797D01*
X164649276Y-80973986D01*
X164832333Y-81309609D01*
X164833545Y-81311886D01*
X165009601Y-81651284D01*
X165010765Y-81653586D01*
X165179722Y-81996569D01*
X165180838Y-81998895D01*
X165342634Y-82345347D01*
X165343673Y-82347634D01*
X165498208Y-82697334D01*
X165499226Y-82699704D01*
X165646453Y-83052541D01*
X165647422Y-83054933D01*
X165787265Y-83410730D01*
X165788184Y-83413140D01*
X165920624Y-83771846D01*
X165921492Y-83774276D01*
X166046419Y-84135598D01*
X166047237Y-84138045D01*
X166164615Y-84501873D01*
X166165381Y-84504336D01*
X166275175Y-84870560D01*
X166275890Y-84873038D01*
X166378045Y-85241481D01*
X166378708Y-85243974D01*
X166473161Y-85614403D01*
X166473773Y-85616909D01*
X166560514Y-85989282D01*
X166561073Y-85991801D01*
X166583070Y-86095999D01*
X166577657Y-86165659D01*
X166535443Y-86221334D01*
X166469830Y-86245348D01*
X166401649Y-86230077D01*
X166356205Y-86186709D01*
X166272712Y-86051344D01*
X166148656Y-85927288D01*
X166051455Y-85867334D01*
X165999336Y-85835187D01*
X165999331Y-85835185D01*
X165997862Y-85834698D01*
X165832797Y-85780001D01*
X165832795Y-85780000D01*
X165730010Y-85769500D01*
X164329998Y-85769500D01*
X164329981Y-85769501D01*
X164227203Y-85780000D01*
X164227200Y-85780001D01*
X164060668Y-85835185D01*
X164060663Y-85835187D01*
X163911342Y-85927289D01*
X163787289Y-86051342D01*
X163695187Y-86200663D01*
X163695185Y-86200668D01*
X163677608Y-86253713D01*
X163640001Y-86367203D01*
X163640001Y-86367204D01*
X163640000Y-86367204D01*
X163629500Y-86469983D01*
X163629500Y-87270001D01*
X163629501Y-87270017D01*
X163636028Y-87333903D01*
X163623258Y-87402596D01*
X163575378Y-87453481D01*
X163507588Y-87470401D01*
X163449550Y-87453238D01*
X163425600Y-87439074D01*
X163390398Y-87418256D01*
X163390396Y-87418255D01*
X163390394Y-87418254D01*
X163232573Y-87372402D01*
X163232567Y-87372401D01*
X163195701Y-87369500D01*
X163195694Y-87369500D01*
X161814306Y-87369500D01*
X161814298Y-87369500D01*
X161777432Y-87372401D01*
X161777426Y-87372402D01*
X161619606Y-87418254D01*
X161619603Y-87418255D01*
X161478137Y-87501917D01*
X161478129Y-87501923D01*
X161361923Y-87618129D01*
X161361917Y-87618137D01*
X161278255Y-87759603D01*
X161272303Y-87780093D01*
X161234697Y-87838980D01*
X161171225Y-87868187D01*
X161153226Y-87869500D01*
X160069033Y-87869500D01*
X160001994Y-87849815D01*
X159956239Y-87797011D01*
X159954472Y-87792953D01*
X159945240Y-87770664D01*
X159860370Y-87643647D01*
X159752355Y-87535632D01*
X159752351Y-87535629D01*
X159625343Y-87450764D01*
X159625334Y-87450759D01*
X159484205Y-87392302D01*
X159484197Y-87392300D01*
X159334384Y-87362500D01*
X159334380Y-87362500D01*
X159181620Y-87362500D01*
X159181615Y-87362500D01*
X159031802Y-87392300D01*
X159031794Y-87392302D01*
X158890665Y-87450759D01*
X158890656Y-87450764D01*
X158763648Y-87535629D01*
X158763644Y-87535632D01*
X158655632Y-87643644D01*
X158655629Y-87643648D01*
X158570764Y-87770656D01*
X158570759Y-87770665D01*
X158512302Y-87911794D01*
X158512300Y-87911802D01*
X158482500Y-88061615D01*
X158482500Y-88214384D01*
X158512300Y-88364197D01*
X158512302Y-88364205D01*
X158570759Y-88505334D01*
X158570764Y-88505343D01*
X158655629Y-88632351D01*
X158655632Y-88632355D01*
X158763644Y-88740367D01*
X158763648Y-88740370D01*
X158890656Y-88825235D01*
X158890665Y-88825240D01*
X158898835Y-88828624D01*
X159031795Y-88883698D01*
X159181615Y-88913499D01*
X159181619Y-88913500D01*
X159181620Y-88913500D01*
X159334381Y-88913500D01*
X159334382Y-88913499D01*
X159484205Y-88883698D01*
X159625337Y-88825239D01*
X159752352Y-88740370D01*
X159860370Y-88632352D01*
X159931694Y-88525609D01*
X159937785Y-88520518D01*
X159941083Y-88513297D01*
X159964210Y-88498433D01*
X159985306Y-88480804D01*
X159994680Y-88478852D01*
X159999861Y-88475523D01*
X160034796Y-88470500D01*
X160074027Y-88470500D01*
X160141066Y-88490185D01*
X160186821Y-88542989D01*
X160196765Y-88612147D01*
X160177129Y-88663391D01*
X160094764Y-88786657D01*
X160094759Y-88786665D01*
X160036302Y-88927794D01*
X160036300Y-88927802D01*
X160006500Y-89077615D01*
X160006500Y-89230384D01*
X160036300Y-89380197D01*
X160036302Y-89380205D01*
X160094759Y-89521334D01*
X160094764Y-89521343D01*
X160179629Y-89648351D01*
X160179632Y-89648355D01*
X160215733Y-89684456D01*
X160249218Y-89745779D01*
X160244234Y-89815471D01*
X160203539Y-89870512D01*
X160086966Y-89959962D01*
X160086965Y-89959963D01*
X160086964Y-89959964D01*
X159998209Y-90075632D01*
X159996719Y-90077574D01*
X159939991Y-90214527D01*
X159939990Y-90214529D01*
X159925500Y-90324597D01*
X159925500Y-90486743D01*
X159905815Y-90553782D01*
X159889181Y-90574424D01*
X157428426Y-93035181D01*
X157367103Y-93068666D01*
X157340745Y-93071500D01*
X153456335Y-93071500D01*
X153389296Y-93051815D01*
X153343541Y-92999011D01*
X153333597Y-92929853D01*
X153341774Y-92900048D01*
X153389525Y-92784764D01*
X153399698Y-92760205D01*
X153429500Y-92610380D01*
X153429500Y-92457620D01*
X153399698Y-92307795D01*
X153348870Y-92185086D01*
X153341240Y-92166665D01*
X153341235Y-92166656D01*
X153256370Y-92039648D01*
X153256367Y-92039644D01*
X153244819Y-92028096D01*
X153211334Y-91966773D01*
X153208500Y-91940415D01*
X153208500Y-88935286D01*
X153228185Y-88868247D01*
X153270598Y-88829114D01*
X153270271Y-88828624D01*
X153273383Y-88826544D01*
X153274058Y-88825922D01*
X153275325Y-88825243D01*
X153275337Y-88825239D01*
X153402352Y-88740370D01*
X153510370Y-88632352D01*
X153595239Y-88505337D01*
X153653698Y-88364205D01*
X153683500Y-88214380D01*
X153683500Y-88061620D01*
X153653698Y-87911795D01*
X153595239Y-87770663D01*
X153595238Y-87770662D01*
X153595235Y-87770656D01*
X153510370Y-87643648D01*
X153510367Y-87643644D01*
X153402355Y-87535632D01*
X153402351Y-87535629D01*
X153275343Y-87450764D01*
X153275334Y-87450759D01*
X153134205Y-87392302D01*
X153134197Y-87392300D01*
X152984384Y-87362500D01*
X152984380Y-87362500D01*
X152831620Y-87362500D01*
X152831615Y-87362500D01*
X152681802Y-87392300D01*
X152681794Y-87392302D01*
X152540665Y-87450759D01*
X152540656Y-87450764D01*
X152413648Y-87535629D01*
X152413644Y-87535632D01*
X152305632Y-87643644D01*
X152305629Y-87643648D01*
X152220764Y-87770656D01*
X152220759Y-87770665D01*
X152162302Y-87911794D01*
X152162300Y-87911802D01*
X152132500Y-88061615D01*
X152132500Y-88214384D01*
X152162300Y-88364197D01*
X152162302Y-88364205D01*
X152220759Y-88505334D01*
X152220764Y-88505343D01*
X152305629Y-88632351D01*
X152305632Y-88632355D01*
X152413644Y-88740367D01*
X152413648Y-88740370D01*
X152540663Y-88825239D01*
X152540670Y-88825241D01*
X152541942Y-88825922D01*
X152542488Y-88826458D01*
X152545729Y-88828624D01*
X152545318Y-88829238D01*
X152591791Y-88874879D01*
X152607500Y-88935286D01*
X152607500Y-91650792D01*
X152587815Y-91717831D01*
X152535011Y-91763586D01*
X152507691Y-91772409D01*
X152427802Y-91788300D01*
X152427794Y-91788302D01*
X152286665Y-91846759D01*
X152286656Y-91846764D01*
X152159648Y-91931629D01*
X152159644Y-91931632D01*
X152051632Y-92039644D01*
X152051629Y-92039648D01*
X151966764Y-92166656D01*
X151966759Y-92166665D01*
X151908302Y-92307794D01*
X151908300Y-92307802D01*
X151878500Y-92457615D01*
X151878500Y-92610384D01*
X151908300Y-92760197D01*
X151908303Y-92760209D01*
X151966226Y-92900048D01*
X151973695Y-92969517D01*
X151942420Y-93031996D01*
X151882331Y-93067648D01*
X151851665Y-93071500D01*
X147797359Y-93071500D01*
X147730320Y-93051815D01*
X147694257Y-93016391D01*
X147668370Y-92977648D01*
X147668368Y-92977645D01*
X147560355Y-92869632D01*
X147560351Y-92869629D01*
X147433343Y-92784764D01*
X147433334Y-92784759D01*
X147292205Y-92726302D01*
X147292197Y-92726300D01*
X147142384Y-92696500D01*
X147142380Y-92696500D01*
X146989620Y-92696500D01*
X146989615Y-92696500D01*
X146839802Y-92726299D01*
X146839798Y-92726301D01*
X146839796Y-92726301D01*
X146839795Y-92726302D01*
X146796137Y-92744385D01*
X146726670Y-92751853D01*
X146683593Y-92735362D01*
X146617137Y-92694371D01*
X146598701Y-92682999D01*
X146598698Y-92682997D01*
X146598697Y-92682997D01*
X146503168Y-92651342D01*
X146437709Y-92629651D01*
X146338346Y-92619500D01*
X145741662Y-92619500D01*
X145741644Y-92619501D01*
X145642292Y-92629650D01*
X145642289Y-92629651D01*
X145481305Y-92682996D01*
X145481294Y-92683001D01*
X145336959Y-92772029D01*
X145336955Y-92772032D01*
X145217032Y-92891955D01*
X145217030Y-92891958D01*
X145199632Y-92920163D01*
X145147683Y-92966885D01*
X145078720Y-92978105D01*
X145014639Y-92950259D01*
X145006415Y-92942743D01*
X144977391Y-92913719D01*
X144977387Y-92913716D01*
X144834295Y-92825455D01*
X144834289Y-92825452D01*
X144834287Y-92825451D01*
X144674685Y-92772564D01*
X144674683Y-92772563D01*
X144576181Y-92762500D01*
X144576174Y-92762500D01*
X143967826Y-92762500D01*
X143967823Y-92762500D01*
X143967801Y-92762501D01*
X143965238Y-92762763D01*
X143964685Y-92762660D01*
X143964670Y-92762661D01*
X143964669Y-92762657D01*
X143896548Y-92749982D01*
X143864977Y-92727084D01*
X143438819Y-92300926D01*
X143405334Y-92239603D01*
X143402500Y-92213245D01*
X143402500Y-91641275D01*
X143402500Y-91641273D01*
X143384476Y-91574010D01*
X143379648Y-91555987D01*
X143379648Y-91555986D01*
X143375207Y-91539412D01*
X143322480Y-91448087D01*
X141228913Y-89354520D01*
X141183250Y-89328156D01*
X141137589Y-89301793D01*
X141086657Y-89288146D01*
X141035727Y-89274500D01*
X135929727Y-89274500D01*
X135824273Y-89274500D01*
X135722410Y-89301793D01*
X135631087Y-89354520D01*
X135631084Y-89354522D01*
X134804582Y-90181023D01*
X134743259Y-90214508D01*
X134673567Y-90209524D01*
X134660607Y-90203827D01*
X134630417Y-90188445D01*
X134630414Y-90188444D01*
X134630412Y-90188443D01*
X134428243Y-90122754D01*
X134428241Y-90122753D01*
X134428240Y-90122753D01*
X134254180Y-90095185D01*
X134218287Y-90089500D01*
X134005713Y-90089500D01*
X133969820Y-90095185D01*
X133795760Y-90122753D01*
X133593585Y-90188444D01*
X133404179Y-90284951D01*
X133232213Y-90409890D01*
X133081890Y-90560213D01*
X132956949Y-90732182D01*
X132952484Y-90740946D01*
X132904509Y-90791742D01*
X132836688Y-90808536D01*
X132770553Y-90785998D01*
X132731516Y-90740946D01*
X132727050Y-90732182D01*
X132602109Y-90560213D01*
X132451786Y-90409890D01*
X132279820Y-90284951D01*
X132279115Y-90284591D01*
X132271054Y-90280485D01*
X132220259Y-90232512D01*
X132203463Y-90164692D01*
X132225999Y-90098556D01*
X132271054Y-90059515D01*
X132279816Y-90055051D01*
X132368300Y-89990764D01*
X132451786Y-89930109D01*
X132451788Y-89930106D01*
X132451792Y-89930104D01*
X132602104Y-89779792D01*
X132602106Y-89779788D01*
X132602109Y-89779786D01*
X132727048Y-89607820D01*
X132727047Y-89607820D01*
X132727051Y-89607816D01*
X132823557Y-89418412D01*
X132889246Y-89216243D01*
X132922500Y-89006287D01*
X132922500Y-88793713D01*
X132889246Y-88583757D01*
X132823557Y-88381588D01*
X132727051Y-88192184D01*
X132727049Y-88192181D01*
X132727048Y-88192179D01*
X132602109Y-88020213D01*
X132451786Y-87869890D01*
X132279820Y-87744951D01*
X132279115Y-87744591D01*
X132271054Y-87740485D01*
X132220259Y-87692512D01*
X132203463Y-87624692D01*
X132225999Y-87558556D01*
X132271054Y-87519515D01*
X132279816Y-87515051D01*
X132341272Y-87470401D01*
X132451786Y-87390109D01*
X132451788Y-87390106D01*
X132451792Y-87390104D01*
X132602104Y-87239792D01*
X132602106Y-87239788D01*
X132602109Y-87239786D01*
X132727048Y-87067820D01*
X132727047Y-87067820D01*
X132727051Y-87067816D01*
X132731514Y-87059054D01*
X132779488Y-87008259D01*
X132847308Y-86991463D01*
X132913444Y-87013999D01*
X132952486Y-87059056D01*
X132956951Y-87067820D01*
X133081890Y-87239786D01*
X133232213Y-87390109D01*
X133404179Y-87515048D01*
X133404181Y-87515049D01*
X133404184Y-87515051D01*
X133593588Y-87611557D01*
X133795757Y-87677246D01*
X134005713Y-87710500D01*
X134005714Y-87710500D01*
X134218286Y-87710500D01*
X134218287Y-87710500D01*
X134428243Y-87677246D01*
X134630412Y-87611557D01*
X134819816Y-87515051D01*
X134881272Y-87470401D01*
X134991786Y-87390109D01*
X134991788Y-87390106D01*
X134991792Y-87390104D01*
X135142104Y-87239792D01*
X135142106Y-87239788D01*
X135142109Y-87239786D01*
X135267048Y-87067820D01*
X135267047Y-87067820D01*
X135267051Y-87067816D01*
X135363557Y-86878412D01*
X135429246Y-86676243D01*
X135437451Y-86624438D01*
X148035500Y-86624438D01*
X148035500Y-90971562D01*
X148037319Y-90978349D01*
X148055979Y-91047990D01*
X148055982Y-91047995D01*
X148095535Y-91116504D01*
X148095541Y-91116512D01*
X148575747Y-91596718D01*
X148609232Y-91658041D01*
X148606916Y-91715707D01*
X148607490Y-91715821D01*
X148606766Y-91719459D01*
X148606729Y-91720387D01*
X148606301Y-91721797D01*
X148576500Y-91871616D01*
X148576500Y-92024384D01*
X148606300Y-92174197D01*
X148606302Y-92174205D01*
X148664759Y-92315334D01*
X148664764Y-92315343D01*
X148749629Y-92442351D01*
X148749632Y-92442355D01*
X148857644Y-92550367D01*
X148857648Y-92550370D01*
X148984656Y-92635235D01*
X148984665Y-92635240D01*
X148992671Y-92638556D01*
X149125795Y-92693698D01*
X149275615Y-92723499D01*
X149275619Y-92723500D01*
X149275620Y-92723500D01*
X149428381Y-92723500D01*
X149428382Y-92723499D01*
X149578205Y-92693698D01*
X149719337Y-92635239D01*
X149846352Y-92550370D01*
X149954370Y-92442352D01*
X150039239Y-92315337D01*
X150097698Y-92174205D01*
X150127500Y-92024380D01*
X150127500Y-91871620D01*
X150097698Y-91721795D01*
X150039239Y-91580663D01*
X150039238Y-91580662D01*
X150038074Y-91577851D01*
X150030605Y-91508382D01*
X150061880Y-91445902D01*
X150105183Y-91415837D01*
X150227330Y-91365242D01*
X150227330Y-91365241D01*
X150227337Y-91365239D01*
X150354352Y-91280370D01*
X150462370Y-91172352D01*
X150547239Y-91045337D01*
X150605698Y-90904205D01*
X150635500Y-90754380D01*
X150635500Y-90601620D01*
X150630895Y-90578470D01*
X150605700Y-90451802D01*
X150603931Y-90445972D01*
X150605819Y-90445399D01*
X150599319Y-90384970D01*
X150613964Y-90344977D01*
X150625729Y-90324600D01*
X150648021Y-90285989D01*
X150668500Y-90209562D01*
X150668500Y-88606438D01*
X150662423Y-88583757D01*
X150648022Y-88530012D01*
X150608460Y-88461489D01*
X150382252Y-88235281D01*
X150348767Y-88173958D01*
X150351087Y-88116294D01*
X150350510Y-88116180D01*
X150351239Y-88112510D01*
X150351277Y-88111588D01*
X150351690Y-88110224D01*
X150351698Y-88110205D01*
X150381500Y-87960380D01*
X150381500Y-87807620D01*
X150351698Y-87657795D01*
X150306482Y-87548636D01*
X150293240Y-87516665D01*
X150293235Y-87516656D01*
X150208370Y-87389648D01*
X150208367Y-87389644D01*
X150100355Y-87281632D01*
X150100351Y-87281629D01*
X149973343Y-87196764D01*
X149973334Y-87196759D01*
X149832205Y-87138302D01*
X149832197Y-87138300D01*
X149682384Y-87108500D01*
X149682380Y-87108500D01*
X149529620Y-87108500D01*
X149529615Y-87108500D01*
X149379802Y-87138300D01*
X149379794Y-87138302D01*
X149238665Y-87196759D01*
X149238656Y-87196764D01*
X149111648Y-87281629D01*
X149111644Y-87281632D01*
X149003632Y-87389644D01*
X149003629Y-87389648D01*
X148918764Y-87516656D01*
X148918759Y-87516666D01*
X148875061Y-87622163D01*
X148831220Y-87676566D01*
X148764926Y-87698631D01*
X148697226Y-87681352D01*
X148649616Y-87630214D01*
X148636500Y-87574710D01*
X148636500Y-86839832D01*
X148656185Y-86772793D01*
X148672815Y-86752155D01*
X149148719Y-86276250D01*
X149210040Y-86242767D01*
X149267705Y-86245086D01*
X149267820Y-86244510D01*
X149271479Y-86245237D01*
X149272401Y-86245275D01*
X149273790Y-86245696D01*
X149273795Y-86245698D01*
X149273799Y-86245698D01*
X149273800Y-86245699D01*
X149423615Y-86275499D01*
X149423619Y-86275500D01*
X149423620Y-86275500D01*
X149576381Y-86275500D01*
X149576382Y-86275499D01*
X149726205Y-86245698D01*
X149867337Y-86187239D01*
X149994352Y-86102370D01*
X150102370Y-85994352D01*
X150187239Y-85867337D01*
X150245698Y-85726205D01*
X150275500Y-85576380D01*
X150275500Y-85423620D01*
X150245698Y-85273795D01*
X150187239Y-85132663D01*
X150187238Y-85132662D01*
X150187235Y-85132656D01*
X150102370Y-85005648D01*
X150102367Y-85005644D01*
X149994355Y-84897632D01*
X149994351Y-84897629D01*
X149867343Y-84812764D01*
X149867334Y-84812759D01*
X149726205Y-84754302D01*
X149726197Y-84754300D01*
X149576384Y-84724500D01*
X149576380Y-84724500D01*
X149423620Y-84724500D01*
X149423615Y-84724500D01*
X149273802Y-84754300D01*
X149273794Y-84754302D01*
X149132665Y-84812759D01*
X149132656Y-84812764D01*
X149005648Y-84897629D01*
X149005644Y-84897632D01*
X148897632Y-85005644D01*
X148897629Y-85005648D01*
X148812764Y-85132656D01*
X148812759Y-85132665D01*
X148754302Y-85273794D01*
X148754300Y-85273802D01*
X148724500Y-85423615D01*
X148724500Y-85576384D01*
X148754301Y-85726204D01*
X148754730Y-85727618D01*
X148754736Y-85728393D01*
X148755490Y-85732180D01*
X148754771Y-85732322D01*
X148755345Y-85797485D01*
X148723746Y-85851281D01*
X148151489Y-86423540D01*
X148095541Y-86479487D01*
X148095535Y-86479495D01*
X148055982Y-86548004D01*
X148055979Y-86548009D01*
X148047314Y-86580347D01*
X148035500Y-86624438D01*
X135437451Y-86624438D01*
X135462500Y-86466287D01*
X135462500Y-86253713D01*
X135429246Y-86043757D01*
X135363557Y-85841588D01*
X135267051Y-85652184D01*
X135267049Y-85652181D01*
X135267048Y-85652179D01*
X135142109Y-85480213D01*
X134991786Y-85329890D01*
X134819820Y-85204951D01*
X134630414Y-85108444D01*
X134630413Y-85108443D01*
X134630412Y-85108443D01*
X134428243Y-85042754D01*
X134428241Y-85042753D01*
X134428240Y-85042753D01*
X134266957Y-85017208D01*
X134218287Y-85009500D01*
X134005713Y-85009500D01*
X133957042Y-85017208D01*
X133795760Y-85042753D01*
X133593585Y-85108444D01*
X133404179Y-85204951D01*
X133232213Y-85329890D01*
X133081890Y-85480213D01*
X132956949Y-85652182D01*
X132952484Y-85660946D01*
X132904509Y-85711742D01*
X132836688Y-85728536D01*
X132770553Y-85705998D01*
X132731516Y-85660946D01*
X132727050Y-85652182D01*
X132602109Y-85480213D01*
X132451786Y-85329890D01*
X132279820Y-85204951D01*
X132090414Y-85108444D01*
X132090413Y-85108443D01*
X132090412Y-85108443D01*
X131888243Y-85042754D01*
X131888241Y-85042753D01*
X131888240Y-85042753D01*
X131726957Y-85017208D01*
X131678287Y-85009500D01*
X131465713Y-85009500D01*
X131417042Y-85017208D01*
X131255760Y-85042753D01*
X131053585Y-85108444D01*
X130864178Y-85204951D01*
X130860760Y-85207435D01*
X130833516Y-85217151D01*
X130807390Y-85229564D01*
X130801009Y-85228744D01*
X130794950Y-85230906D01*
X130766778Y-85224350D01*
X130738089Y-85220668D01*
X130733163Y-85216528D01*
X130726898Y-85215071D01*
X130706740Y-85194323D01*
X130684599Y-85175717D01*
X130682693Y-85169573D01*
X130678210Y-85164959D01*
X130672468Y-85136605D01*
X130663902Y-85108983D01*
X130665055Y-85099994D01*
X130664344Y-85096479D01*
X130668393Y-85073987D01*
X130724128Y-84872971D01*
X130724804Y-84870626D01*
X130834619Y-84504331D01*
X130835364Y-84501935D01*
X130952799Y-84137933D01*
X130953561Y-84135652D01*
X131078534Y-83774198D01*
X131079348Y-83771920D01*
X131211841Y-83413069D01*
X131212705Y-83410804D01*
X131352609Y-83054853D01*
X131353513Y-83052620D01*
X131500803Y-82699633D01*
X131501759Y-82697406D01*
X131656374Y-82347527D01*
X131657328Y-82345426D01*
X131819198Y-81998817D01*
X131820256Y-81996611D01*
X131989234Y-81653584D01*
X131990398Y-81651284D01*
X132166473Y-81311848D01*
X132167645Y-81309648D01*
X132350777Y-80973888D01*
X132351905Y-80971869D01*
X132542049Y-80639878D01*
X132543250Y-80637832D01*
X132740216Y-80309940D01*
X132741445Y-80307940D01*
X132945191Y-79984212D01*
X132946545Y-79982110D01*
X133156955Y-79662735D01*
X133158268Y-79660786D01*
X133375378Y-79345708D01*
X133376664Y-79343883D01*
X133600234Y-79033458D01*
X133601667Y-79031511D01*
X133661661Y-78951762D01*
X133717690Y-78910025D01*
X133787394Y-78905205D01*
X133848638Y-78938835D01*
X133877792Y-78985355D01*
X133908598Y-79073395D01*
X134045072Y-79356786D01*
X134045074Y-79356789D01*
X134212423Y-79623123D01*
X134408539Y-79869044D01*
X134630956Y-80091461D01*
X134876877Y-80287577D01*
X135143211Y-80454926D01*
X135426606Y-80591402D01*
X135723500Y-80695289D01*
X136030160Y-80765282D01*
X136342723Y-80800499D01*
X136342724Y-80800500D01*
X136342727Y-80800500D01*
X136657276Y-80800500D01*
X136657276Y-80800499D01*
X136969840Y-80765282D01*
X137276500Y-80695289D01*
X137573394Y-80591402D01*
X137856789Y-80454926D01*
X138123123Y-80287577D01*
X138369044Y-80091461D01*
X138591461Y-79869044D01*
X138787577Y-79623123D01*
X138954926Y-79356789D01*
X139091402Y-79073394D01*
X139195289Y-78776500D01*
X139265282Y-78469840D01*
X139300500Y-78157273D01*
X139300500Y-77842727D01*
X139265282Y-77530160D01*
X139195289Y-77223500D01*
X139091402Y-76926606D01*
X138954926Y-76643211D01*
X138787577Y-76376877D01*
X138591461Y-76130956D01*
X138369044Y-75908539D01*
X138123123Y-75712423D01*
X137856789Y-75545074D01*
X137856786Y-75545072D01*
X137573395Y-75408598D01*
X137485307Y-75377775D01*
X137428530Y-75337053D01*
X137402783Y-75272100D01*
X137416239Y-75203539D01*
X137452751Y-75160872D01*
X137687092Y-74988368D01*
X137688990Y-74987000D01*
X138001718Y-74766676D01*
X138003722Y-74765296D01*
X138320899Y-74551570D01*
X138322922Y-74550238D01*
X138644486Y-74343151D01*
X138646528Y-74341866D01*
X138972288Y-74141540D01*
X138974450Y-74140241D01*
X139304283Y-73946749D01*
X139306438Y-73945515D01*
X139640298Y-73758887D01*
X139642407Y-73757737D01*
X139980077Y-73578094D01*
X139982203Y-73576991D01*
X140323559Y-73404401D01*
X140325741Y-73403327D01*
X140670511Y-73237925D01*
X140672777Y-73236866D01*
X141020986Y-73078640D01*
X141023221Y-73077653D01*
X141374649Y-72926703D01*
X141376830Y-72925793D01*
X141731333Y-72782183D01*
X141733607Y-72781289D01*
X142090971Y-72645104D01*
X142093342Y-72644229D01*
X142453471Y-72515504D01*
X142455739Y-72514720D01*
X142818456Y-72393520D01*
X142820854Y-72392747D01*
X143186030Y-72279114D01*
X143188323Y-72278426D01*
X143555760Y-72172423D01*
X143558222Y-72171740D01*
X143927715Y-72073420D01*
X143930132Y-72072804D01*
X144301710Y-71982163D01*
X144304088Y-71981609D01*
X144677390Y-71898737D01*
X144679865Y-71898215D01*
X145054854Y-71823118D01*
X145057255Y-71822663D01*
X145433694Y-71755390D01*
X145436206Y-71754968D01*
X145813911Y-71695547D01*
X145816367Y-71695186D01*
X146195329Y-71643623D01*
X146197791Y-71643315D01*
X146577732Y-71599647D01*
X146580125Y-71599397D01*
X146960938Y-71563640D01*
X146963397Y-71563435D01*
X147344764Y-71535616D01*
X147347278Y-71535458D01*
X147729161Y-71515577D01*
X147731592Y-71515475D01*
X148113887Y-71503541D01*
X148116415Y-71503489D01*
X148498750Y-71499513D01*
X148501250Y-71499513D01*
X148883582Y-71503489D01*
G37*
%TD.AperFunction*%
%TD*%
M02*
