<?xml version="1.0" encoding="UTF-8"?>
<svg id="Layer_2" xmlns="http://www.w3.org/2000/svg" width="440.03" height="452.98" viewBox="0 0 440.03 452.98">
  <g id="Layer_1-2" data-name="Layer_1">
    <g>
      <g>
        <path d="M22.19,217.89c-1.65,0-3-1.35-3-3v-20.4c0-1.65,1.35-3,3-3h30.83c1.65,0,3-1.35,3-3v-9.91c0-1.65-1.35-3-3-3h-30.83c-1.65,0-3-1.35-3-3v-17.5c0-1.65,1.35-3,3-3h37.1c1.65,0,3-1.35,3-3v-10.45c0-1.65-1.35-3-3-3H3c-1.65,0-3,1.35-3,3v92.58c0,1.65,1.35,3,3,3h56.41c1.65,0,3-1.35,3-3v-10.32c0-1.65-1.35-3-3-3H22.19Z"/>
        <path d="M126.3,166.44c-3.58-4.56-9.04-6.84-16.37-6.84-8.32,0-17.603,7.879-17.603,7.879-1.258,1.068-2.379.594-2.492-1.052l-.17-2.484c-.113-1.646-1.555-2.993-3.205-2.993h-11.39c-1.65,0-3,1.35-3,3v67.26c0,1.65,1.35,3,3,3h12.48c1.65,0,3-1.35,3-3v-45.66c0-1.65.916-3.992,2.035-5.204,0,0,4.465-4.836,9.665-4.836,3.97,0,6.8.94,8.51,2.81,1.7,1.87,2.203,6.061,2.203,6.061.197,1.638.357,4.329.357,5.979v40.85c0,1.65,1.35,3,3,3h12.48c1.65,0,3-1.35,3-3v-41.33c0-1.65-.162-4.34-.36-5.978,0,0-1.56-12.902-5.14-17.462Z"/>
        <path d="M182.89,216.81c-2.13,1.98-4.9,2.98-8.31,2.98-4.44,0-7.74-1.65-9.91-4.95-2.18-3.3-3.011-13.29-3.011-13.29-.137-1.644-.249-3.446-.249-4.005s.114-2.36.254-4.004c0,0,.837-9.861,3.036-13.181,2.19-3.33,5.44-4.99,9.75-4.99,3.5,0,6.31,1.19,8.44,3.58,2.13,2.38,2.817,6.334,2.817,6.334.282,1.626,1.863,2.956,3.513,2.956h11.33c1.65,0,2.767-1.33,2.481-2.955,0,0-2.221-12.655-7.441-17.865-5.23-5.22-12.17-7.82-20.82-7.82-9.89,0-17.67,3.36-23.34,10.09-5.67,6.72-8.094,24.039-8.094,24.039-.229,1.634-.416,3.261-.416,3.616s.183,1.983.406,3.617c0,0,2.454,17.958,8.164,24.618,5.72,6.65,13.52,9.98,23.41,9.98,5.28,0,10.11-1.14,14.48-3.42,4.37-2.28,7.81-5.48,10.33-9.61s3.428-10.669,3.428-10.669c.227-1.634-.938-2.972-2.588-2.972h-11.33c-1.65,0-3.268,1.323-3.595,2.94,0,0-.605,2.99-2.735,4.98Z"/>
        <path d="M276.705,195.815c-.036-1.378-.348-3.825-.693-5.439,0,0-3.352-15.656-9.252-21.706-5.9-6.05-13.52-9.07-22.86-9.07-6.57,0-12.33,1.55-17.3,4.67-4.97,3.11-8.77,7.51-11.41,13.2-2.65,5.69-3.683,16.444-3.683,16.444-.158,1.642-.287,3.184-.287,3.426s.191,1.776.424,3.41c0,0,2.556,17.89,8.496,24.66,5.95,6.77,13.91,10.15,23.89,10.15s17.92-3.39,23.85-10.19c5.92-6.79,8.455-24.082,8.455-24.082.239-1.633.406-4.096.37-5.473ZM254.51,214.33c-2.51,3.64-6.01,5.46-10.48,5.46-4.61,0-8.15-1.85-10.62-5.53-2.47-3.68-3.71-9.01-3.71-15.97,0-7.82,1.24-13.59,3.71-17.32,2.47-3.73,5.97-5.6,10.49-5.6,4.56,0,8.1,1.88,10.61,5.63,2.52,3.75,3.78,9.04,3.78,15.87,0,8-1.26,13.82-3.78,17.46Z"/>
        <path d="M326.39,194.38c0,1.65,1.35,3,3,3h11.46c1.65,0,3,1.35,3,3v10.99c0,1.65-1.16,3.69-2.579,4.533,0,0-5.631,3.347-12.831,3.347-7.16,0-12.6-2.65-16.31-7.93-3.71-5.28-5.256-20.435-5.256-20.435-.167-1.641-.304-4.335-.304-5.985v-.3c0-1.65.132-4.343.294-5.986,0,0,1.476-14.974,4.886-20.164s8.38-7.79,14.9-7.79c5.11,0,9.13,1.31,12.05,3.93,2.92,2.62,4.85,9.501,4.85,9.501.446,1.589,2.16,2.889,3.81,2.889h12.67c1.65,0,2.664-1.307,2.252-2.905,0,0-4.082-15.865-10.312-21.435-6.22-5.58-14.86-8.36-25.9-8.36-7.93,0-14.84,1.9-20.75,5.72-5.9,3.81-10.42,9.32-13.56,16.52-3.13,7.2-4.444,22.571-4.444,22.571-.141,1.644-.256,4.339-.256,5.989v.7c0,1.65.134,4.343.297,5.985,0,0,1.483,14.915,4.793,21.995,3.3,7.09,7.99,12.49,14.07,16.22,6.07,3.72,13.14,5.58,21.2,5.58,7.67,0,14.66-1.21,20.97-3.62,6.31-2.41,12.448-8.142,12.448-8.142,1.206-1.126,2.192-3.398,2.192-5.048v-33.34c0-1.65-1.35-3-3-3h-30.64c-1.65,0-3,1.35-3,3v8.97Z"/>
        <path d="M439.965,195.815c-.036-1.378-.295-3.835-.575-5.461,0,0-1.94-11.244-5.31-16.554-1.18-1.86-2.53-3.57-4.06-5.13-5.9-6.05-13.52-9.07-22.86-9.07-1.11,0-2.19.04-3.25.13-5.24.44-9.92,1.95-14.05,4.54-4.97,3.11-8.77,7.51-11.41,13.2-2.65,5.69-3.683,16.444-3.683,16.444-.158,1.642-.287,3.184-.287,3.426s.191,1.776.424,3.41c0,0,2.556,17.89,8.496,24.66,5.95,6.77,13.91,10.15,23.89,10.15s17.92-3.39,23.85-10.19c2.78-3.2,4.91-6.88,6.39-11.06.72-2.04,1.29-4.2,1.69-6.49.54-2.96.686-6.503.686-6.503.068-1.649.095-4.125.059-5.502ZM396.67,214.26c-2.47-3.68-3.71-9.01-3.71-15.97,0-7.82,1.24-13.59,3.71-17.32,2.47-3.73,5.97-5.6,10.49-5.6.63,0,1.24.04,1.83.11,3.69.45,6.62,2.29,8.78,5.52,2.52,3.75,3.78,9.04,3.78,15.87,0,8-1.26,13.82-3.78,17.46-.68.98-1.43,1.83-2.25,2.55-2.22,1.94-4.97,2.91-8.23,2.91-4.61,0-8.15-1.85-10.62-5.53Z"/>
      </g>
      <path d="M426.482,242.59c4.735,0,8.477,4.019,8.148,8.743-7.853,112.681-101.744,201.648-216.43,201.648S9.623,364.013,1.77,251.333c-.329-4.724,3.412-8.743,8.148-8.743h416.565Z"/>
      <path d="M439.22,207.82c-.4,2.29-.97,4.45-1.69,6.49-1.54,1.99-3.95,3.28-6.68,3.28l-15.55.01c.08-.23.16-.47.22-.72.82-.72,1.57-1.57,2.25-2.55,2.52-3.64,3.78-9.46,3.78-17.46,0-6.83-1.26-12.12-3.78-15.87-2.16-3.23-5.09-5.07-8.78-5.52-1.48-5.34-3.18-10.6-5.08-15.75-28.07-75.91-101.14-130-186.81-129.94-76.19.06-142.34,42.93-175.72,105.84-2.84,5.34-5.43,10.83-7.78,16.45h-14.41v23.5h6.28c-1.44,5.22-2.68,10.52-3.7,15.91h-2.58v18.14c-.17,1.74-.31,3.48-.43,5.23-.07,1.07.08,2.09.43,3.03v.01l-19.19.01v-57.41c2.52-8.51,5.54-16.81,9.03-24.87C43.44,55.9,122.74.07,215.12,0c106.63-.08,195.94,74.16,218.96,173.8,2.55,11.05,4.29,22.41,5.14,34.02Z"/>
    </g>
  </g>
</svg>